<?xml version="1.0" standalone="no"?>
<!DOCTYPE svg PUBLIC "-//W3C//DTD SVG 1.1//EN" "http://www.w3.org/Graphics/SVG/1.1/DTD/svg11.dtd" >
<svg xmlns="http://www.w3.org/2000/svg" xmlns:xlink="http://www.w3.org/1999/xlink" version="1.1">
<metadata>
Created by FontForge 20170731 at Thu Jan 28 13:14:41 2021
 By Aleksey,,,
Copyright 2020 The Archivo Project Authors (https://github.com/Omnibus-Type/Archivo)
</metadata>
<defs>
<font id="Archivo-MediumItalic" horiz-adv-x="573" >
  <font-face 
    font-family="Archivo Medium"
    font-weight="500"
    font-style="italic"
    font-stretch="normal"
    units-per-em="1000"
    panose-1="0 0 0 0 0 0 0 0 0 0"
    ascent="800"
    descent="-200"
    x-height="526"
    cap-height="686"
    bbox="-287 -400 1382 1087"
    underline-thickness="44"
    underline-position="-214"
    slope="-10"
    unicode-range="U+000D-FEFF"
  />
<missing-glyph horiz-adv-x="663" 
d="M97 0v700h500v-700h-500zM177 50h340l-170 255zM147 95l170 255l-170 255v-510zM547 95v510l-170 -255zM347 395l170 255h-340z" />
    <glyph glyph-name="fi" unicode="fi" horiz-adv-x="531" 
d="M-5 -182q-14 0 -28 2t-26 5t-20 6l12 73h51q24 0 38 12t18 35l85 489h-76l15 86h77l13 75q6 32 20 62t44 49t84 19q14 0 27.5 -1.5t26 -4.5t20.5 -7l-13 -73h-51q-23 0 -37 -12t-18 -35l-12 -72h98l-15 -86h-99l-87 -493q-5 -32 -19.5 -61.5t-44 -48.5t-83.5 -19z
M421 617l19 106h104l-19 -106h-104zM314 0l93 526h104l-93 -526h-104z" />
    <glyph glyph-name="fl" unicode="fl" horiz-adv-x="531" 
d="M-5 -182q-14 0 -28 2t-26 5t-20 6l12 73h51q24 0 38 12t18 35l85 489h-76l15 86h77l13 75q6 32 20 62t44 49t84 19q14 0 27.5 -1.5t26 -4.5t20.5 -7l-13 -73h-51q-23 0 -37 -12t-18 -35l-12 -72h98l-15 -86h-99l-87 -493q-5 -32 -19.5 -61.5t-44 -48.5t-83.5 -19zM314 0
l127 723h104l-127 -723h-104z" />
    <glyph glyph-name="f_f" unicode="ff" horiz-adv-x="563" 
d="M-5 -182q-14 0 -28 2t-26 5t-20 6l12 73h51q24 0 38 12t18 35l85 489h-76l15 86h77l13 75q6 32 20 62t44 49t84 19q14 0 27.5 -1.5t26 -4.5t20.5 -7l-13 -73h-51q-23 0 -37 -12t-18 -35l-12 -72h166l13 75q6 32 20 62t44 49t84 19q14 0 27.5 -1.5t26 -4.5t20.5 -7
l-13 -73h-51q-23 0 -37 -12t-18 -35l-12 -72h98l-15 -86h-99l-77 -440h-104l77 440h-166l-87 -493q-5 -32 -19.5 -61.5t-44 -48.5t-83.5 -19z" />
    <glyph glyph-name="f_f_i" unicode="ffi" horiz-adv-x="801" 
d="M-5 -182q-14 0 -28 2t-26 5t-20 6l12 73h51q24 0 38 12t18 35l85 489h-76l15 86h77l13 75q6 32 20 62t44 49t84 19q14 0 27.5 -1.5t26 -4.5t20.5 -7l-13 -73h-51q-23 0 -37 -12t-18 -35l-12 -72h166l13 75q6 32 20 62t44 49t84 19q14 0 27.5 -1.5t26 -4.5t20.5 -7
l-13 -73h-51q-23 0 -37 -12t-18 -35l-12 -72h98l-15 -86h-99l-77 -440h-104l77 440h-166l-87 -493q-5 -32 -19.5 -61.5t-44 -48.5t-83.5 -19zM691 617l19 106h104l-19 -106h-104zM584 0l93 526h104l-93 -526h-104z" />
    <glyph glyph-name="f_f_l" unicode="ffl" horiz-adv-x="801" 
d="M-5 -182q-14 0 -28 2t-26 5t-20 6l12 73h51q24 0 38 12t18 35l85 489h-76l15 86h77l13 75q6 32 20 62t44 49t84 19q14 0 27.5 -1.5t26 -4.5t20.5 -7l-13 -73h-51q-23 0 -37 -12t-18 -35l-12 -72h166l13 75q6 32 20 62t44 49t84 19q14 0 27.5 -1.5t26 -4.5t20.5 -7
l-13 -73h-51q-23 0 -37 -12t-18 -35l-12 -72h98l-15 -86h-99l-77 -440h-104l77 440h-166l-87 -493q-5 -32 -19.5 -61.5t-44 -48.5t-83.5 -19zM584 0l127 723h104l-127 -723h-104z" />
    <glyph glyph-name=".notdef" horiz-adv-x="663" 
d="M97 0v700h500v-700h-500zM177 50h340l-170 255zM147 95l170 255l-170 255v-510zM547 95v510l-170 -255zM347 395l170 255h-340z" />
    <glyph glyph-name=".null" horiz-adv-x="0" 
 />
    <glyph glyph-name="nonmarkingreturn" horiz-adv-x="333" 
 />
    <glyph glyph-name="CR" unicode="&#xd;" horiz-adv-x="600" 
 />
    <glyph glyph-name="space" unicode=" " horiz-adv-x="205" 
 />
    <glyph glyph-name="exclam" unicode="!" horiz-adv-x="282" 
d="M94 185l61 501h122l-117 -501h-66zM39 0l21 116h112l-21 -116h-112z" />
    <glyph glyph-name="quotedbl" unicode="&#x22;" horiz-adv-x="407" 
d="M104 409l3 130l26 147h110l-26 -147l-43 -130h-70zM285 409l2 130l26 147h110l-25 -147l-43 -130h-70z" />
    <glyph glyph-name="numbersign" unicode="#" horiz-adv-x="582" 
d="M72 -12l40 186h-75v86h93l31 145h-78v86h96l46 207h89l-45 -207h134l45 207h90l-45 -207h78v-86h-96l-31 -145h81v-86h-99l-40 -186h-90l40 186h-135l-39 -186h-90zM219 260h135l31 145h-135z" />
    <glyph glyph-name="dollar" unicode="$" horiz-adv-x="524" 
d="M175 -49l137 772h50l-137 -772h-50zM241 67q-52 0 -92 9.5t-67.5 27t-41 42.5t-13.5 55q0 12 2.5 23.5t4.5 18.5h102q-2 -6 -3 -13t-1 -11q0 -25 14.5 -40t40 -22t57.5 -7q24 0 46.5 5t40.5 14t28 24t10 36q0 19 -11.5 31.5t-30.5 21.5t-43.5 16t-51.5 14q-27 8 -53.5 18
t-48 24.5t-34.5 37t-13 54.5q0 43 17.5 75t48.5 53.5t72 32t87 10.5q44 0 80.5 -8t63 -23.5t41 -38.5t14.5 -52q0 -14 -2.5 -26t-4.5 -16h-101q1 6 1.5 11t0.5 9q0 21 -11.5 34.5t-32.5 20t-51 6.5q-27 0 -47.5 -4.5t-35.5 -13.5t-23 -22t-8 -28q0 -23 18 -35.5t46 -20
t61 -18.5q29 -10 57.5 -19.5t52.5 -24.5t38 -38.5t14 -58.5q0 -49 -18.5 -84t-51.5 -57t-76 -32.5t-92 -10.5z" />
    <glyph glyph-name="percent" unicode="%" horiz-adv-x="958" 
d="M142 0l619 686h90l-621 -686h-88zM275 337q-69 0 -107 27.5t-38 95.5q0 14 1.5 30t4.5 32q11 64 33.5 102.5t58 56t83.5 17.5q68 0 106 -27.5t38 -96.5q0 -14 -1 -28t-4 -31q-10 -64 -32.5 -103t-58 -57t-84.5 -18zM676 -12q-68 0 -106.5 27.5t-38.5 95.5q0 14 2 30.5
t5 34.5q11 63 33.5 100.5t58 55t82.5 17.5q69 0 107 -27.5t38 -96.5q0 -14 -1.5 -30t-5.5 -34q-11 -63 -33.5 -101t-57.5 -55t-83 -17zM273 403q44 0 62.5 29.5t26.5 76.5q3 14 4.5 24t2.5 18.5t1 14.5q0 33 -13.5 49.5t-44.5 16.5q-42 0 -61 -29t-28 -77q-2 -13 -4 -23
t-2.5 -18t-0.5 -16q0 -32 13 -49t44 -17zM674 54q43 0 62 29.5t28 76.5q3 14 4 24t1.5 18.5t0.5 14.5q0 33 -13 49.5t-44 16.5q-42 0 -61 -29.5t-28 -77.5q-2 -13 -4 -23t-2.5 -17.5t-0.5 -15.5q0 -32 13.5 -49t43.5 -17z" />
    <glyph glyph-name="ampersand" unicode="&#x26;" horiz-adv-x="710" 
d="M286 -12q-76 0 -132 20t-87 57.5t-31 91.5q0 56 23 96t60.5 65t80.5 34l1 4q-40 20 -65.5 49t-25.5 77q0 53 21.5 93t60.5 67.5t90 41.5t110 14q73 0 126.5 -19.5t83 -54.5t29.5 -84q0 -7 -1 -18.5t-5 -32.5h-105q3 15 3.5 22t0.5 12q0 30 -16.5 49.5t-45.5 29t-69 9.5
q-36 0 -67.5 -8t-56.5 -23.5t-39 -40.5t-14 -59q0 -29 15 -49t41 -30t58 -10h64l-15 -85h-62q-29 0 -59.5 -6.5t-55.5 -21t-40.5 -40t-15.5 -64.5q0 -35 16.5 -56.5t48 -32t73.5 -10.5q55 0 93.5 13t61.5 40t29 66l35 197h192l-15 -87h-88l-19 -107q-12 -66 -48 -112.5
t-96 -71.5t-143 -25z" />
    <glyph glyph-name="quotesingle" unicode="'" horiz-adv-x="227" 
d="M104 409l3 130l26 147h110l-26 -147l-43 -130h-70z" />
    <glyph glyph-name="parenleft" unicode="(" horiz-adv-x="356" 
d="M163 -157q-52 72 -78.5 158t-26.5 179q0 103 31 202t89 188.5t140 164.5h70q-49 -59 -91 -125.5t-73 -139t-48.5 -148.5t-17.5 -154q0 -59 9 -116.5t25.5 -110.5t38.5 -98h-68z" />
    <glyph glyph-name="parenright" unicode=")" horiz-adv-x="356" 
d="M203 735q52 -72 78.5 -158t26.5 -179q0 -103 -31 -202t-89 -188.5t-140 -164.5h-70q49 59 91 125.5t73 139t48.5 148.5t17.5 154q0 60 -9 117t-25 110t-39 98h68z" />
    <glyph glyph-name="asterisk" unicode="*" horiz-adv-x="407" 
d="M180 331l35 135l-118 -77l-26 63l127 57l-106 58l47 62l91 -78l13 136h71l-35 -136l119 78l24 -62l-127 -58l107 -57l-46 -63l-92 77l-13 -135h-71z" />
    <glyph glyph-name="plus" unicode="+" horiz-adv-x="630" 
d="M223 0l38 212h-191l16 86h191l37 213h89l-37 -213h192l-16 -86h-192l-38 -212h-89z" />
    <glyph glyph-name="comma" unicode="," horiz-adv-x="288" 
d="M2 -154l9 45q23 4 39.5 19.5t27.5 38.5t15 51h-54l21 116h111l-18 -105q-8 -44 -23 -74t-35.5 -49.5t-44 -29.5t-48.5 -12z" />
    <glyph glyph-name="hyphen" unicode="-" horiz-adv-x="333" 
d="M33 220l17 100h252l-17 -100h-252z" />
    <glyph glyph-name="period" unicode="." horiz-adv-x="288" 
d="M42 0l20 116h112l-21 -116h-111z" />
    <glyph glyph-name="slash" unicode="/" horiz-adv-x="296" 
d="M-55 -49l352 784h82l-352 -784h-82z" />
    <glyph glyph-name="zero" unicode="0" horiz-adv-x="574" 
d="M251 -12q-62 0 -108 19t-71 65t-25 125q0 22 1.5 45t4.5 48t8 53q15 97 41 164.5t61.5 110t82.5 61.5t103 19q64 0 110 -19.5t71 -65t25 -126.5q0 -20 -2 -43.5t-4.5 -48.5t-7.5 -52q-16 -97 -42 -164.5t-62 -110t-82.5 -61.5t-103.5 -19zM252 75q39 0 68.5 16.5
t49.5 47.5t34.5 76.5t24.5 103.5q6 33 10 58.5t6 45.5t3 36.5t1 30.5q0 62 -22.5 91t-76.5 29q-40 0 -69.5 -16.5t-49.5 -47.5t-34 -76t-25 -104q-6 -32 -10 -58t-6.5 -46t-3.5 -36.5t-1 -30.5q0 -61 23 -90.5t78 -29.5z" />
    <glyph glyph-name="one" unicode="1" horiz-adv-x="547" 
d="M14 0l16 87h169l80 455h-170l11 65q28 2 58 8t61.5 16.5t62.5 24.5t58 31h49l-105 -600h158l-16 -87h-432z" />
    <glyph glyph-name="two" unicode="2" horiz-adv-x="571" 
d="M-2 0l6 31q9 51 38 92.5t69.5 75.5t86.5 64.5t90.5 59.5t81.5 60t59 66t22 78q0 34 -25 58.5t-79 24.5q-46 0 -77 -15.5t-48 -42t-24 -61.5l-8 -41h-104q5 64 27 111t58.5 77.5t83.5 45t100 14.5q75 0 119.5 -23t64.5 -61t20 -82q0 -54 -20 -97.5t-53.5 -79.5
t-74.5 -66.5t-83.5 -56.5t-80 -51t-64.5 -51q-10 -8 -18 -17.5t-13 -18.5h335l-17 -94h-472z" />
    <glyph glyph-name="three" unicode="3" horiz-adv-x="575" 
d="M254 -12q-74 0 -125 19.5t-76.5 56.5t-25.5 87q0 11 1 23t4 31h106q-3 -15 -4 -25t-1 -17q0 -45 31 -67t86 -22q45 0 81 15.5t57.5 47t21.5 80.5q0 34 -17.5 53.5t-46.5 27t-62 7.5h-65l15 87h68q29 0 55.5 8.5t47.5 25.5t33 43t12 61q0 29 -13.5 46.5t-36.5 25.5t-53 8
q-37 0 -68 -12.5t-50 -36.5t-25 -58l-2 -16h-105l3 18q11 60 46.5 103.5t89 66.5t116.5 23t110 -18.5t72.5 -54t25.5 -87.5q0 -49 -19.5 -84.5t-52 -59t-71.5 -38.5l-1 -4q44 -15 72.5 -50t28.5 -91q0 -69 -35 -119t-95 -77t-133 -27z" />
    <glyph glyph-name="four" unicode="4" horiz-adv-x="566" 
d="M297 0l30 161h-311l14 86q53 70 98.5 141t85 148.5t74.5 161.5h116q-22 -54 -52 -110.5t-62 -110.5t-63 -100t-56.5 -80t-40.5 -50h211l34 192q11 18 22 38t21.5 41t20 41t17.5 37h51l-62 -349h88l-14 -86h-88l-29 -161h-105z" />
    <glyph glyph-name="five" unicode="5" 
d="M253 -12q-68 0 -117.5 21t-76.5 60.5t-27 95.5q0 11 1 23t3 25h107q-1 -9 -2 -17.5t-1 -15.5q0 -34 13.5 -58t38.5 -36t58 -12t62 11.5t52 34.5t36 57t13 78q0 53 -27 79t-75 26q-28 0 -53.5 -8.5t-47.5 -23.5t-38 -36l-96 14l95 380h392l-17 -96h-300l-47 -192
q16 12 37 23t48 18t60 7q53 0 93 -19.5t62.5 -59.5t22.5 -99q0 -87 -35.5 -149.5t-96.5 -96.5t-137 -34z" />
    <glyph glyph-name="six" unicode="6" horiz-adv-x="575" 
d="M264 -12q-68 0 -116.5 20t-75.5 67.5t-27 126.5q0 26 3 57t9 67q24 140 65.5 221t100.5 116t135 35q67 0 109.5 -20.5t62 -56.5t19.5 -83q0 -13 -1.5 -26t-3.5 -27h-105q2 11 3 21t1 19q0 43 -22.5 64.5t-68.5 21.5q-55 0 -89.5 -29t-55 -83t-34.5 -130q15 18 40 34.5
t57.5 27t69.5 10.5q64 0 105 -23t61 -63.5t20 -93.5q0 -61 -20.5 -111.5t-56.5 -86.5t-83.5 -55.5t-101.5 -19.5zM259 75q42 0 73 17.5t51 45.5q17 22 25 50.5t8 59.5q0 30 -11 54t-34 38.5t-60 14.5q-39 0 -70.5 -15t-52.5 -42q-18 -22 -27.5 -52t-9.5 -64
q0 -31 11.5 -55.5t35.5 -38t61 -13.5z" />
    <glyph glyph-name="seven" unicode="7" horiz-adv-x="564" 
d="M95 0q15 88 51 171.5t85 159t103.5 141.5t108.5 118h-347l17 96h487l-11 -67q-44 -43 -89.5 -92.5t-89 -106t-81 -117t-64 -124.5t-38.5 -131q-3 -13 -4.5 -22t-3.5 -26h-124z" />
    <glyph glyph-name="eight" unicode="8" horiz-adv-x="575" 
d="M251 -12q-79 0 -128.5 21.5t-72 58t-22.5 82.5q0 47 16 86t49 69t80 47q-35 20 -53 53.5t-18 71.5q0 46 18 86t50.5 70t78 47.5t101.5 17.5q70 0 115.5 -21.5t67.5 -57.5t22 -82q0 -40 -14.5 -75.5t-43 -63.5t-68.5 -46q46 -21 66.5 -56t20.5 -80q0 -63 -30 -115
t-89 -82.5t-146 -30.5zM252 74q21 0 40.5 4t37 11.5t31.5 18.5q22 18 35 45t13 62q0 44 -29 68.5t-87 24.5q-19 0 -37.5 -3t-34 -9.5t-28.5 -15.5q-27 -18 -41.5 -47t-14.5 -68q0 -44 29 -67.5t86 -23.5zM308 393q21 0 40.5 4.5t35.5 13.5t29 22q17 17 26 40.5t9 53.5
q0 42 -27 63.5t-74 21.5q-20 0 -37.5 -4t-32 -11.5t-27.5 -17.5q-19 -18 -30.5 -43.5t-11.5 -58.5q0 -41 25.5 -62.5t74.5 -21.5z" />
    <glyph glyph-name="nine" unicode="9" horiz-adv-x="574" 
d="M240 -12q-66 0 -109 20.5t-63 56.5t-20 83q0 13 1.5 26.5t3.5 26.5h106q-1 -11 -2.5 -21t-1.5 -19q0 -42 22.5 -64t67.5 -22q56 0 90.5 29t55.5 83t34 130q-16 -18 -40.5 -34.5t-56.5 -27t-70 -10.5q-65 0 -105.5 23t-60.5 65t-20 94q0 61 20.5 111t56 85.5t83 55
t102.5 19.5q68 0 117 -20t75.5 -67t26.5 -127q0 -26 -3 -57t-9 -67q-23 -140 -65.5 -221t-101 -116t-134.5 -35zM287 331q39 0 70.5 15t52.5 42q18 22 27.5 52t9.5 64q0 32 -12 56t-35.5 37.5t-61.5 13.5q-40 0 -72 -17t-51 -46q-17 -22 -25 -50.5t-8 -59.5q0 -30 11 -54
t34.5 -38.5t59.5 -14.5z" />
    <glyph glyph-name="colon" unicode=":" horiz-adv-x="315" 
d="M126 411l21 116h112l-21 -116h-112zM55 0l21 116h111l-20 -116h-112z" />
    <glyph glyph-name="semicolon" unicode=";" horiz-adv-x="315" 
d="M17 -154l9 45q22 4 38.5 19.5t27.5 38.5t15 51h-54l21 116h111l-18 -105q-8 -44 -23 -74t-35.5 -49.5t-44 -29.5t-47.5 -12zM125 411l21 116h111l-20 -116h-112z" />
    <glyph glyph-name="less" unicode="&#x3c;" horiz-adv-x="630" 
d="M496 4l-440 199l20 107l509 200l-17 -100l-418 -157l363 -156z" />
    <glyph glyph-name="equal" unicode="=" horiz-adv-x="630" 
d="M88 317l16 86h473l-15 -86h-474zM51 106l15 85h474l-16 -85h-473z" />
    <glyph glyph-name="greater" unicode="&#x3e;" horiz-adv-x="630" 
d="M43 4l17 99l419 157l-363 156l17 94l439 -200l-20 -107z" />
    <glyph glyph-name="question" unicode="?" horiz-adv-x="595" 
d="M232 184l9 52q7 42 25.5 71t43 50.5t50 39.5t48 36.5t36.5 41t14 54.5q0 17 -7.5 34.5t-28.5 29.5t-62 12q-38 0 -64.5 -11.5t-44 -30t-27 -39t-13.5 -40.5q-1 -6 -1.5 -12t-0.5 -11h-105q0 36 11.5 70.5t33 64.5t53.5 53t73.5 36t91.5 13q53 0 92 -11.5t64 -32.5
t37.5 -49.5t12.5 -63.5q0 -48 -16 -82.5t-41 -60t-54 -45.5t-56 -39t-45.5 -40t-23.5 -50l-7 -40h-98zM196 0l20 116h112l-21 -116h-111z" />
    <glyph glyph-name="at" unicode="@" horiz-adv-x="1002" 
d="M454 -153q-113 0 -189.5 26.5t-122.5 74.5t-66.5 112.5t-20.5 142.5q0 85 15.5 155t46 125t75 96t101.5 67t126 39t148 13q96 0 170 -22t124 -63t75.5 -100.5t25.5 -133.5q0 -48 -10 -98t-31 -96.5t-54 -83t-79 -58t-107 -21.5q-32 0 -53.5 8.5t-33 25t-11.5 40.5l-5 4
q-27 -38 -66.5 -58t-81.5 -20q-46 0 -81 20t-53.5 60.5t-18.5 100.5q0 21 1.5 42.5t5.5 41.5q8 47 25.5 89t44.5 75t63 51.5t82 18.5q32 0 56.5 -7.5t43.5 -22.5t31 -39h6l26 58h80l-20 -115l-15 -82.5t-13 -70.5l-10.5 -56t-7 -39t-2.5 -19q0 -13 9.5 -20.5t30.5 -7.5
q32 0 59 15t48.5 41.5t37 61.5t23 76.5t7.5 84.5q0 78 -36.5 135.5t-108 88t-177.5 30.5q-80 0 -148 -16t-122 -49t-92 -84t-57.5 -119t-19.5 -155q0 -65 16 -119.5t53 -94.5t100 -62t157 -22q29 0 56.5 1.5t51 4.5t43 6t31.5 6l-11 -69q-16 -2 -41 -5.5t-57.5 -6
t-72.5 -2.5zM462 106q25 0 45.5 10t36.5 26.5t28 36.5q11 20 18.5 40t12 41t7 40t2.5 35q0 38 -12 60.5t-32 33t-47 10.5q-24 0 -43.5 -8.5t-34.5 -23t-27 -34.5q-10 -17 -17.5 -37t-12 -42t-7 -44t-2.5 -42q0 -52 20.5 -77t64.5 -25z" />
    <glyph glyph-name="A" unicode="A" horiz-adv-x="695" 
d="M-35 0l386 686h141l146 -686h-114l-33 160h-320l-88 -160h-118zM224 255h247l-40 199q-3 16 -6.5 34t-7 36.5t-6 34.5t-4.5 29h-5q-10 -20 -23.5 -46.5t-26 -50.5t-20.5 -40z" />
    <glyph glyph-name="B" unicode="B" horiz-adv-x="702" 
d="M35 0l121 686h325q63 0 108.5 -17.5t70.5 -51t25 -83.5q0 -42 -18.5 -78.5t-50.5 -61t-73 -34.5v-4q45 -14 74 -50t29 -95q0 -72 -33 -119t-88.5 -69.5t-122.5 -22.5h-367zM164 96h239q38 0 67.5 12.5t46.5 39t17 67.5q0 42 -26 65.5t-77 23.5h-230zM218 399h226
q29 0 52.5 8.5t39 24t24 35.5t8.5 43q0 41 -24.5 60.5t-62.5 19.5h-230z" />
    <glyph glyph-name="C" unicode="C" horiz-adv-x="725" 
d="M341 -12q-138 0 -212.5 65t-74.5 201q0 29 2.5 56t6.5 52q19 104 69.5 179.5t130 116t183.5 40.5q81 0 142 -22.5t95.5 -68.5t34.5 -116q0 -13 -1 -27t-4 -28h-115q3 10 3.5 20t0.5 19q0 43 -19.5 71.5t-55 42t-84.5 13.5q-55 0 -99 -17t-77 -48.5t-54.5 -76.5
t-31.5 -100q-4 -17 -6 -31t-3.5 -26t-2 -22.5t-0.5 -22.5q0 -60 20 -98.5t59 -57t95 -18.5q61 0 108 18.5t78 55t41 91.5h110q-14 -89 -62.5 -147t-120 -86t-156.5 -28z" />
    <glyph glyph-name="D" unicode="D" horiz-adv-x="731" 
d="M35 0l121 686h253q141 0 218.5 -64.5t77.5 -202.5q0 -26 -2 -51t-6 -49q-18 -100 -69 -171.5t-130 -109.5t-182 -38h-281zM164 96h146q56 0 102 15.5t81 45t56.5 73t30.5 99.5q4 18 5.5 33t2.5 28t1 25q0 62 -21.5 100.5t-63.5 56.5t-102 18h-151z" />
    <glyph glyph-name="E" unicode="E" horiz-adv-x="674" 
d="M36 0l120 686h532l-17 -96h-419l-34 -191h376l-16 -96h-378l-36 -207h427l-17 -96h-538z" />
    <glyph glyph-name="F" unicode="F" horiz-adv-x="611" 
d="M36 0l120 686h490l-17 -96h-377l-37 -203h342l-16 -95h-342l-52 -292h-111z" />
    <glyph glyph-name="G" unicode="G" horiz-adv-x="795" 
d="M344 -12q-140 0 -215 66t-75 202q0 26 2.5 52.5t6.5 52.5q19 106 72.5 181.5t136.5 115.5t191 40q63 0 116 -12.5t92 -37t60.5 -62t21.5 -87.5q0 -11 -1.5 -22.5t-3.5 -24.5h-114q1 7 1.5 14.5t0.5 13.5q0 32 -12.5 55t-35.5 38t-54 22.5t-68 7.5q-57 0 -104.5 -15
t-84 -45.5t-61 -75t-35.5 -104.5q-3 -19 -5.5 -34t-3.5 -27.5t-2 -23t-1 -21.5q0 -60 21 -98.5t61.5 -57t98.5 -18.5q71 0 124.5 21.5t86.5 61t41 91.5l2 14h-230l17 93h342l-64 -364h-79v83q-33 -32 -71 -53.5t-81.5 -31.5t-93.5 -10z" />
    <glyph glyph-name="H" unicode="H" horiz-adv-x="734" 
d="M36 0l120 686h112l-51 -287h349l51 287h111l-120 -686h-112l53 303h-349l-53 -303h-111z" />
    <glyph glyph-name="I" unicode="I" horiz-adv-x="274" 
d="M35 0l121 686h112l-121 -686h-112z" />
    <glyph glyph-name="J" unicode="J" horiz-adv-x="571" 
d="M231 -12q-102 0 -156.5 40.5t-54.5 120.5q0 10 1.5 26t8.5 46h111q-7 -28 -8 -41t-1 -19q0 -38 25 -58t75 -20q58 0 95.5 38t49.5 109l80 456h112l-79 -454q-15 -83 -50 -137t-87.5 -80.5t-121.5 -26.5z" />
    <glyph glyph-name="K" unicode="K" horiz-adv-x="677" 
d="M36 0l120 686h112l-59 -334l376 334h147l-312 -276l199 -410h-125l-159 334l-151 -124l-37 -210h-111z" />
    <glyph glyph-name="L" unicode="L" horiz-adv-x="552" 
d="M36 0l120 686h111l-103 -589h343l-17 -97h-454z" />
    <glyph glyph-name="M" unicode="M" horiz-adv-x="846" 
d="M36 0l120 686h168l62 -416q3 -20 5 -44t3 -46.5t2 -40.5h7q7 19 16.5 42.5t19.5 47.5t18 43l207 414h175l-120 -686h-112l79 447l9 45t10 47t6 30h-8q-5 -12 -11.5 -27.5t-12.5 -30t-11 -23.5l-243 -488h-102l-68 481q-3 20 -4.5 45t-3.5 43h-7q-3 -18 -5.5 -42t-6 -45.5
t-6.5 -34.5l-79 -447h-107z" />
    <glyph glyph-name="N" unicode="N" horiz-adv-x="734" 
d="M36 0l120 686h108l228 -426q5 -9 12 -23l14 -28t12 -26l6 1q2 17 5 37.5t5 35.5l75 429h107l-120 -686h-104l-222 416q-9 16 -23 44t-24 47h-5q-2 -17 -6 -42t-7 -42l-74 -423h-107z" />
    <glyph glyph-name="O" unicode="O" horiz-adv-x="785" 
d="M357 -12q-96 0 -163.5 30t-103.5 90t-36 148q0 25 2 48.5t6 46.5q18 107 69.5 185t133.5 120t192 42q96 0 163.5 -30t104 -90t36.5 -148q0 -23 -2 -46t-6 -46q-17 -107 -69 -186t-134.5 -121.5t-192.5 -42.5zM357 84q60 0 107 17t82 50t57 80t33 106q2 15 4 27.5t3 22.5
t1.5 19.5t0.5 18.5q0 59 -22 98.5t-64.5 59.5t-102.5 20q-59 0 -106.5 -17.5t-82.5 -50t-57 -79.5t-33 -106q-2 -15 -3.5 -27.5t-2.5 -23t-1.5 -19.5t-0.5 -18q0 -59 22 -98.5t64 -59.5t102 -20z" />
    <glyph glyph-name="P" unicode="P" horiz-adv-x="667" 
d="M36 0l120 686h308q77 0 125.5 -22.5t71 -62.5t22.5 -95q0 -59 -18.5 -105.5t-53 -79.5t-82.5 -50t-107 -17h-229l-46 -254h-111zM209 350h211q44 0 77.5 17t52.5 49t19 78t-26 71t-81 25h-210z" />
    <glyph glyph-name="Q" unicode="Q" horiz-adv-x="785" 
d="M496 -130l-101 120q-9 -1 -19 -1.5t-19 -0.5q-96 0 -163.5 30t-103.5 90t-36 148q0 25 2 48.5t6 46.5q18 107 69.5 185t133.5 120t192 42q96 0 163.5 -30t104 -90t36.5 -148q0 -23 -2 -46t-6 -46q-20 -119 -82 -203.5t-162 -120.5l125 -144h-138zM357 84q60 0 107 17
t82 50t57 80t33 106q2 15 4 27.5t3 22.5t1.5 19.5t0.5 18.5q0 59 -22 98.5t-64.5 59.5t-102.5 20q-59 0 -106.5 -17.5t-82.5 -50t-57 -79.5t-33 -106q-2 -15 -3.5 -27.5t-2.5 -23t-1.5 -19.5t-0.5 -18q0 -59 22 -98.5t64 -59.5t102 -20z" />
    <glyph glyph-name="R" unicode="R" horiz-adv-x="722" 
d="M35 0l121 686h344q69 0 114 -20.5t67 -57t22 -87.5q0 -62 -19.5 -109t-55 -79t-84.5 -50l94 -283h-118l-85 264h-241l-47 -264h-112zM211 359h235q40 0 72 18t51 51t19 79q0 40 -24 61.5t-73 21.5h-239z" />
    <glyph glyph-name="S" unicode="S" horiz-adv-x="670" 
d="M309 -12q-59 0 -110 10t-89.5 30.5t-59.5 53t-21 77.5q0 14 2 30.5t6 29.5h111q-2 -9 -4.5 -21t-2.5 -21q0 -32 20 -53t56 -30.5t84 -9.5q47 0 82 7.5t59 22t36 35t12 45.5t-14.5 42.5t-38.5 30.5t-54.5 23t-63.5 19q-38 12 -76 25.5t-69.5 34.5t-50 51t-18.5 74
q0 53 22.5 91t61.5 63t90 37.5t108 12.5q56 0 102.5 -10t81.5 -29.5t54 -50t19 -71.5q0 -9 -1 -21t-4 -28h-111q3 11 4 18t1 12q0 41 -37.5 63t-105.5 22q-49 0 -88 -11t-61 -31.5t-22 -51.5q0 -21 11.5 -36t32 -26t46.5 -20.5t55 -17.5q41 -13 83.5 -27t78.5 -35t58 -53.5
t22 -79.5q0 -61 -24.5 -104t-66.5 -70t-95.5 -39.5t-110.5 -12.5z" />
    <glyph glyph-name="T" unicode="T" horiz-adv-x="612" 
d="M204 0l103 590h-227l17 96h567l-16 -96h-229l-104 -590h-111z" />
    <glyph glyph-name="U" unicode="U" horiz-adv-x="728" 
d="M330 -12q-123 0 -190.5 51.5t-67.5 156.5q0 15 2 33t5 36l74 421h111l-75 -428q-2 -9 -4 -23.5t-2 -25.5q0 -63 38 -94.5t110 -31.5q83 0 137 43t69 128l76 432h112l-76 -429q-16 -92 -57.5 -152t-107 -88.5t-154.5 -28.5z" />
    <glyph glyph-name="V" unicode="V" horiz-adv-x="659" 
d="M218 0l-131 686h114l77 -419q5 -28 9.5 -56t8.5 -51t5 -38h7q10 22 24.5 50.5t28.5 56t24 44.5l217 413h119l-372 -686h-131z" />
    <glyph glyph-name="W" unicode="W" horiz-adv-x="938" 
d="M156 0l-69 686h107l43 -452q2 -11 3 -30t2.5 -39.5t2.5 -37.5h6q6 17 13 37.5t14 39.5t10 30l183 452h143l34 -452q1 -11 1.5 -30t1.5 -39.5t2 -37.5h5l13.5 36t14.5 39.5t13 31.5l193 452h110l-304 -686h-135l-34 458q-1 15 -2 34.5t-1.5 40t-0.5 34.5h-6
q-5 -16 -12 -36.5t-13.5 -40t-12.5 -32.5l-190 -458h-135z" />
    <glyph glyph-name="X" unicode="X" horiz-adv-x="683" 
d="M-34 0l328 363l-184 323h126l132 -237h5l210 237h137l-296 -330l202 -356h-127l-149 269h-5l-240 -269h-139z" />
    <glyph glyph-name="Y" unicode="Y" horiz-adv-x="666" 
d="M232 0l50 282l-197 404h115l149 -305h6l253 305h123l-338 -404l-49 -282h-112z" />
    <glyph glyph-name="Z" unicode="Z" horiz-adv-x="635" 
d="M-17 0l10 55l478 535h-359l17 96h532l-10 -55l-480 -535h395l-17 -96h-566z" />
    <glyph glyph-name="bracketleft" unicode="[" horiz-adv-x="316" 
d="M25 -161l157 896h198l-13 -75h-106l-132 -746h107l-13 -75h-198z" />
    <glyph glyph-name="backslash" unicode="\" horiz-adv-x="296" 
d="M167 -49l-84 784h74l84 -784h-74z" />
    <glyph glyph-name="bracketright" unicode="]" horiz-adv-x="316" 
d="M299 735l-157 -896h-197l12 75h106l132 746h-106l13 75h197z" />
    <glyph glyph-name="asciicircum" unicode="^" horiz-adv-x="630" 
d="M113 294l228 392h96l91 -392h-89l-64 298l-168 -298h-94z" />
    <glyph glyph-name="underscore" unicode="_" horiz-adv-x="495" 
d="M-71 -140l13 75h495l-13 -75h-495z" />
    <glyph glyph-name="grave" unicode="`" horiz-adv-x="189" 
d="M162 591l-81 129l1 3h106l59 -132h-85z" />
    <glyph glyph-name="a" unicode="a" 
d="M195 -12q-52 0 -90.5 21.5t-59.5 64t-21 106.5q0 20 2.5 42t6.5 47q16 94 50 153.5t83.5 87.5t111.5 28q35 0 63.5 -8.5t50.5 -25.5t35 -44h7l29 66h86l-23 -127q-7 -37 -14.5 -76.5t-14 -77t-12 -68t-8.5 -51t-3 -25.5q0 -13 8 -19.5t21 -6.5h36l-12 -71
q-10 -5 -27.5 -10.5t-41.5 -5.5q-27 0 -45 11.5t-26 33.5q-3 9 -5.5 19.5t-1.5 22.5h-7q-33 -44 -78.5 -65.5t-99.5 -21.5zM238 78q26 0 51 10.5t46 32t37 55t25 80.5q3 19 4.5 33t2.5 25t1 20q0 37 -11 62.5t-34 38.5t-59 13q-43 0 -74.5 -18t-52 -57t-32.5 -102
q-4 -21 -6 -36t-3 -27t-1 -22q0 -55 26 -81.5t80 -26.5z" />
    <glyph glyph-name="b" unicode="b" horiz-adv-x="579" 
d="M292 -12q-56 0 -96.5 21t-60.5 63h-7l-22 -72h-85l127 723h104l-46 -261h7q20 27 45.5 43.5t55 24.5t61.5 8q53 0 91.5 -21.5t59.5 -64t21 -106.5q0 -19 -2 -41.5t-7 -47.5q-16 -94 -50 -153t-84 -87.5t-112 -28.5zM269 78q44 0 75.5 18t52 57t32.5 102q4 21 6 36.5t3 27
t1 21.5q0 37 -11 60.5t-35 35.5t-61 12q-27 0 -52 -10t-46.5 -31.5t-37.5 -55.5t-24 -81q-3 -18 -5 -32.5t-2.5 -25t-0.5 -20.5q0 -36 11 -62t34.5 -39t59.5 -13z" />
    <glyph glyph-name="c" unicode="c" horiz-adv-x="532" 
d="M250 -12q-72 0 -120 21t-72 65.5t-24 112.5q0 28 3 56t10 55q11 53 32 96.5t53 76t76 50t101 17.5q67 0 111.5 -19t67.5 -54t23 -86q0 -11 -1 -23.5t-4 -25.5h-104q1 9 2 17.5t1 17.5q0 27 -9.5 47t-30.5 30.5t-54 10.5q-43 0 -75 -20.5t-53 -60t-32 -96.5q-4 -20 -6 -35
t-3 -27t-1 -22q0 -41 12 -67t36 -38.5t59 -12.5q40 0 67.5 15t44 43t23.5 64h100q-10 -63 -39 -110t-77 -72.5t-117 -25.5z" />
    <glyph glyph-name="d" unicode="d" horiz-adv-x="579" 
d="M210 -12q-55 0 -94.5 23t-60.5 66t-21 103q0 21 1.5 44t6.5 49q12 69 35 118.5t54.5 82t69.5 48.5t82 16q37 0 66.5 -8t52 -24.5t35.5 -43.5h6l46 261h104l-128 -723h-83l2 72h-7q-32 -42 -75 -63t-92 -21zM245 78q45 0 77.5 20.5t53.5 59.5t30 96q4 19 5.5 33t2.5 25
t1 20q0 42 -12.5 67.5t-36 37t-54.5 11.5q-46 0 -77.5 -18t-52 -56t-31.5 -97q-3 -23 -5.5 -39t-3.5 -28t-1 -23q0 -56 26 -82.5t78 -26.5z" />
    <glyph glyph-name="e" unicode="e" horiz-adv-x="554" 
d="M257 -12q-74 0 -124 21.5t-74.5 66t-24.5 111.5q0 27 3 55t8 53q14 70 46.5 124.5t87 86.5t137.5 32q69 0 115 -21.5t69 -64t23 -105.5q0 -23 -3.5 -52t-11.5 -58h-364q-2 -14 -3 -25.5t-1 -23.5q0 -39 12.5 -65t38.5 -38t66 -12q25 0 47 6t40 19t31.5 33.5t19.5 50.5
h102q-9 -50 -30.5 -86.5t-53 -60t-71 -35.5t-85.5 -12zM158 313h256q2 12 3 22.5t1 19.5q0 34 -11.5 56t-34.5 32.5t-55 10.5q-41 0 -72.5 -16t-52.5 -47.5t-34 -77.5z" />
    <glyph glyph-name="f" unicode="f" horiz-adv-x="293" 
d="M-5 -182q-14 0 -28 2t-26 5t-20 6l12 73h51q24 0 38 12t18 35l85 489h-76l15 86h77l13 75q6 32 20 62t44 49t84 19q14 0 27.5 -1.5t26 -4.5t20.5 -7l-13 -73h-51q-23 0 -37 -12t-18 -35l-12 -72h98l-15 -86h-99l-87 -493q-5 -32 -19.5 -61.5t-44 -48.5t-83.5 -19z" />
    <glyph glyph-name="g" unicode="g" 
d="M195 -182q-54 0 -96.5 14t-66.5 40.5t-24 65.5q0 7 0.5 15.5t3.5 21.5h101q-1 -5 -1 -8v-6q0 -21 12 -33.5t33.5 -18t46.5 -5.5q47 0 80.5 16.5t54 49.5t29.5 82q2 10 3 19.5t2 15.5h-6q-20 -26 -45.5 -43t-55 -25t-61.5 -8q-53 0 -91.5 20.5t-59.5 62.5t-21 107
q0 17 1.5 37t5.5 43q23 134 87 195.5t158 61.5q55 0 95.5 -21t60.5 -63h7l22 72h84l-81 -466q-16 -87 -50 -140t-90 -77.5t-138 -24.5zM247 101q28 0 53.5 10t46.5 30t36 51.5t22 75.5q3 18 5 30.5t2.5 22.5t0.5 19q0 36 -11.5 60t-34.5 36t-60 12q-40 0 -72.5 -16.5
t-54 -52.5t-31.5 -96q-3 -20 -5 -34.5t-3 -24.5t-1 -19q0 -35 11.5 -58t35.5 -34.5t60 -11.5z" />
    <glyph glyph-name="h" unicode="h" 
d="M21 0l127 723h104l-46 -260h7q21 23 48 40t57.5 26t63.5 9q42 0 75.5 -13t53.5 -42t20 -77q0 -16 -2 -33.5t-6 -37.5l-59 -335h-104l58 329q2 13 3.5 25t1.5 22q0 27 -10 42.5t-28 22t-42 6.5q-28 0 -55.5 -10.5t-50 -30.5t-39 -50t-22.5 -69l-51 -287h-104z" />
    <glyph glyph-name="i" unicode="i" horiz-adv-x="238" 
d="M128 617l19 106h104l-19 -106h-104zM21 0l93 526h104l-93 -526h-104z" />
    <glyph glyph-name="j" unicode="j" horiz-adv-x="236" 
d="M126 617l19 106h104l-18 -106h-105zM-20 -182q-14 0 -29.5 2t-29 5t-22.5 6l12 73h47q23 0 36 11.5t17 33.5l102 577h104l-102 -582q-6 -32 -20.5 -60.5t-42 -47t-72.5 -18.5z" />
    <glyph glyph-name="k" unicode="k" horiz-adv-x="528" 
d="M21 0l127 723h104l-77 -437l249 240h124l-214 -206l131 -320h-113l-95 253l-104 -92l-28 -161h-104z" />
    <glyph glyph-name="l" unicode="l" horiz-adv-x="238" 
d="M21 0l127 723h104l-127 -723h-104z" />
    <glyph glyph-name="m" unicode="m" horiz-adv-x="860" 
d="M21 0l92 526h84l-3 -75h7q23 28 49.5 47t56.5 29.5t63 10.5q49 0 83.5 -20.5t46.5 -66.5h7q24 28 51 47t58 29.5t65 10.5q61 0 99.5 -30t38.5 -100q0 -15 -2 -31.5t-5 -34.5l-62 -342h-103l59 333q2 13 3.5 23.5t1.5 20.5q0 27 -9.5 42t-26.5 21.5t-39 6.5
q-33 0 -63.5 -19t-52.5 -53.5t-31 -82.5l-51 -292h-104l59 333q2 13 3.5 24t1.5 20q0 27 -9.5 42t-26.5 21.5t-39 6.5q-33 0 -63.5 -19t-52.5 -53.5t-31 -82.5l-51 -292h-104z" />
    <glyph glyph-name="n" unicode="n" 
d="M21 0l92 526h84l-3 -75h7q23 27 52 46.5t62 30t67 10.5q42 0 75.5 -13t53.5 -42t20 -77q0 -16 -2 -33.5t-6 -37.5l-59 -335h-104l58 329q2 13 3.5 25t1.5 22q0 27 -10 42.5t-28 22t-42 6.5q-28 0 -55.5 -10.5t-50 -30.5t-39 -50t-22.5 -69l-51 -287h-104z" />
    <glyph glyph-name="o" unicode="o" horiz-adv-x="583" 
d="M252 -12q-72 0 -121 21.5t-74 65.5t-25 112q0 19 2 40t6 44q16 92 54 151t97 87.5t139 28.5q73 0 122 -21.5t73.5 -65.5t24.5 -113q0 -19 -1.5 -39.5t-6.5 -43.5q-16 -92 -53 -151t-95.5 -87.5t-141.5 -28.5zM258 74q49 0 84 19.5t57.5 59.5t32.5 101q5 20 6.5 34.5
t2 25.5t0.5 20q0 40 -12.5 66t-38.5 39t-66 13q-49 0 -83.5 -20t-57 -59.5t-34.5 -100.5q-3 -20 -5 -35t-3 -25.5t-1 -20.5q0 -40 12.5 -65.5t39.5 -38.5t66 -13z" />
    <glyph glyph-name="p" unicode="p" horiz-adv-x="579" 
d="M-10 -173l123 699h83l-2 -72h8q32 42 75 63t91 21q56 0 95.5 -21.5t60.5 -64.5t21 -106q0 -21 -1.5 -44t-6.5 -49q-16 -91 -51 -149.5t-84 -87t-106 -28.5q-37 0 -67 8t-52 25t-35 43h-7l-41 -237h-104zM267 78q45 0 77 18t52.5 56.5t30.5 96.5q5 23 7 39t3 28.5t1 22.5
q0 38 -12 62t-34.5 35.5t-57.5 11.5q-44 0 -77 -20.5t-54 -59.5t-31 -96q-3 -19 -5.5 -33t-3 -24.5t-0.5 -20.5q0 -42 13 -67.5t36 -37t55 -11.5z" />
    <glyph glyph-name="q" unicode="q" horiz-adv-x="579" 
d="M331 -173l41 237h-6q-20 -26 -45.5 -43t-55 -25t-61.5 -8q-52 0 -91 21.5t-60.5 64t-21.5 106.5q0 20 2.5 42t6.5 47q17 94 51 153.5t84 87.5t112 28q56 0 96.5 -21t60.5 -63h7l22 72h85l-123 -699h-104zM247 78q27 0 52 10t46.5 31.5t37 55.5t23.5 81q4 19 5.5 33t2 25
t0.5 20q0 37 -11 62.5t-34 38.5t-59 13q-43 0 -75 -18t-53 -57t-33 -102q-3 -21 -5.5 -36t-3.5 -27t-1 -22q0 -55 26.5 -81.5t81.5 -26.5z" />
    <glyph glyph-name="r" unicode="r" horiz-adv-x="346" 
d="M21 0l93 526h82l-3 -84h6q13 24 31 45.5t43 36t59 14.5q17 0 30.5 -3t19.5 -5l-16 -98h-36q-32 0 -58.5 -10t-46 -30t-32.5 -48.5t-19 -65.5l-49 -278h-104z" />
    <glyph glyph-name="s" unicode="s" horiz-adv-x="524" 
d="M227 -12q-52 0 -92 9.5t-67.5 27t-41 42.5t-13.5 55q0 12 2.5 23t4.5 19h102q-2 -6 -3 -13t-1 -11q0 -25 14.5 -40.5t40 -22t57.5 -6.5q24 0 46.5 4.5t40.5 13.5t28 24t10 37q0 19 -11.5 31.5t-30.5 21t-43.5 15.5t-51.5 15t-53.5 18t-48 24.5t-34.5 37t-13 54.5
q0 42 17.5 74t48.5 53.5t72 32.5t87 11q44 0 80.5 -8t63 -24t41 -38.5t14.5 -51.5q0 -14 -2.5 -26.5t-4.5 -16.5h-101q1 6 1.5 11t0.5 9q0 22 -11.5 35.5t-32.5 20t-51 6.5q-27 0 -47.5 -4.5t-35.5 -13.5t-23 -22t-8 -29q0 -22 18 -34.5t46 -20.5t61 -19q29 -9 57.5 -19
t52.5 -24.5t38 -38t14 -58.5q0 -49 -18.5 -84t-51.5 -57t-76 -32.5t-92 -10.5z" />
    <glyph glyph-name="t" unicode="t" horiz-adv-x="305" 
d="M157 -12q-39 0 -60.5 13t-30.5 33.5t-9 46.5q0 8 1 15.5t2 15.5l57 328h-66l15 86h68l45 147h82l-26 -147h96l-15 -86h-95l-54 -306q-1 -4 -2.5 -14.5t-1.5 -13.5q0 -15 9 -23.5t28 -8.5h52l-13 -70q-10 -4 -24 -7.5t-29 -6t-29 -2.5z" />
    <glyph glyph-name="u" unicode="u" horiz-adv-x="572" 
d="M190 -12q-42 0 -76.5 13t-54.5 42t-20 77q0 16 2.5 33.5t6.5 37.5l59 335h105l-58 -330q-2 -13 -4 -24.5t-2 -21.5q0 -27 10.5 -42.5t29 -22t41.5 -6.5q28 0 55 10t49.5 30t39 49.5t22.5 67.5l51 290h105l-93 -526h-84l3 75h-7q-22 -27 -51 -46.5t-61.5 -30t-67.5 -10.5z
" />
    <glyph glyph-name="v" unicode="v" horiz-adv-x="516" 
d="M158 0l-100 526h105l45 -251q4 -18 8 -46.5t8 -59t7 -55.5h5q10 23 23.5 53t27 59.5t23.5 48.5l132 251h110l-286 -526h-108z" />
    <glyph glyph-name="w" unicode="w" horiz-adv-x="740" 
d="M119 0l-65 526h104l25 -254q1 -14 3 -40t3.5 -54.5t2.5 -51.5h4q8 23 19 50.5t21 53.5t17 42l106 254h112l19 -254q1 -17 2.5 -43t3 -53.5t2.5 -49.5h4q8 20 18.5 47t21.5 53.5t19 45.5l112 254h104l-250 -526h-107l-19 277q-1 16 -2 38t-2 45t-1 40h-5q-6 -16 -14 -39
t-16.5 -45t-16.5 -39l-117 -277h-108z" />
    <glyph glyph-name="x" unicode="x" horiz-adv-x="529" 
d="M-35 0l239 272l-136 254h116l91 -178h6l150 178h121l-226 -257l143 -269h-116l-96 189h-6l-164 -189h-122z" />
    <glyph glyph-name="y" unicode="y" horiz-adv-x="516" 
d="M52 -182q-33 0 -53 4.5t-25 5.5l12 76h52q24 0 46.5 8.5t43.5 30t39 59.5l-110 524h104l52 -253q5 -22 10 -51.5t9.5 -58.5t6.5 -51h5q7 16 15.5 36t18 41t18.5 40.5t16 33.5l131 263h109l-263 -506q-22 -43 -46 -79.5t-52 -64t-62 -43t-77 -15.5z" />
    <glyph glyph-name="z" unicode="z" horiz-adv-x="503" 
d="M-17 0l10 52l338 388h-251l15 86h411l-9 -51l-340 -389h286l-16 -86h-444z" />
    <glyph glyph-name="braceleft" unicode="{" horiz-adv-x="372" 
d="M249 -159q-48 0 -85 8.5t-58.5 31.5t-21.5 67q0 14 4 40.5t10.5 58.5t12.5 62.5t10 53.5t4 31q0 29 -24.5 39.5t-55.5 10.5l16 87q33 0 63 12.5t36 47.5l36 205q10 58 37.5 88t70.5 40.5t102 10.5l-11 -63q-19 0 -41 -5t-39 -18.5t-23 -39.5l-45 -210q-7 -34 -20 -58
t-38 -36t-69 -12l-2 -10q51 0 71.5 -20.5t20.5 -58.5q0 -10 -3 -36.5t-8 -60.5t-10 -66.5t-8 -56t-3 -28.5q0 -21 12 -32.5t31 -15.5t39 -4z" />
    <glyph glyph-name="bar" unicode="|" horiz-adv-x="245" 
d="M83 -187v910h82v-910h-82z" />
    <glyph glyph-name="braceright" unicode="}" horiz-adv-x="373" 
d="M132 735q48 0 85 -8t58.5 -31.5t21.5 -67.5q0 -14 -4 -40.5t-10 -58.5t-12.5 -62.5t-10.5 -53.5t-4 -31q0 -29 24.5 -39.5t55.5 -10.5l-16 -87q-33 0 -62.5 -12.5t-36.5 -47.5l-36 -205q-10 -58 -37.5 -87.5t-70.5 -40.5t-102 -11l11 63q19 0 41 5t39.5 18.5t22.5 39.5
l45 210q8 35 20.5 58.5t37.5 35.5t69 12l2 10q-51 0 -71.5 20.5t-20.5 58.5q0 10 3 36.5t8 60.5t10 66.5t8 56.5t3 28q0 22 -12 33t-30.5 15t-38.5 4z" />
    <glyph glyph-name="asciitilde" unicode="~" horiz-adv-x="630" 
d="M27 209l17 98l11 11t31.5 25t49.5 25t65 11q29 0 53 -9t47 -21t48 -21t54 -9q32 0 60.5 11t50 25t34 25l12.5 11l-16 -97l-11 -11.5t-31.5 -25.5t-49.5 -25t-66 -11q-28 0 -52.5 9t-47.5 21.5t-47.5 21.5t-53.5 9q-32 0 -60.5 -11t-50.5 -25.5t-34.5 -25.5z" />
    <glyph glyph-name="uni00A0" unicode="&#xa0;" horiz-adv-x="205" 
 />
    <glyph glyph-name="exclamdown" unicode="&#xa1;" horiz-adv-x="282" 
d="M7 -160l117 501h66l-61 -501h-122zM112 410l21 116h111l-20 -116h-112z" />
    <glyph glyph-name="cent" unicode="&#xa2;" horiz-adv-x="563" 
d="M195 -49l137 772h50l-137 -772h-50zM276 67q-72 0 -120 21t-72 65.5t-24 112.5q0 27 3 55.5t9 55.5q12 53 33 96.5t53 75.5t76 50t101 18q66 0 111 -19t68 -54t23 -86q0 -12 -1.5 -24.5t-3.5 -24.5h-104q1 9 2 17.5t1 17.5q0 27 -9.5 46.5t-30.5 30t-54 10.5
q-44 0 -76 -20t-53 -59.5t-31 -97.5q-4 -19 -6 -34.5t-3 -27t-1 -22.5q0 -40 12 -66t36 -38.5t58 -12.5q41 0 68.5 15t44 42.5t23.5 64.5h100q-10 -64 -39 -110.5t-77 -72t-117 -25.5z" />
    <glyph glyph-name="sterling" unicode="&#xa3;" horiz-adv-x="574" 
d="M3 0l16 89h69l37 207h-84l14 87h85l22 122q12 67 42.5 109.5t77.5 63t107 20.5q58 0 101 -15.5t66 -47.5t23 -82q0 -15 -1 -27t-5 -32h-104q3 12 4 19.5t1 12.5v9q0 26 -10.5 42.5t-29 25t-45.5 8.5q-31 0 -56.5 -11t-42 -32t-22.5 -53l-23 -132h162l-15 -87h-163
l-47 -207h317l-16 -89h-480z" />
    <glyph glyph-name="currency" unicode="&#xa4;" horiz-adv-x="574" 
d="M98 99l-44 44l54 56q-26 32 -38.5 71t-12.5 81q0 41 12.5 81t38.5 69l-55 54l46 47l57 -56q30 26 68 39t79 13q40 0 79 -13t68 -39l56 56l47 -47l-55 -54q26 -29 38.5 -69t12.5 -81q0 -42 -12.5 -81t-38.5 -71l54 -56l-44 -44l-55 58q-31 -28 -70 -41.5t-80 -13.5
t-80 13.5t-70 41.5zM303 173q48 0 86.5 24.5t62 65t23.5 88.5q0 47 -23.5 86.5t-62.5 64t-86 24.5t-86 -24.5t-62.5 -64t-23.5 -86.5q0 -48 23.5 -88.5t62.5 -65t86 -24.5z" />
    <glyph glyph-name="yen" unicode="&#xa5;" horiz-adv-x="567" 
d="M186 0l28 155h-194l11 69h195l13 70h-195l12 69h167q-10 21 -21.5 47.5t-16.5 36.5l-100 239h113l77 -202q4 -8 9.5 -23t11 -32t10.5 -30h4q10 14 21.5 30.5t22.5 31.5t17 23l146 202h115l-186 -246q-11 -14 -29.5 -37.5t-31.5 -39.5h164l-12 -69h-193l-13 -70h193
l-12 -69h-192l-28 -155h-106z" />
    <glyph glyph-name="brokenbar" unicode="&#xa6;" horiz-adv-x="245" 
d="M83 348v375h82v-375h-82zM83 -187v375h82v-375h-82z" />
    <glyph glyph-name="section" unicode="&#xa7;" 
d="M216 -182q-50 0 -88 9t-64 25.5t-39 39.5t-13 50q0 11 2.5 23t4.5 18h107q-1 -5 -2 -10.5t-1 -9.5q0 -18 10 -31.5t32 -22t59 -8.5q41 0 69 12.5t42.5 32t14.5 41.5q0 24 -16.5 40.5t-43 29.5t-58.5 25.5t-63.5 27t-58 34t-43 45.5t-16.5 63q0 26 8.5 49t24 44t37 38.5
t47.5 30.5q-24 19 -39.5 44.5t-15.5 60.5q0 36 12 64t33.5 49.5t51.5 36t67 22t80 7.5q49 0 87 -9t64 -25.5t39.5 -39t13.5 -49.5q0 -11 -2.5 -23.5t-4.5 -18.5h-108q1 5 1.5 10.5t0.5 9.5q0 17 -9.5 31t-31 22t-58.5 8q-41 0 -69.5 -12t-42.5 -31.5t-14 -41.5q0 -24 16 -41
t42.5 -30.5t58.5 -26.5t63.5 -27.5t58.5 -34t43 -46t16 -63.5q0 -26 -8.5 -49t-24 -43t-37 -37t-47.5 -30q25 -18 40 -42.5t15 -58.5q0 -37 -12 -65.5t-33 -50.5t-51.5 -36.5t-67 -22t-79.5 -7.5zM340 139q19 11 35 26t26.5 34.5t10.5 42.5q0 28 -16 47.5t-42 34t-58 26.5
t-64 26q-18 -10 -35 -25.5t-27.5 -34.5t-10.5 -42q0 -29 16.5 -49t43 -34.5t58 -26.5t63.5 -25z" />
    <glyph glyph-name="dieresis" unicode="&#xa8;" horiz-adv-x="295" 
d="M63 621l18 101h98l-18 -101h-98zM260 621l17 101h99l-18 -101h-98z" />
    <glyph glyph-name="copyright" unicode="&#xa9;" horiz-adv-x="757" 
d="M394 -12q-77 0 -142 26.5t-112.5 74t-74 112.5t-26.5 142t26.5 142t74 112.5t112.5 74t142 26.5t142 -26.5t112.5 -74t74 -112.5t26.5 -142t-26.5 -142t-74 -112.5t-112.5 -74t-142 -26.5zM392 132q-57 0 -96 21.5t-58.5 68t-19.5 120.5t19.5 120.5t58.5 68t96 21.5
q52 0 87 -17.5t53 -53.5t18 -93h-67q0 39 -9.5 62.5t-29.5 34.5t-52 11q-52 0 -79 -35t-27 -115v-8q0 -53 11.5 -86t35.5 -48t59 -15q32 0 53 11t31 35t10 60h64q0 -48 -17.5 -85t-52.5 -57.5t-88 -20.5zM394 39q87 0 155 39.5t106.5 108t38.5 156.5t-38.5 156t-106.5 107.5
t-155 39.5q-88 0 -156.5 -39.5t-107 -107.5t-38.5 -156t38.5 -156.5t107 -108t156.5 -39.5z" />
    <glyph glyph-name="ordfeminine" unicode="&#xaa;" horiz-adv-x="390" 
d="M180 330q-48 0 -77 33.5t-29 98.5q0 17 1.5 33.5t4.5 34.5q8 45 27 83.5t49.5 61.5t71.5 23q34 0 56.5 -12t35.5 -40h4l18 44h58l-17 -97l-10 -52t-9 -49.5t-7 -42t-5 -30t-2 -14.5q0 -10 5.5 -14t13.5 -4h22l-7 -46q-9 -4 -20.5 -7.5t-26.5 -3.5q-22 0 -35 10t-17 27
q-1 5 -1 11t1 11h-4q-19 -29 -45.5 -44t-55.5 -15zM202 392q21 0 36 10.5t26 27t18 35.5q10 21 17 48t7 50q0 27 -7.5 43.5t-21 23.5t-31.5 7q-41 0 -64 -34t-31 -80q-3 -17 -4 -30.5t-1 -27.5q0 -36 13.5 -54.5t42.5 -18.5z" />
    <glyph glyph-name="guillemotleft" unicode="&#xab;" horiz-adv-x="560" 
d="M183 126l-114 200l175 200h89l-156 -200l85 -200h-79zM387 126l-114 200l176 200h89l-157 -200l86 -200h-80z" />
    <glyph glyph-name="logicalnot" unicode="&#xac;" horiz-adv-x="630" 
d="M429 196l30 168h-399l16 84h482l-45 -252h-84z" />
    <glyph glyph-name="uni00AD" unicode="&#xad;" horiz-adv-x="333" 
d="M33 220l17 100h252l-17 -100h-252z" />
    <glyph glyph-name="registered" unicode="&#xae;" horiz-adv-x="757" 
d="M394 -12q-77 0 -142 26.5t-112.5 74t-74 112.5t-26.5 142t26.5 142t74 112.5t112.5 74t142 26.5t142 -26.5t112.5 -74t74 -112.5t26.5 -142t-26.5 -142t-74 -112.5t-112.5 -74t-142 -26.5zM394 39q87 0 155 39.5t106.5 108t38.5 156.5t-38.5 156t-106.5 107.5t-155 39.5
q-88 0 -156.5 -39.5t-107 -107.5t-38.5 -156t38.5 -156.5t107 -108t156.5 -39.5zM251 137v412h186q63 0 94.5 -33.5t31.5 -90.5q0 -40 -17.5 -71.5t-53.5 -45.5l87 -171h-72l-79 159h-111v-159h-66zM317 354h114q28 0 46 18.5t18 52.5q0 33 -17 50t-47 17h-114v-138z" />
    <glyph glyph-name="macron" unicode="&#xaf;" horiz-adv-x="303" 
d="M65 627l12 73h302l-13 -73h-301z" />
    <glyph glyph-name="degree" unicode="&#xb0;" horiz-adv-x="400" 
d="M252 415q-39 0 -71.5 18.5t-51.5 51t-19 71.5q0 40 19 72t51.5 51t71.5 19q40 0 72 -19t51 -51t19 -72q0 -39 -19 -71.5t-51 -51t-72 -18.5zM252 477q33 0 55.5 23.5t22.5 55.5q0 33 -22.5 55.5t-55.5 22.5q-32 0 -55.5 -22.5t-23.5 -55.5q0 -32 23.5 -55.5t55.5 -23.5z
" />
    <glyph glyph-name="plusminus" unicode="&#xb1;" horiz-adv-x="630" 
d="M199 134l37 212h-191l15 86h192l37 213h89l-38 -213h192l-15 -86h-192l-37 -212h-89zM-16 0l16 86h471l-15 -86h-472z" />
    <glyph glyph-name="uni00B2" unicode="&#xb2;" horiz-adv-x="351" 
d="M78 440l5 23q6 29 24.5 52t44 42t52.5 36t50.5 34t38.5 36t15 41q0 15 -11 25.5t-35 10.5q-21 0 -35 -6.5t-22 -18.5t-11 -28l-4 -22h-66q0 8 0.5 15t1.5 14q7 37 28 60t51 34t62 11q40 0 64 -12t35.5 -32t11.5 -44q0 -29 -10.5 -51.5t-28 -41t-39 -33.5t-43.5 -28.5
t-42.5 -26.5t-36.5 -28h165l-11 -62h-254z" />
    <glyph glyph-name="uni00B3" unicode="&#xb3;" horiz-adv-x="351" 
d="M217 428q-61 0 -92.5 23t-31.5 63q0 5 1 13t3 20h68q-2 -10 -2.5 -14.5t-0.5 -6.5q0 -20 14 -30t39 -10q20 0 36.5 6.5t26 20t9.5 35.5q0 16 -8 24t-21 11.5t-28 3.5h-37l10 59h34q17 0 33 6t27 19t11 33q0 19 -13 28t-33 9q-15 0 -28.5 -5t-22.5 -16.5t-13 -28.5l-1 -9
h-69l2 14q5 31 23.5 54.5t47.5 36t62 12.5q53 0 84 -22t31 -66q0 -23 -8.5 -40t-23 -29t-34.5 -21v-4q21 -10 33 -28t12 -44q0 -38 -19.5 -63.5t-51 -39.5t-69.5 -14z" />
    <glyph glyph-name="acute" unicode="&#xb4;" horiz-adv-x="197" 
d="M58 591l106 132h114v-3l-130 -129h-90z" />
    <glyph glyph-name="uni00B5" unicode="&#xb5;" horiz-adv-x="577" 
d="M-12 -182l126 708h104l-58 -330q-1 -13 -3 -24.5t-2 -21.5q0 -27 10 -42.5t28 -22t41 -6.5q29 0 55.5 10t49 30t38.5 49.5t23 67.5l51 290h105l-93 -526h-84l3 75h-7q-22 -27 -50.5 -46.5t-61 -30t-67.5 -10.5q-22 0 -40 4t-33 12q-1 -14 -3 -28l-4 -28l-24 -130h-104z
" />
    <glyph glyph-name="paragraph" unicode="&#xb6;" horiz-adv-x="577" 
d="M180 -169l74 421q-48 2 -87.5 22.5t-63 59t-23.5 94.5q0 62 20.5 110t57 81t84.5 50t104 17h266l-10 -58h-62l-141 -797h-75l141 797h-69l-141 -797h-75z" />
    <glyph glyph-name="periodcentered" unicode="&#xb7;" horiz-adv-x="333" 
d="M116 298l21 117h113l-21 -117h-113z" />
    <glyph glyph-name="cedilla" unicode="&#xb8;" horiz-adv-x="221" 
d="M18 -179q-23 0 -48.5 2t-46.5 6l9 44h91q24 0 36.5 7t12.5 25q0 9 -8 13.5t-29 4.5h-47l31 88h68l-15 -47q35 -2 60 -13.5t25 -40.5q0 -27 -13.5 -44.5t-34.5 -27t-45 -13.5t-46 -4z" />
    <glyph glyph-name="uni00B9" unicode="&#xb9;" horiz-adv-x="351" 
d="M90 440l11 62h87l36 205h-87l8 46q19 1 41.5 6t44.5 14t41 20h36l-52 -291h78l-11 -62h-233z" />
    <glyph glyph-name="ordmasculine" unicode="&#xba;" horiz-adv-x="385" 
d="M216 330q-70 0 -106.5 33t-36.5 99q0 16 1.5 32.5t4.5 35.5q9 50 31.5 88t59 59.5t86.5 21.5q71 0 108 -32.5t37 -99.5q0 -18 -1.5 -33t-4.5 -32q-9 -53 -32.5 -91.5t-60.5 -59.5t-86 -21zM216 390q47 0 72.5 33t34.5 84q2 11 3.5 20t2 18t0.5 18q0 40 -18.5 58t-54.5 18
q-46 0 -72 -33t-34 -84q-1 -9 -2.5 -18.5t-2 -19t-0.5 -18.5q0 -40 18 -58t53 -18z" />
    <glyph glyph-name="guillemotright" unicode="&#xbb;" horiz-adv-x="560" 
d="M399 526l114 -200l-175 -200h-90l157 200l-86 200h80zM195 526l114 -200l-176 -200h-89l157 200l-86 200h80z" />
    <glyph glyph-name="onequarter" unicode="&#xbc;" horiz-adv-x="850" 
d="M80 -12l671 710h83l-671 -710h-83zM72 340l11 62h87l36 205h-87l8 46q19 1 41.5 6t44.5 14t41 20h36l-52 -291h78l-11 -62h-233zM644 0l14 76h-158l9 54q39 50 71 107t60 122h73q-14 -33 -32 -66.5t-37 -64.5t-36.5 -55t-29.5 -38h90l13 75q7 12 14.5 26t15.5 28t14 28
h39l-28 -157h43l-10 -59h-43l-14 -76h-68z" />
    <glyph glyph-name="onehalf" unicode="&#xbd;" horiz-adv-x="850" 
d="M80 -12l671 710h83l-671 -710h-83zM72 340l11 62h87l36 205h-87l8 46q19 1 41.5 6t44.5 14t41 20h36l-52 -291h78l-11 -62h-233zM490 0l5 23q5 29 23.5 52t44 42t53 36t51 34t38 36t14.5 41q0 15 -10.5 25.5t-34.5 10.5q-21 0 -35.5 -6.5t-22 -18.5t-10.5 -28l-5 -22h-65
q0 8 0.5 15t1.5 14q7 37 28 60t51 34t62 11q40 0 64 -12t35 -32t11 -44q0 -29 -10.5 -51.5t-27.5 -41t-38.5 -33.5t-44 -28.5t-43 -26.5t-35.5 -28h165l-11 -62h-254z" />
    <glyph glyph-name="threequarters" unicode="&#xbe;" horiz-adv-x="850" 
d="M80 -12l671 710h83l-671 -710h-83zM199 328q-61 0 -92.5 23t-31.5 63q0 5 1 13t3 20h68q-2 -10 -2.5 -14.5t-0.5 -6.5q0 -20 14 -30t39 -10q20 0 36.5 6.5t26 20t9.5 35.5q0 16 -8 24t-21 11.5t-28 3.5h-37l10 59h34q17 0 33 6t27 19t11 33q0 19 -13 28t-33 9
q-15 0 -28.5 -5t-22.5 -16.5t-13 -28.5l-1 -9h-69l2 14q5 31 23.5 54.5t47.5 36t62 12.5q53 0 84 -22t31 -66q0 -23 -8.5 -40t-23 -29t-34.5 -21v-4q21 -10 33 -28t12 -44q0 -37 -19.5 -63t-51 -40t-69.5 -14zM644 0l14 76h-158l9 54q39 50 71 107t60 122h73
q-14 -33 -32 -66.5t-37 -64.5t-36.5 -55t-29.5 -38h90l13 75q7 12 14.5 26t15.5 28t14 28h39l-28 -157h43l-10 -59h-43l-14 -76h-68z" />
    <glyph glyph-name="questiondown" unicode="&#xbf;" horiz-adv-x="620" 
d="M244 -172q-53 0 -92 11.5t-64.5 32.5t-37.5 49.5t-12 63.5q0 48 15.5 82.5t41 60t54.5 45.5t56 39t46 40t23 50l7 40h98l-9 -52q-7 -42 -25.5 -71t-43 -50.5t-50.5 -39.5t-48 -36.5t-36 -41t-14 -54.5q0 -17 7 -34.5t28.5 -29.5t61.5 -12q38 0 65 11.5t44.5 30t27 39
t13.5 40.5q1 6 1.5 12t0.5 11h105q0 -36 -11.5 -70.5t-33 -64.5t-53.5 -53t-73.5 -36t-91.5 -13zM283 410l21 116h111l-20 -116h-112z" />
    <glyph glyph-name="Agrave" unicode="&#xc0;" horiz-adv-x="695" 
d="M-35 0l386 686h141l146 -686h-114l-33 160h-320l-88 -160h-118zM224 255h247l-40 199q-3 16 -6.5 34t-7 36.5t-6 34.5t-4.5 29h-5q-10 -20 -23.5 -46.5t-26 -50.5t-20.5 -40zM400 736l-88 129l1 3h113l62 -132h-88z" />
    <glyph glyph-name="Aacute" unicode="&#xc1;" horiz-adv-x="695" 
d="M-35 0l386 686h141l146 -686h-114l-33 160h-320l-88 -160h-118zM224 255h247l-40 199q-3 16 -6.5 34t-7 36.5t-6 34.5t-4.5 29h-5q-10 -20 -23.5 -46.5t-26 -50.5t-20.5 -40zM386 736l108 132h117v-3l-133 -129h-92z" />
    <glyph glyph-name="Acircumflex" unicode="&#xc2;" horiz-adv-x="695" 
d="M-35 0l386 686h141l146 -686h-114l-33 160h-320l-88 -160h-118zM224 255h247l-40 199q-3 16 -6.5 34t-7 36.5t-6 34.5t-4.5 29h-5q-10 -20 -23.5 -46.5t-26 -50.5t-20.5 -40zM275 736l129 132h105l82 -132h-94l-66 107l49 -1l-106 -106h-99z" />
    <glyph glyph-name="Atilde" unicode="&#xc3;" horiz-adv-x="695" 
d="M-35 0l386 686h141l146 -686h-114l-33 160h-320l-88 -160h-118zM224 255h247l-40 199q-3 16 -6.5 34t-7 36.5t-6 34.5t-4.5 29h-5q-10 -20 -23.5 -46.5t-26 -50.5t-20.5 -40zM278 759q6 29 19.5 53t35.5 39t54 15q26 0 47.5 -8t42.5 -17t43 -9q14 0 24 8t15 26h62
q-5 -29 -19 -53.5t-36 -39t-54 -14.5q-25 0 -46.5 9t-42.5 17.5t-44 8.5q-14 0 -24 -8.5t-15 -26.5h-62z" />
    <glyph glyph-name="Adieresis" unicode="&#xc4;" horiz-adv-x="695" 
d="M-35 0l386 686h141l146 -686h-114l-33 160h-320l-88 -160h-118zM224 255h247l-40 199q-3 16 -6.5 34t-7 36.5t-6 34.5t-4.5 29h-5q-10 -20 -23.5 -46.5t-26 -50.5t-20.5 -40zM296 766l17 102h98l-18 -102h-97zM490 766l18 102h98l-18 -102h-98z" />
    <glyph glyph-name="Aring" unicode="&#xc5;" horiz-adv-x="695" 
d="M-35 0l386 686h141l146 -686h-114l-33 160h-320l-88 -160h-118zM224 255h247l-40 199q-3 16 -6.5 34t-7 36.5t-6 34.5t-4.5 29h-5q-10 -20 -23.5 -46.5t-26 -50.5t-20.5 -40zM438 729q-40 0 -66 23.5t-26 58.5q0 32 15.5 57.5t43 39.5t63.5 14q40 0 66 -22.5t26 -58.5
q0 -32 -16 -57t-43.5 -40t-62.5 -15zM446 785q16 0 27.5 6t19 16.5t7.5 24.5q0 15 -11 25t-29 10q-15 0 -27 -6t-19 -17t-7 -25t11 -24t28 -10z" />
    <glyph glyph-name="AE" unicode="&#xc6;" horiz-adv-x="999" 
d="M-46 0l459 686h601l-18 -96h-427l18 -191h332l-17 -96h-306l18 -207h302l-17 -96h-383l-14 161h-322l-106 -161h-120zM241 255h253l-23 265q-1 8 -1.5 16.5t-1.5 18t-2 18t-1 16.5h-5q-7 -11 -15 -23t-15.5 -24t-14.5 -22z" />
    <glyph glyph-name="Ccedilla" unicode="&#xc7;" horiz-adv-x="725" 
d="M341 -12q-138 0 -212.5 65t-74.5 201q0 29 2.5 56t6.5 52q19 104 69.5 179.5t130 116t183.5 40.5q81 0 142 -22.5t95.5 -68.5t34.5 -116q0 -13 -1 -27t-4 -28h-115q3 10 3.5 20t0.5 19q0 43 -19.5 71.5t-55 42t-84.5 13.5q-55 0 -99 -17t-77 -48.5t-54.5 -76.5
t-31.5 -100q-4 -17 -6 -31t-3.5 -26t-2 -22.5t-0.5 -22.5q0 -60 20 -98.5t59 -57t95 -18.5q61 0 108 18.5t78 55t41 91.5h110q-14 -89 -62.5 -147t-120 -86t-156.5 -28zM297 -179q-23 0 -48.5 2t-46.5 6l8 44h92q24 0 36.5 7t12.5 25q0 9 -8 13.5t-29 4.5h-47l31 88h68
l-15 -47q35 -2 60 -13.5t25 -40.5q0 -27 -13.5 -44.5t-34.5 -27t-45 -13.5t-46 -4z" />
    <glyph glyph-name="Egrave" unicode="&#xc8;" horiz-adv-x="674" 
d="M36 0l120 686h532l-17 -96h-419l-34 -191h376l-16 -96h-378l-36 -207h427l-17 -96h-538zM394 736l-87 129l1 3h112l62 -132h-88z" />
    <glyph glyph-name="Eacute" unicode="&#xc9;" horiz-adv-x="674" 
d="M36 0l120 686h532l-17 -96h-419l-34 -191h376l-16 -96h-378l-36 -207h427l-17 -96h-538zM380 736l108 132h117v-3l-132 -129h-93z" />
    <glyph glyph-name="Ecircumflex" unicode="&#xca;" horiz-adv-x="674" 
d="M36 0l120 686h532l-17 -96h-419l-34 -191h376l-16 -96h-378l-36 -207h427l-17 -96h-538zM269 736l130 132h104l82 -132h-93l-67 107l50 -1l-107 -106h-99z" />
    <glyph glyph-name="Edieresis" unicode="&#xcb;" horiz-adv-x="674" 
d="M36 0l120 686h532l-17 -96h-419l-34 -191h376l-16 -96h-378l-36 -207h427l-17 -96h-538zM290 766l17 102h98l-18 -102h-97zM484 766l18 102h98l-18 -102h-98z" />
    <glyph glyph-name="Igrave" unicode="&#xcc;" horiz-adv-x="274" 
d="M35 0l121 686h112l-121 -686h-112zM185 736l-87 129l1 3h112l62 -132h-88z" />
    <glyph glyph-name="Iacute" unicode="&#xcd;" horiz-adv-x="274" 
d="M35 0l121 686h112l-121 -686h-112zM171 736l108 132h117v-3l-132 -129h-93z" />
    <glyph glyph-name="Icircumflex" unicode="&#xce;" horiz-adv-x="274" 
d="M35 0l121 686h112l-121 -686h-112zM60 736l130 132h105l81 -132h-93l-67 107l50 -1l-107 -106h-99z" />
    <glyph glyph-name="Idieresis" unicode="&#xcf;" horiz-adv-x="274" 
d="M35 0l121 686h112l-121 -686h-112zM81 766l17 102h98l-18 -102h-97zM275 766l18 102h98l-18 -102h-98z" />
    <glyph glyph-name="Eth" unicode="&#xd0;" horiz-adv-x="731" 
d="M7 304l16 88h373l-15 -88h-374zM35 0l121 686h253q141 0 218.5 -64.5t77.5 -202.5q0 -26 -2 -51t-6 -49q-18 -100 -69 -171.5t-130 -109.5t-182 -38h-281zM164 96h146q56 0 102 15.5t81 45t56.5 73t30.5 99.5q4 18 5.5 33t2.5 28t1 25q0 62 -21.5 100.5t-63.5 56.5
t-102 18h-151z" />
    <glyph glyph-name="Ntilde" unicode="&#xd1;" horiz-adv-x="734" 
d="M36 0l120 686h108l228 -426q5 -9 12 -23l14 -28t12 -26l6 1q2 17 5 37.5t5 35.5l75 429h107l-120 -686h-104l-222 416q-9 16 -23 44t-24 47h-5q-2 -17 -6 -42t-7 -42l-74 -423h-107zM297 759q6 29 19.5 53t35.5 39t53 15q26 0 48 -8t43 -17t43 -9q14 0 24 8t15 26h62
q-5 -29 -19 -53.5t-36.5 -39t-54.5 -14.5q-24 0 -46 9t-42.5 17.5t-43.5 8.5q-15 0 -24.5 -8.5t-15.5 -26.5h-61z" />
    <glyph glyph-name="Ograve" unicode="&#xd2;" horiz-adv-x="785" 
d="M357 -12q-96 0 -163.5 30t-103.5 90t-36 148q0 25 2 48.5t6 46.5q18 107 69.5 185t133.5 120t192 42q96 0 163.5 -30t104 -90t36.5 -148q0 -23 -2 -46t-6 -46q-17 -107 -69 -186t-134.5 -121.5t-192.5 -42.5zM357 84q60 0 107 17t82 50t57 80t33 106q2 15 4 27.5t3 22.5
t1.5 19.5t0.5 18.5q0 59 -22 98.5t-64.5 59.5t-102.5 20q-59 0 -106.5 -17.5t-82.5 -50t-57 -79.5t-33 -106q-2 -15 -3.5 -27.5t-2.5 -23t-1.5 -19.5t-0.5 -18q0 -59 22 -98.5t64 -59.5t102 -20zM440 736l-87 129l1 3h112l62 -132h-88z" />
    <glyph glyph-name="Oacute" unicode="&#xd3;" horiz-adv-x="785" 
d="M357 -12q-96 0 -163.5 30t-103.5 90t-36 148q0 25 2 48.5t6 46.5q18 107 69.5 185t133.5 120t192 42q96 0 163.5 -30t104 -90t36.5 -148q0 -23 -2 -46t-6 -46q-17 -107 -69 -186t-134.5 -121.5t-192.5 -42.5zM357 84q60 0 107 17t82 50t57 80t33 106q2 15 4 27.5t3 22.5
t1.5 19.5t0.5 18.5q0 59 -22 98.5t-64.5 59.5t-102.5 20q-59 0 -106.5 -17.5t-82.5 -50t-57 -79.5t-33 -106q-2 -15 -3.5 -27.5t-2.5 -23t-1.5 -19.5t-0.5 -18q0 -59 22 -98.5t64 -59.5t102 -20zM426 736l108 132h117v-3l-132 -129h-93z" />
    <glyph glyph-name="Ocircumflex" unicode="&#xd4;" horiz-adv-x="785" 
d="M357 -12q-96 0 -163.5 30t-103.5 90t-36 148q0 25 2 48.5t6 46.5q18 107 69.5 185t133.5 120t192 42q96 0 163.5 -30t104 -90t36.5 -148q0 -23 -2 -46t-6 -46q-17 -107 -69 -186t-134.5 -121.5t-192.5 -42.5zM357 84q60 0 107 17t82 50t57 80t33 106q2 15 4 27.5t3 22.5
t1.5 19.5t0.5 18.5q0 59 -22 98.5t-64.5 59.5t-102.5 20q-59 0 -106.5 -17.5t-82.5 -50t-57 -79.5t-33 -106q-2 -15 -3.5 -27.5t-2.5 -23t-1.5 -19.5t-0.5 -18q0 -59 22 -98.5t64 -59.5t102 -20zM315 736l130 132h104l82 -132h-93l-67 107l50 -1l-107 -106h-99z" />
    <glyph glyph-name="Otilde" unicode="&#xd5;" horiz-adv-x="785" 
d="M357 -12q-96 0 -163.5 30t-103.5 90t-36 148q0 25 2 48.5t6 46.5q18 107 69.5 185t133.5 120t192 42q96 0 163.5 -30t104 -90t36.5 -148q0 -23 -2 -46t-6 -46q-17 -107 -69 -186t-134.5 -121.5t-192.5 -42.5zM357 84q60 0 107 17t82 50t57 80t33 106q2 15 4 27.5t3 22.5
t1.5 19.5t0.5 18.5q0 59 -22 98.5t-64.5 59.5t-102.5 20q-59 0 -106.5 -17.5t-82.5 -50t-57 -79.5t-33 -106q-2 -15 -3.5 -27.5t-2.5 -23t-1.5 -19.5t-0.5 -18q0 -59 22 -98.5t64 -59.5t102 -20zM318 759q6 29 19.5 53t36 39t53.5 15q26 0 47.5 -8t42.5 -17t44 -9
q14 0 23.5 8t15.5 26h62q-5 -29 -19.5 -53.5t-36.5 -39t-54 -14.5q-25 0 -46.5 9t-42 17.5t-44.5 8.5q-14 0 -24 -8.5t-15 -26.5h-62z" />
    <glyph glyph-name="Odieresis" unicode="&#xd6;" horiz-adv-x="785" 
d="M357 -12q-96 0 -163.5 30t-103.5 90t-36 148q0 25 2 48.5t6 46.5q18 107 69.5 185t133.5 120t192 42q96 0 163.5 -30t104 -90t36.5 -148q0 -23 -2 -46t-6 -46q-17 -107 -69 -186t-134.5 -121.5t-192.5 -42.5zM357 84q60 0 107 17t82 50t57 80t33 106q2 15 4 27.5t3 22.5
t1.5 19.5t0.5 18.5q0 59 -22 98.5t-64.5 59.5t-102.5 20q-59 0 -106.5 -17.5t-82.5 -50t-57 -79.5t-33 -106q-2 -15 -3.5 -27.5t-2.5 -23t-1.5 -19.5t-0.5 -18q0 -59 22 -98.5t64 -59.5t102 -20zM336 766l17 102h98l-18 -102h-97zM530 766l18 102h98l-18 -102h-98z" />
    <glyph glyph-name="multiply" unicode="&#xd7;" horiz-adv-x="630" 
d="M127 42l-53 65l180 151l-120 145l67 59l119 -145l180 152l53 -66l-180 -152l120 -144l-67 -59l-119 145z" />
    <glyph glyph-name="Oslash" unicode="&#xd8;" horiz-adv-x="785" 
d="M357 -12q-96 0 -163.5 30t-103.5 90t-36 148q0 25 2 48.5t6 46.5q18 107 69.5 185t133.5 120t192 42q96 0 163.5 -30t104 -90t36.5 -148q0 -23 -2 -46t-6 -46q-17 -107 -69 -186t-134.5 -121.5t-192.5 -42.5zM357 84q60 0 107 17t82 50t57 80t33 106q2 15 4 27.5t3 22.5
t1.5 19.5t0.5 18.5q0 59 -22 98.5t-64.5 59.5t-102.5 20q-59 0 -106.5 -17.5t-82.5 -50t-57 -79.5t-33 -106q-2 -15 -3.5 -27.5t-2.5 -23t-1.5 -19.5t-0.5 -18q0 -59 22 -98.5t64 -59.5t102 -20zM-1 -49l720 784h96l-720 -784h-96z" />
    <glyph glyph-name="Ugrave" unicode="&#xd9;" horiz-adv-x="728" 
d="M330 -12q-123 0 -190.5 51.5t-67.5 156.5q0 15 2 33t5 36l74 421h111l-75 -428q-2 -9 -4 -23.5t-2 -25.5q0 -63 38 -94.5t110 -31.5q83 0 137 43t69 128l76 432h112l-76 -429q-16 -92 -57.5 -152t-107 -88.5t-154.5 -28.5zM418 736l-87 129l1 3h112l62 -132h-88z" />
    <glyph glyph-name="Uacute" unicode="&#xda;" horiz-adv-x="728" 
d="M330 -12q-123 0 -190.5 51.5t-67.5 156.5q0 15 2 33t5 36l74 421h111l-75 -428q-2 -9 -4 -23.5t-2 -25.5q0 -63 38 -94.5t110 -31.5q83 0 137 43t69 128l76 432h112l-76 -429q-16 -92 -57.5 -152t-107 -88.5t-154.5 -28.5zM404 736l108 132h117v-3l-132 -129h-93z" />
    <glyph glyph-name="Ucircumflex" unicode="&#xdb;" horiz-adv-x="728" 
d="M330 -12q-123 0 -190.5 51.5t-67.5 156.5q0 15 2 33t5 36l74 421h111l-75 -428q-2 -9 -4 -23.5t-2 -25.5q0 -63 38 -94.5t110 -31.5q83 0 137 43t69 128l76 432h112l-76 -429q-16 -92 -57.5 -152t-107 -88.5t-154.5 -28.5zM293 736l130 132h105l81 -132h-93l-67 107
l50 -1l-107 -106h-99z" />
    <glyph glyph-name="Udieresis" unicode="&#xdc;" horiz-adv-x="728" 
d="M330 -12q-123 0 -190.5 51.5t-67.5 156.5q0 15 2 33t5 36l74 421h111l-75 -428q-2 -9 -4 -23.5t-2 -25.5q0 -63 38 -94.5t110 -31.5q83 0 137 43t69 128l76 432h112l-76 -429q-16 -92 -57.5 -152t-107 -88.5t-154.5 -28.5zM314 766l17 102h98l-18 -102h-97zM508 766
l18 102h98l-18 -102h-98z" />
    <glyph glyph-name="Yacute" unicode="&#xdd;" horiz-adv-x="666" 
d="M232 0l50 282l-197 404h115l149 -305h6l253 305h123l-338 -404l-49 -282h-112zM365 736l108 132h117v-3l-132 -129h-93z" />
    <glyph glyph-name="Thorn" unicode="&#xde;" horiz-adv-x="684" 
d="M35 0l121 686h112l-20 -113h187q78 0 126 -22t70.5 -62.5t22.5 -95.5q0 -59 -18.5 -105.5t-53 -79.5t-82 -50t-106.5 -17h-222l-25 -141h-112zM188 236h203q44 0 77.5 17t52.5 49.5t19 78.5t-25.5 71t-81.5 25h-202z" />
    <glyph glyph-name="germandbls" unicode="&#xdf;" horiz-adv-x="622" 
d="M21 0l90 514q10 55 32 96t55.5 69t78 42t99.5 14q53 0 94 -11t69 -32t42.5 -51t14.5 -68q0 -43 -18 -78.5t-51 -61t-78 -38.5v-4q55 -18 84 -57.5t29 -102.5q0 -54 -19.5 -96.5t-55 -72.5t-84 -46t-104.5 -16h-96l15 86h83q48 0 82.5 20t53.5 53t19 72q0 34 -14 58
t-38.5 36.5t-57.5 12.5h-84l16 91h77q35 0 65 16.5t48.5 45t18.5 65.5q0 41 -27.5 67.5t-83.5 26.5q-41 0 -74.5 -15t-55.5 -44t-30 -73l-91 -518h-104z" />
    <glyph glyph-name="agrave" unicode="&#xe0;" 
d="M195 -12q-52 0 -90.5 21.5t-59.5 64t-21 106.5q0 20 2.5 42t6.5 47q16 94 50 153.5t83.5 87.5t111.5 28q35 0 63.5 -8.5t50.5 -25.5t35 -44h7l29 66h86l-23 -127q-7 -37 -14.5 -76.5t-14 -77t-12 -68t-8.5 -51t-3 -25.5q0 -13 8 -19.5t21 -6.5h36l-12 -71
q-10 -5 -27.5 -10.5t-41.5 -5.5q-27 0 -45 11.5t-26 33.5q-3 9 -5.5 19.5t-1.5 22.5h-7q-33 -44 -78.5 -65.5t-99.5 -21.5zM238 78q26 0 51 10.5t46 32t37 55t25 80.5q3 19 4.5 33t2.5 25t1 20q0 37 -11 62.5t-34 38.5t-59 13q-43 0 -74.5 -18t-52 -57t-32.5 -102
q-4 -21 -6 -36t-3 -27t-1 -22q0 -55 26 -81.5t80 -26.5zM286 591l-81 129l1 3h106l59 -132h-85z" />
    <glyph glyph-name="aacute" unicode="&#xe1;" 
d="M195 -12q-52 0 -90.5 21.5t-59.5 64t-21 106.5q0 20 2.5 42t6.5 47q16 94 50 153.5t83.5 87.5t111.5 28q35 0 63.5 -8.5t50.5 -25.5t35 -44h7l29 66h86l-23 -127q-7 -37 -14.5 -76.5t-14 -77t-12 -68t-8.5 -51t-3 -25.5q0 -13 8 -19.5t21 -6.5h36l-12 -71
q-10 -5 -27.5 -10.5t-41.5 -5.5q-27 0 -45 11.5t-26 33.5q-3 9 -5.5 19.5t-1.5 22.5h-7q-33 -44 -78.5 -65.5t-99.5 -21.5zM238 78q26 0 51 10.5t46 32t37 55t25 80.5q3 19 4.5 33t2.5 25t1 20q0 37 -11 62.5t-34 38.5t-59 13q-43 0 -74.5 -18t-52 -57t-32.5 -102
q-4 -21 -6 -36t-3 -27t-1 -22q0 -55 26 -81.5t80 -26.5zM273 591l106 132h114v-3l-130 -129h-90z" />
    <glyph glyph-name="acircumflex" unicode="&#xe2;" 
d="M195 -12q-52 0 -90.5 21.5t-59.5 64t-21 106.5q0 20 2.5 42t6.5 47q16 94 50 153.5t83.5 87.5t111.5 28q35 0 63.5 -8.5t50.5 -25.5t35 -44h7l29 66h86l-23 -127q-7 -37 -14.5 -76.5t-14 -77t-12 -68t-8.5 -51t-3 -25.5q0 -13 8 -19.5t21 -6.5h36l-12 -71
q-10 -5 -27.5 -10.5t-41.5 -5.5q-27 0 -45 11.5t-26 33.5q-3 9 -5.5 19.5t-1.5 22.5h-7q-33 -44 -78.5 -65.5t-99.5 -21.5zM238 78q26 0 51 10.5t46 32t37 55t25 80.5q3 19 4.5 33t2.5 25t1 20q0 37 -11 62.5t-34 38.5t-59 13q-43 0 -74.5 -18t-52 -57t-32.5 -102
q-4 -21 -6 -36t-3 -27t-1 -22q0 -55 26 -81.5t80 -26.5zM168 591l130 132h98l81 -132h-90l-67 106h50l-106 -106h-96z" />
    <glyph glyph-name="atilde" unicode="&#xe3;" 
d="M195 -12q-52 0 -90.5 21.5t-59.5 64t-21 106.5q0 20 2.5 42t6.5 47q16 94 50 153.5t83.5 87.5t111.5 28q35 0 63.5 -8.5t50.5 -25.5t35 -44h7l29 66h86l-23 -127q-7 -37 -14.5 -76.5t-14 -77t-12 -68t-8.5 -51t-3 -25.5q0 -13 8 -19.5t21 -6.5h36l-12 -71
q-10 -5 -27.5 -10.5t-41.5 -5.5q-27 0 -45 11.5t-26 33.5q-3 9 -5.5 19.5t-1.5 22.5h-7q-33 -44 -78.5 -65.5t-99.5 -21.5zM238 78q26 0 51 10.5t46 32t37 55t25 80.5q3 19 4.5 33t2.5 25t1 20q0 37 -11 62.5t-34 38.5t-59 13q-43 0 -74.5 -18t-52 -57t-32.5 -102
q-4 -21 -6 -36t-3 -27t-1 -22q0 -55 26 -81.5t80 -26.5zM163 614q6 29 19.5 53.5t36 39.5t53.5 15q26 0 48 -8.5t42.5 -17.5t43.5 -9q14 0 23.5 8.5t15.5 26.5h62q-5 -29 -19.5 -54t-36.5 -39.5t-54 -14.5q-25 0 -46.5 9t-42.5 18t-43 9q-15 0 -25 -9t-15 -27h-62z" />
    <glyph glyph-name="adieresis" unicode="&#xe4;" 
d="M195 -12q-52 0 -90.5 21.5t-59.5 64t-21 106.5q0 20 2.5 42t6.5 47q16 94 50 153.5t83.5 87.5t111.5 28q35 0 63.5 -8.5t50.5 -25.5t35 -44h7l29 66h86l-23 -127q-7 -37 -14.5 -76.5t-14 -77t-12 -68t-8.5 -51t-3 -25.5q0 -13 8 -19.5t21 -6.5h36l-12 -71
q-10 -5 -27.5 -10.5t-41.5 -5.5q-27 0 -45 11.5t-26 33.5q-3 9 -5.5 19.5t-1.5 22.5h-7q-33 -44 -78.5 -65.5t-99.5 -21.5zM238 78q26 0 51 10.5t46 32t37 55t25 80.5q3 19 4.5 33t2.5 25t1 20q0 37 -11 62.5t-34 38.5t-59 13q-43 0 -74.5 -18t-52 -57t-32.5 -102
q-4 -21 -6 -36t-3 -27t-1 -22q0 -55 26 -81.5t80 -26.5zM185 621l17 101h98l-18 -101h-97zM381 621l18 101h98l-17 -101h-99z" />
    <glyph glyph-name="aring" unicode="&#xe5;" 
d="M195 -12q-52 0 -90.5 21.5t-59.5 64t-21 106.5q0 20 2.5 42t6.5 47q16 94 50 153.5t83.5 87.5t111.5 28q35 0 63.5 -8.5t50.5 -25.5t35 -44h7l29 66h86l-23 -127q-7 -37 -14.5 -76.5t-14 -77t-12 -68t-8.5 -51t-3 -25.5q0 -13 8 -19.5t21 -6.5h36l-12 -71
q-10 -5 -27.5 -10.5t-41.5 -5.5q-27 0 -45 11.5t-26 33.5q-3 9 -5.5 19.5t-1.5 22.5h-7q-33 -44 -78.5 -65.5t-99.5 -21.5zM238 78q26 0 51 10.5t46 32t37 55t25 80.5q3 19 4.5 33t2.5 25t1 20q0 37 -11 62.5t-34 38.5t-59 13q-43 0 -74.5 -18t-52 -57t-32.5 -102
q-4 -21 -6 -36t-3 -27t-1 -22q0 -55 26 -81.5t80 -26.5zM330 579q-37 0 -61.5 24t-24.5 60q0 48 31 78.5t79 30.5q36 0 59.5 -23.5t23.5 -59.5q0 -31 -13.5 -56t-37.5 -39.5t-56 -14.5zM333 628q17 0 29 7t18.5 19.5t6.5 28.5q0 18 -10.5 29.5t-28.5 11.5q-15 0 -27.5 -7.5
t-19.5 -19.5t-7 -29t11.5 -28.5t27.5 -11.5z" />
    <glyph glyph-name="ae" unicode="&#xe6;" horiz-adv-x="894" 
d="M188 -12q-29 0 -60.5 5t-59 19t-44.5 39t-17 64q0 49 20 84t55.5 57.5t83.5 34.5t106 17t122 5l8 51q2 6 2.5 13.5t0.5 12.5q0 29 -21 46.5t-78 17.5q-44 0 -70.5 -9.5t-38.5 -25.5t-16 -37l-3 -12h-101q0 2 0.5 7t1.5 9q9 48 40 82t80 52t111 18q67 0 110.5 -16.5
t64.5 -47.5q32 31 75 47.5t99 16.5q67 0 112.5 -21t68.5 -62.5t23 -103.5q0 -22 -3 -50.5t-11 -63.5h-363q-2 -14 -3.5 -26.5t-1.5 -24.5q0 -39 12.5 -65t38.5 -38t64 -12q29 0 53 7.5t41.5 21.5t29 34.5t16.5 47.5h102q-7 -47 -27.5 -83t-51.5 -60.5t-72 -37.5t-90 -13
q-72 0 -121.5 22t-73.5 68q-29 -32 -63.5 -52t-72.5 -29t-78 -9zM200 72q33 0 62.5 9.5t53 27.5t39 42.5t20.5 54.5l6 31q-72 0 -132 -8t-95.5 -31.5t-35.5 -69.5q0 -18 9.5 -30.5t28 -19t44.5 -6.5zM501 313h254q2 12 3 22.5t1 19.5q0 36 -12 57.5t-34.5 31.5t-53.5 10
q-42 0 -73.5 -15.5t-52 -47t-32.5 -78.5z" />
    <glyph glyph-name="ccedilla" unicode="&#xe7;" horiz-adv-x="532" 
d="M250 -12q-72 0 -120 21t-72 65.5t-24 112.5q0 28 3 56t10 55q11 53 32 96.5t53 76t76 50t101 17.5q67 0 111.5 -19t67.5 -54t23 -86q0 -11 -1 -23.5t-4 -25.5h-104q1 9 2 17.5t1 17.5q0 27 -9.5 47t-30.5 30.5t-54 10.5q-43 0 -75 -20.5t-53 -60t-32 -96.5q-4 -20 -6 -35
t-3 -27t-1 -22q0 -41 12 -67t36 -38.5t59 -12.5q40 0 67.5 15t44 43t23.5 64h100q-10 -63 -39 -110t-77 -72.5t-117 -25.5zM192 -179q-23 0 -48.5 2t-46.5 6l9 44h91q24 0 36.5 7t12.5 25q0 9 -8 13.5t-29 4.5h-47l31 88h68l-15 -47q35 -2 60 -13.5t25 -40.5
q0 -27 -13.5 -44.5t-34.5 -27t-45 -13.5t-46 -4z" />
    <glyph glyph-name="egrave" unicode="&#xe8;" horiz-adv-x="554" 
d="M257 -12q-74 0 -124 21.5t-74.5 66t-24.5 111.5q0 27 3 55t8 53q14 70 46.5 124.5t87 86.5t137.5 32q69 0 115 -21.5t69 -64t23 -105.5q0 -23 -3.5 -52t-11.5 -58h-364q-2 -14 -3 -25.5t-1 -23.5q0 -39 12.5 -65t38.5 -38t66 -12q25 0 47 6t40 19t31.5 33.5t19.5 50.5
h102q-9 -50 -30.5 -86.5t-53 -60t-71 -35.5t-85.5 -12zM158 313h256q2 12 3 22.5t1 19.5q0 34 -11.5 56t-34.5 32.5t-55 10.5q-41 0 -72.5 -16t-52.5 -47.5t-34 -77.5zM289 591l-81 129l1 3h106l59 -132h-85z" />
    <glyph glyph-name="eacute" unicode="&#xe9;" horiz-adv-x="554" 
d="M257 -12q-74 0 -124 21.5t-74.5 66t-24.5 111.5q0 27 3 55t8 53q14 70 46.5 124.5t87 86.5t137.5 32q69 0 115 -21.5t69 -64t23 -105.5q0 -23 -3.5 -52t-11.5 -58h-364q-2 -14 -3 -25.5t-1 -23.5q0 -39 12.5 -65t38.5 -38t66 -12q25 0 47 6t40 19t31.5 33.5t19.5 50.5
h102q-9 -50 -30.5 -86.5t-53 -60t-71 -35.5t-85.5 -12zM158 313h256q2 12 3 22.5t1 19.5q0 34 -11.5 56t-34.5 32.5t-55 10.5q-41 0 -72.5 -16t-52.5 -47.5t-34 -77.5zM277 591l105 132h115v-3l-130 -129h-90z" />
    <glyph glyph-name="ecircumflex" unicode="&#xea;" horiz-adv-x="554" 
d="M257 -12q-74 0 -124 21.5t-74.5 66t-24.5 111.5q0 27 3 55t8 53q14 70 46.5 124.5t87 86.5t137.5 32q69 0 115 -21.5t69 -64t23 -105.5q0 -23 -3.5 -52t-11.5 -58h-364q-2 -14 -3 -25.5t-1 -23.5q0 -39 12.5 -65t38.5 -38t66 -12q25 0 47 6t40 19t31.5 33.5t19.5 50.5
h102q-9 -50 -30.5 -86.5t-53 -60t-71 -35.5t-85.5 -12zM158 313h256q2 12 3 22.5t1 19.5q0 34 -11.5 56t-34.5 32.5t-55 10.5q-41 0 -72.5 -16t-52.5 -47.5t-34 -77.5zM172 591l130 132h98l81 -132h-90l-67 106h50l-106 -106h-96z" />
    <glyph glyph-name="edieresis" unicode="&#xeb;" horiz-adv-x="554" 
d="M257 -12q-74 0 -124 21.5t-74.5 66t-24.5 111.5q0 27 3 55t8 53q14 70 46.5 124.5t87 86.5t137.5 32q69 0 115 -21.5t69 -64t23 -105.5q0 -23 -3.5 -52t-11.5 -58h-364q-2 -14 -3 -25.5t-1 -23.5q0 -39 12.5 -65t38.5 -38t66 -12q25 0 47 6t40 19t31.5 33.5t19.5 50.5
h102q-9 -50 -30.5 -86.5t-53 -60t-71 -35.5t-85.5 -12zM158 313h256q2 12 3 22.5t1 19.5q0 34 -11.5 56t-34.5 32.5t-55 10.5q-41 0 -72.5 -16t-52.5 -47.5t-34 -77.5zM188 621l18 101h98l-18 -101h-98zM385 621l17 101h99l-18 -101h-98z" />
    <glyph glyph-name="igrave" unicode="&#xec;" horiz-adv-x="238" 
d="M21 0l93 526h104l-93 -526h-104zM136 591l-81 129l1 3h106l59 -132h-85z" />
    <glyph glyph-name="iacute" unicode="&#xed;" horiz-adv-x="238" 
d="M21 0l93 526h104l-93 -526h-104zM123 591l106 132h114v-3l-130 -129h-90z" />
    <glyph glyph-name="icircumflex" unicode="&#xee;" horiz-adv-x="238" 
d="M21 0l93 526h104l-93 -526h-104zM18 591l130 132h98l81 -132h-90l-67 106h50l-106 -106h-96z" />
    <glyph glyph-name="idieresis" unicode="&#xef;" horiz-adv-x="238" 
d="M21 0l93 526h104l-93 -526h-104zM35 621l17 101h98l-18 -101h-97zM231 621l18 101h98l-17 -101h-99z" />
    <glyph glyph-name="eth" unicode="&#xf0;" horiz-adv-x="589" 
d="M260 -12q-74 0 -124 21.5t-75.5 65.5t-25.5 113q0 75 19.5 139.5t55.5 109.5q16 23 36 40.5t44 30t51.5 19t57.5 6.5q26 0 50 -5t45 -13l4 2q-11 24 -24.5 46.5t-31.5 44.5l-156 -12l11 63l99 7q-14 14 -28.5 27t-28.5 25l3 5h121q12 -11 25 -23t24 -26l157 11l-11 -62
l-97 -7q39 -55 66 -124t27 -147q0 -52 -8 -101.5t-26 -89.5q-20 -50 -54.5 -87.5t-85 -58t-120.5 -20.5zM263 74q47 0 80 18.5t54 52t32 78.5q4 14 7 27.5t5 26.5t3 26t1 25q0 41 -13.5 67t-40 38.5t-68.5 12.5q-46 0 -79 -18.5t-53 -51t-31 -77.5q-6 -19 -10 -37.5
t-5.5 -35.5t-1.5 -34q0 -40 13 -66.5t39.5 -39t67.5 -12.5z" />
    <glyph glyph-name="ntilde" unicode="&#xf1;" 
d="M21 0l92 526h84l-3 -75h7q23 27 52 46.5t62 30t67 10.5q42 0 75.5 -13t53.5 -42t20 -77q0 -16 -2 -33.5t-6 -37.5l-59 -335h-104l58 329q2 13 3.5 25t1.5 22q0 27 -10 42.5t-28 22t-42 6.5q-28 0 -55.5 -10.5t-50 -30.5t-39 -50t-22.5 -69l-51 -287h-104zM190 614
q6 29 19.5 53.5t36 39.5t53.5 15q26 0 48 -8.5t42.5 -17.5t43.5 -9q14 0 23.5 8.5t15.5 26.5h62q-6 -29 -20 -54t-36 -39.5t-54 -14.5q-25 0 -46.5 9t-42.5 18t-43 9q-15 0 -25 -9t-15 -27h-62z" />
    <glyph glyph-name="ograve" unicode="&#xf2;" horiz-adv-x="583" 
d="M252 -12q-72 0 -121 21.5t-74 65.5t-25 112q0 19 2 40t6 44q16 92 54 151t97 87.5t139 28.5q73 0 122 -21.5t73.5 -65.5t24.5 -113q0 -19 -1.5 -39.5t-6.5 -43.5q-16 -92 -53 -151t-95.5 -87.5t-141.5 -28.5zM258 74q49 0 84 19.5t57.5 59.5t32.5 101q5 20 6.5 34.5
t2 25.5t0.5 20q0 40 -12.5 66t-38.5 39t-66 13q-49 0 -83.5 -20t-57 -59.5t-34.5 -100.5q-3 -20 -5 -35t-3 -25.5t-1 -20.5q0 -40 12.5 -65.5t39.5 -38.5t66 -13zM308 591l-80 129l1 3h105l59 -132h-85z" />
    <glyph glyph-name="oacute" unicode="&#xf3;" horiz-adv-x="583" 
d="M252 -12q-72 0 -121 21.5t-74 65.5t-25 112q0 19 2 40t6 44q16 92 54 151t97 87.5t139 28.5q73 0 122 -21.5t73.5 -65.5t24.5 -113q0 -19 -1.5 -39.5t-6.5 -43.5q-16 -92 -53 -151t-95.5 -87.5t-141.5 -28.5zM258 74q49 0 84 19.5t57.5 59.5t32.5 101q5 20 6.5 34.5
t2 25.5t0.5 20q0 40 -12.5 66t-38.5 39t-66 13q-49 0 -83.5 -20t-57 -59.5t-34.5 -100.5q-3 -20 -5 -35t-3 -25.5t-1 -20.5q0 -40 12.5 -65.5t39.5 -38.5t66 -13zM296 591l106 132h114v-3l-130 -129h-90z" />
    <glyph glyph-name="ocircumflex" unicode="&#xf4;" horiz-adv-x="583" 
d="M252 -12q-72 0 -121 21.5t-74 65.5t-25 112q0 19 2 40t6 44q16 92 54 151t97 87.5t139 28.5q73 0 122 -21.5t73.5 -65.5t24.5 -113q0 -19 -1.5 -39.5t-6.5 -43.5q-16 -92 -53 -151t-95.5 -87.5t-141.5 -28.5zM258 74q49 0 84 19.5t57.5 59.5t32.5 101q5 20 6.5 34.5
t2 25.5t0.5 20q0 40 -12.5 66t-38.5 39t-66 13q-49 0 -83.5 -20t-57 -59.5t-34.5 -100.5q-3 -20 -5 -35t-3 -25.5t-1 -20.5q0 -40 12.5 -65.5t39.5 -38.5t66 -13zM191 591l130 132h98l81 -132h-90l-67 106h50l-106 -106h-96z" />
    <glyph glyph-name="otilde" unicode="&#xf5;" horiz-adv-x="583" 
d="M252 -12q-72 0 -121 21.5t-74 65.5t-25 112q0 19 2 40t6 44q16 92 54 151t97 87.5t139 28.5q73 0 122 -21.5t73.5 -65.5t24.5 -113q0 -19 -1.5 -39.5t-6.5 -43.5q-16 -92 -53 -151t-95.5 -87.5t-141.5 -28.5zM258 74q49 0 84 19.5t57.5 59.5t32.5 101q5 20 6.5 34.5
t2 25.5t0.5 20q0 40 -12.5 66t-38.5 39t-66 13q-49 0 -83.5 -20t-57 -59.5t-34.5 -100.5q-3 -20 -5 -35t-3 -25.5t-1 -20.5q0 -40 12.5 -65.5t39.5 -38.5t66 -13zM186 614q6 29 19.5 53.5t35.5 39.5t53 15q26 0 48.5 -8.5t43 -17.5t42.5 -9q15 0 24.5 8.5t14.5 26.5h63
q-6 -29 -20 -54t-36.5 -39.5t-53.5 -14.5q-25 0 -47 9t-42.5 18t-42.5 9q-15 0 -25 -9t-16 -27h-61z" />
    <glyph glyph-name="odieresis" unicode="&#xf6;" horiz-adv-x="583" 
d="M252 -12q-72 0 -121 21.5t-74 65.5t-25 112q0 19 2 40t6 44q16 92 54 151t97 87.5t139 28.5q73 0 122 -21.5t73.5 -65.5t24.5 -113q0 -19 -1.5 -39.5t-6.5 -43.5q-16 -92 -53 -151t-95.5 -87.5t-141.5 -28.5zM258 74q49 0 84 19.5t57.5 59.5t32.5 101q5 20 6.5 34.5
t2 25.5t0.5 20q0 40 -12.5 66t-38.5 39t-66 13q-49 0 -83.5 -20t-57 -59.5t-34.5 -100.5q-3 -20 -5 -35t-3 -25.5t-1 -20.5q0 -40 12.5 -65.5t39.5 -38.5t66 -13zM208 621l17 101h98l-18 -101h-97zM404 621l18 101h98l-18 -101h-98z" />
    <glyph glyph-name="divide" unicode="&#xf7;" horiz-adv-x="630" 
d="M70 212l15 86h473l-16 -86h-472zM219 12l18 98h102l-18 -98h-102zM287 401l18 97h103l-18 -97h-103z" />
    <glyph glyph-name="oslash" unicode="&#xf8;" horiz-adv-x="583" 
d="M252 -12q-72 0 -121 21.5t-74 65.5t-25 112q0 19 2 40t6 44q16 92 54 151t97 87.5t139 28.5q73 0 122 -21.5t73.5 -65.5t24.5 -113q0 -19 -1.5 -39.5t-6.5 -43.5q-16 -92 -53 -151t-95.5 -87.5t-141.5 -28.5zM258 74q49 0 84 19.5t57.5 59.5t32.5 101q5 20 6.5 34.5
t2 25.5t0.5 20q0 40 -12.5 66t-38.5 39t-66 13q-49 0 -83.5 -20t-57 -59.5t-34.5 -100.5q-3 -20 -5 -35t-3 -25.5t-1 -20.5q0 -40 12.5 -65.5t39.5 -38.5t66 -13zM-22 -49l554 624h74l-553 -624h-75z" />
    <glyph glyph-name="ugrave" unicode="&#xf9;" horiz-adv-x="572" 
d="M190 -12q-42 0 -76.5 13t-54.5 42t-20 77q0 16 2.5 33.5t6.5 37.5l59 335h105l-58 -330q-2 -13 -4 -24.5t-2 -21.5q0 -27 10.5 -42.5t29 -22t41.5 -6.5q28 0 55 10t49.5 30t39 49.5t22.5 67.5l51 290h105l-93 -526h-84l3 75h-7q-22 -27 -51 -46.5t-61.5 -30t-67.5 -10.5z
M299 591l-80 129l1 3h106l59 -132h-86z" />
    <glyph glyph-name="uacute" unicode="&#xfa;" horiz-adv-x="572" 
d="M190 -12q-42 0 -76.5 13t-54.5 42t-20 77q0 16 2.5 33.5t6.5 37.5l59 335h105l-58 -330q-2 -13 -4 -24.5t-2 -21.5q0 -27 10.5 -42.5t29 -22t41.5 -6.5q28 0 55 10t49.5 30t39 49.5t22.5 67.5l51 290h105l-93 -526h-84l3 75h-7q-22 -27 -51 -46.5t-61.5 -30t-67.5 -10.5z
M287 591l106 132h114v-3l-130 -129h-90z" />
    <glyph glyph-name="ucircumflex" unicode="&#xfb;" horiz-adv-x="572" 
d="M190 -12q-42 0 -76.5 13t-54.5 42t-20 77q0 16 2.5 33.5t6.5 37.5l59 335h105l-58 -330q-2 -13 -4 -24.5t-2 -21.5q0 -27 10.5 -42.5t29 -22t41.5 -6.5q28 0 55 10t49.5 30t39 49.5t22.5 67.5l51 290h105l-93 -526h-84l3 75h-7q-22 -27 -51 -46.5t-61.5 -30t-67.5 -10.5z
M182 591l130 132h98l81 -132h-90l-67 106h50l-106 -106h-96z" />
    <glyph glyph-name="udieresis" unicode="&#xfc;" horiz-adv-x="572" 
d="M190 -12q-42 0 -76.5 13t-54.5 42t-20 77q0 16 2.5 33.5t6.5 37.5l59 335h105l-58 -330q-2 -13 -4 -24.5t-2 -21.5q0 -27 10.5 -42.5t29 -22t41.5 -6.5q28 0 55 10t49.5 30t39 49.5t22.5 67.5l51 290h105l-93 -526h-84l3 75h-7q-22 -27 -51 -46.5t-61.5 -30t-67.5 -10.5z
M199 621l17 101h98l-18 -101h-97zM395 621l18 101h98l-17 -101h-99z" />
    <glyph glyph-name="yacute" unicode="&#xfd;" horiz-adv-x="516" 
d="M52 -182q-33 0 -53 4.5t-25 5.5l12 76h52q24 0 46.5 8.5t43.5 30t39 59.5l-110 524h104l52 -253q5 -22 10 -51.5t9.5 -58.5t6.5 -51h5q7 16 15.5 36t18 41t18.5 40.5t16 33.5l131 263h109l-263 -506q-22 -43 -46 -79.5t-52 -64t-62 -43t-77 -15.5zM258 591l106 132h115
v-3l-130 -129h-91z" />
    <glyph glyph-name="thorn" unicode="&#xfe;" horiz-adv-x="576" 
d="M-10 -173l158 896h104l-46 -261h7q20 25 44.5 42t54.5 25.5t63 8.5q53 0 90.5 -22t58 -65t20.5 -107q0 -20 -2 -43t-7 -48q-15 -88 -48.5 -146.5t-83.5 -88.5t-115 -30q-33 0 -60.5 8.5t-49 25t-36.5 41.5h-6l-42 -236h-104zM267 78q48 0 79.5 20.5t50.5 60t30 95.5
q4 19 5.5 33t2.5 26.5t1 23.5q0 39 -10.5 63t-33.5 36t-60 12q-44 0 -77 -22.5t-54 -62.5t-31 -94q-2 -16 -4 -30t-2.5 -25t-0.5 -21q0 -41 13 -66.5t36 -37t55 -11.5z" />
    <glyph glyph-name="ydieresis" unicode="&#xff;" horiz-adv-x="516" 
d="M52 -182q-33 0 -53 4.5t-25 5.5l12 76h52q24 0 46.5 8.5t43.5 30t39 59.5l-110 524h104l52 -253q5 -22 10 -51.5t9.5 -58.5t6.5 -51h5q7 16 15.5 36t18 41t18.5 40.5t16 33.5l131 263h109l-263 -506q-22 -43 -46 -79.5t-52 -64t-62 -43t-77 -15.5zM170 621l18 101h97
l-17 -101h-98zM367 621l17 101h99l-18 -101h-98z" />
    <glyph glyph-name="Amacron" unicode="&#x100;" horiz-adv-x="695" 
d="M-35 0l386 686h141l146 -686h-114l-33 160h-320l-88 -160h-118zM224 255h247l-40 199q-3 16 -6.5 34t-7 36.5t-6 34.5t-4.5 29h-5q-10 -20 -23.5 -46.5t-26 -50.5t-20.5 -40zM289 766l13 75h305l-13 -75h-305z" />
    <glyph glyph-name="amacron" unicode="&#x101;" 
d="M195 -12q-52 0 -90.5 21.5t-59.5 64t-21 106.5q0 20 2.5 42t6.5 47q16 94 50 153.5t83.5 87.5t111.5 28q35 0 63.5 -8.5t50.5 -25.5t35 -44h7l29 66h86l-23 -127q-7 -37 -14.5 -76.5t-14 -77t-12 -68t-8.5 -51t-3 -25.5q0 -13 8 -19.5t21 -6.5h36l-12 -71
q-10 -5 -27.5 -10.5t-41.5 -5.5q-27 0 -45 11.5t-26 33.5q-3 9 -5.5 19.5t-1.5 22.5h-7q-33 -44 -78.5 -65.5t-99.5 -21.5zM238 78q26 0 51 10.5t46 32t37 55t25 80.5q3 19 4.5 33t2.5 25t1 20q0 37 -11 62.5t-34 38.5t-59 13q-43 0 -74.5 -18t-52 -57t-32.5 -102
q-4 -21 -6 -36t-3 -27t-1 -22q0 -55 26 -81.5t80 -26.5zM182 627l12 73h302l-13 -73h-301z" />
    <glyph glyph-name="Abreve" unicode="&#x102;" horiz-adv-x="695" 
d="M-35 0l386 686h141l146 -686h-114l-33 160h-320l-88 -160h-118zM224 255h247l-40 199q-3 16 -6.5 34t-7 36.5t-6 34.5t-4.5 29h-5q-10 -20 -23.5 -46.5t-26 -50.5t-20.5 -40zM440 745q-50 0 -79 14.5t-41.5 37.5t-12.5 49q0 5 0.5 11t1.5 11h71q0 -3 0.5 -6t0.5 -6
q3 -9 10 -18.5t21 -16t39 -6.5q29 0 48 9t29 21.5t12 22.5h71q-4 -29 -23.5 -57.5t-55.5 -47t-92 -18.5z" />
    <glyph glyph-name="abreve" unicode="&#x103;" 
d="M195 -12q-52 0 -90.5 21.5t-59.5 64t-21 106.5q0 20 2.5 42t6.5 47q16 94 50 153.5t83.5 87.5t111.5 28q35 0 63.5 -8.5t50.5 -25.5t35 -44h7l29 66h86l-23 -127q-7 -37 -14.5 -76.5t-14 -77t-12 -68t-8.5 -51t-3 -25.5q0 -13 8 -19.5t21 -6.5h36l-12 -71
q-10 -5 -27.5 -10.5t-41.5 -5.5q-27 0 -45 11.5t-26 33.5q-3 9 -5.5 19.5t-1.5 22.5h-7q-33 -44 -78.5 -65.5t-99.5 -21.5zM238 78q26 0 51 10.5t46 32t37 55t25 80.5q3 19 4.5 33t2.5 25t1 20q0 37 -11 62.5t-34 38.5t-59 13q-43 0 -74.5 -18t-52 -57t-32.5 -102
q-4 -21 -6 -36t-3 -27t-1 -22q0 -55 26 -81.5t80 -26.5zM330 600q-50 0 -79.5 14.5t-42.5 37.5t-13 49q0 5 0.5 10.5t1.5 11.5h71q0 -18 9 -30t25 -17.5t37 -5.5q29 0 47.5 9t28.5 21.5t13 22.5h71q-4 -29 -23.5 -57.5t-54.5 -47t-91 -18.5z" />
    <glyph glyph-name="Aogonek" unicode="&#x104;" horiz-adv-x="695" 
d="M-35 0l386 686h141l146 -686h-114l-33 160h-320l-88 -160h-118zM224 255h247l-40 199q-3 16 -6.5 34t-7 36.5t-6 34.5t-4.5 29h-5q-10 -20 -23.5 -46.5t-26 -50.5t-20.5 -40zM552 -178q-21 0 -42 6.5t-34 22t-13 41.5q0 28 11 49.5t28 39t34 31.5h69l-1 -4
q-15 -13 -32.5 -35.5t-17.5 -49.5q0 -16 10 -27.5t33 -11.5h39l-8 -48q-18 -7 -39 -10.5t-37 -3.5z" />
    <glyph glyph-name="aogonek" unicode="&#x105;" 
d="M195 -12q-52 0 -90.5 21.5t-59.5 64t-21 106.5q0 20 2.5 42t6.5 47q16 94 50 153.5t83.5 87.5t111.5 28q35 0 63.5 -8.5t50.5 -25.5t35 -44h7l29 66h86l-23 -127q-7 -37 -14.5 -76.5t-14 -77t-12 -68t-8.5 -51t-3 -25.5q0 -13 8 -19.5t21 -6.5h36l-12 -71
q-10 -5 -27.5 -10.5t-41.5 -5.5q-27 0 -45 11.5t-26 33.5q-3 9 -5.5 19.5t-1.5 22.5h-7q-33 -44 -78.5 -65.5t-99.5 -21.5zM238 78q26 0 51 10.5t46 32t37 55t25 80.5q3 19 4.5 33t2.5 25t1 20q0 37 -11 62.5t-34 38.5t-59 13q-43 0 -74.5 -18t-52 -57t-32.5 -102
q-4 -21 -6 -36t-3 -27t-1 -22q0 -55 26 -81.5t80 -26.5zM424 -178q-21 0 -41.5 6.5t-33.5 22t-13 41.5q0 28 10.5 49.5t27.5 39t34 31.5h69l-1 -4q-15 -13 -32.5 -35.5t-17.5 -49.5q0 -16 10 -27.5t34 -11.5h38l-8 -48q-17 -7 -38.5 -10.5t-37.5 -3.5z" />
    <glyph glyph-name="Cacute" unicode="&#x106;" horiz-adv-x="725" 
d="M341 -12q-138 0 -212.5 65t-74.5 201q0 29 2.5 56t6.5 52q19 104 69.5 179.5t130 116t183.5 40.5q81 0 142 -22.5t95.5 -68.5t34.5 -116q0 -13 -1 -27t-4 -28h-115q3 10 3.5 20t0.5 19q0 43 -19.5 71.5t-55 42t-84.5 13.5q-55 0 -99 -17t-77 -48.5t-54.5 -76.5
t-31.5 -100q-4 -17 -6 -31t-3.5 -26t-2 -22.5t-0.5 -22.5q0 -60 20 -98.5t59 -57t95 -18.5q61 0 108 18.5t78 55t41 91.5h110q-14 -89 -62.5 -147t-120 -86t-156.5 -28zM412 736l107 132h117v-3l-132 -129h-92z" />
    <glyph glyph-name="cacute" unicode="&#x107;" horiz-adv-x="532" 
d="M250 -12q-72 0 -120 21t-72 65.5t-24 112.5q0 28 3 56t10 55q11 53 32 96.5t53 76t76 50t101 17.5q67 0 111.5 -19t67.5 -54t23 -86q0 -11 -1 -23.5t-4 -25.5h-104q1 9 2 17.5t1 17.5q0 27 -9.5 47t-30.5 30.5t-54 10.5q-43 0 -75 -20.5t-53 -60t-32 -96.5q-4 -20 -6 -35
t-3 -27t-1 -22q0 -41 12 -67t36 -38.5t59 -12.5q40 0 67.5 15t44 43t23.5 64h100q-10 -63 -39 -110t-77 -72.5t-117 -25.5zM280 591l106 132h115v-3l-130 -129h-91z" />
    <glyph glyph-name="Ccircumflex" unicode="&#x108;" horiz-adv-x="725" 
d="M341 -12q-138 0 -212.5 65t-74.5 201q0 29 2.5 56t6.5 52q19 104 69.5 179.5t130 116t183.5 40.5q81 0 142 -22.5t95.5 -68.5t34.5 -116q0 -13 -1 -27t-4 -28h-115q3 10 3.5 20t0.5 19q0 43 -19.5 71.5t-55 42t-84.5 13.5q-55 0 -99 -17t-77 -48.5t-54.5 -76.5
t-31.5 -100q-4 -17 -6 -31t-3.5 -26t-2 -22.5t-0.5 -22.5q0 -60 20 -98.5t59 -57t95 -18.5q61 0 108 18.5t78 55t41 91.5h110q-14 -89 -62.5 -147t-120 -86t-156.5 -28zM300 736l130 132h105l81 -132h-93l-67 107l50 -1l-106 -106h-100z" />
    <glyph glyph-name="ccircumflex" unicode="&#x109;" horiz-adv-x="532" 
d="M250 -12q-72 0 -120 21t-72 65.5t-24 112.5q0 28 3 56t10 55q11 53 32 96.5t53 76t76 50t101 17.5q67 0 111.5 -19t67.5 -54t23 -86q0 -11 -1 -23.5t-4 -25.5h-104q1 9 2 17.5t1 17.5q0 27 -9.5 47t-30.5 30.5t-54 10.5q-43 0 -75 -20.5t-53 -60t-32 -96.5q-4 -20 -6 -35
t-3 -27t-1 -22q0 -41 12 -67t36 -38.5t59 -12.5q40 0 67.5 15t44 43t23.5 64h100q-10 -63 -39 -110t-77 -72.5t-117 -25.5zM176 591l130 132h98l81 -132h-90l-67 106h50l-106 -106h-96z" />
    <glyph glyph-name="Cdotaccent" unicode="&#x10a;" horiz-adv-x="725" 
d="M341 -12q-138 0 -212.5 65t-74.5 201q0 29 2.5 56t6.5 52q19 104 69.5 179.5t130 116t183.5 40.5q81 0 142 -22.5t95.5 -68.5t34.5 -116q0 -13 -1 -27t-4 -28h-115q3 10 3.5 20t0.5 19q0 43 -19.5 71.5t-55 42t-84.5 13.5q-55 0 -99 -17t-77 -48.5t-54.5 -76.5
t-31.5 -100q-4 -17 -6 -31t-3.5 -26t-2 -22.5t-0.5 -22.5q0 -60 20 -98.5t59 -57t95 -18.5q61 0 108 18.5t78 55t41 91.5h110q-14 -89 -62.5 -147t-120 -86t-156.5 -28zM414 766l19 108h107l-20 -108h-106z" />
    <glyph glyph-name="cdotaccent" unicode="&#x10b;" horiz-adv-x="532" 
d="M250 -12q-72 0 -120 21t-72 65.5t-24 112.5q0 28 3 56t10 55q11 53 32 96.5t53 76t76 50t101 17.5q67 0 111.5 -19t67.5 -54t23 -86q0 -11 -1 -23.5t-4 -25.5h-104q1 9 2 17.5t1 17.5q0 27 -9.5 47t-30.5 30.5t-54 10.5q-43 0 -75 -20.5t-53 -60t-32 -96.5q-4 -20 -6 -35
t-3 -27t-1 -22q0 -41 12 -67t36 -38.5t59 -12.5q40 0 67.5 15t44 43t23.5 64h100q-10 -63 -39 -110t-77 -72.5t-117 -25.5zM285 615l18 105h106l-18 -105h-106z" />
    <glyph glyph-name="Ccaron" unicode="&#x10c;" horiz-adv-x="725" 
d="M341 -12q-138 0 -212.5 65t-74.5 201q0 29 2.5 56t6.5 52q19 104 69.5 179.5t130 116t183.5 40.5q81 0 142 -22.5t95.5 -68.5t34.5 -116q0 -13 -1 -27t-4 -28h-115q3 10 3.5 20t0.5 19q0 43 -19.5 71.5t-55 42t-84.5 13.5q-55 0 -99 -17t-77 -48.5t-54.5 -76.5
t-31.5 -100q-4 -17 -6 -31t-3.5 -26t-2 -22.5t-0.5 -22.5q0 -60 20 -98.5t59 -57t95 -18.5q61 0 108 18.5t78 55t41 91.5h110q-14 -89 -62.5 -147t-120 -86t-156.5 -28zM653 868l-129 -132h-105l-82 132h93l67 -107l-50 1l107 106h99z" />
    <glyph glyph-name="ccaron" unicode="&#x10d;" horiz-adv-x="532" 
d="M250 -12q-72 0 -120 21t-72 65.5t-24 112.5q0 28 3 56t10 55q11 53 32 96.5t53 76t76 50t101 17.5q67 0 111.5 -19t67.5 -54t23 -86q0 -11 -1 -23.5t-4 -25.5h-104q1 9 2 17.5t1 17.5q0 27 -9.5 47t-30.5 30.5t-54 10.5q-43 0 -75 -20.5t-53 -60t-32 -96.5q-4 -20 -6 -35
t-3 -27t-1 -22q0 -41 12 -67t36 -38.5t59 -12.5q40 0 67.5 15t44 43t23.5 64h100q-10 -63 -39 -110t-77 -72.5t-117 -25.5zM513 723l-130 -132h-98l-81 132h90l67 -106h-50l106 106h96z" />
    <glyph glyph-name="Dcaron" unicode="&#x10e;" horiz-adv-x="731" 
d="M35 0l121 686h253q141 0 218.5 -64.5t77.5 -202.5q0 -26 -2 -51t-6 -49q-18 -100 -69 -171.5t-130 -109.5t-182 -38h-281zM164 96h146q56 0 102 15.5t81 45t56.5 73t30.5 99.5q4 18 5.5 33t2.5 28t1 25q0 62 -21.5 100.5t-63.5 56.5t-102 18h-151zM653 868l-130 -132
h-105l-81 132h93l66 -107l-49 1l106 106h100z" />
    <glyph glyph-name="dcaron" unicode="&#x10f;" horiz-adv-x="579" 
d="M210 -12q-55 0 -94.5 23t-60.5 66t-21 103q0 21 1.5 44t6.5 49q12 69 35 118.5t54.5 82t69.5 48.5t82 16q37 0 66.5 -8t52 -24.5t35.5 -43.5h6l46 261h104l-128 -723h-83l2 72h-7q-32 -42 -75 -63t-92 -21zM245 78q45 0 77.5 20.5t53.5 59.5t30 96q4 19 5.5 33t2.5 25
t1 20q0 42 -12.5 67.5t-36 37t-54.5 11.5q-46 0 -77.5 -18t-52 -56t-31.5 -97q-3 -23 -5.5 -39t-3.5 -28t-1 -23q0 -56 26 -82.5t78 -26.5zM603 555l29 168h96l-56 -168h-69z" />
    <glyph glyph-name="Dcroat" unicode="&#x110;" horiz-adv-x="731" 
d="M7 304l16 88h373l-15 -88h-374zM35 0l121 686h253q141 0 218.5 -64.5t77.5 -202.5q0 -26 -2 -51t-6 -49q-18 -100 -69 -171.5t-130 -109.5t-182 -38h-281zM164 96h146q56 0 102 15.5t81 45t56.5 73t30.5 99.5q4 18 5.5 33t2.5 28t1 25q0 62 -21.5 100.5t-63.5 56.5
t-102 18h-151z" />
    <glyph glyph-name="dcroat" unicode="&#x111;" horiz-adv-x="579" 
d="M210 -12q-55 0 -94.5 23t-60.5 66t-21 103q0 21 1.5 44t6.5 49q12 69 35 118.5t54.5 82t69.5 48.5t82 16q37 0 66.5 -8t52 -24.5t35.5 -43.5h6l46 261h104l-128 -723h-83l2 72h-7q-32 -42 -75 -63t-92 -21zM245 78q45 0 77.5 20.5t53.5 59.5t30 96q4 19 5.5 33t2.5 25
t1 20q0 42 -12.5 67.5t-36 37t-54.5 11.5q-46 0 -77.5 -18t-52 -56t-31.5 -97q-3 -23 -5.5 -39t-3.5 -28t-1 -23q0 -56 26 -82.5t78 -26.5zM309 584l14 71h326l-14 -71h-326z" />
    <glyph glyph-name="Emacron" unicode="&#x112;" horiz-adv-x="674" 
d="M36 0l120 686h532l-17 -96h-419l-34 -191h376l-16 -96h-378l-36 -207h427l-17 -96h-538zM283 766l13 75h305l-13 -75h-305z" />
    <glyph glyph-name="emacron" unicode="&#x113;" horiz-adv-x="554" 
d="M257 -12q-74 0 -124 21.5t-74.5 66t-24.5 111.5q0 27 3 55t8 53q14 70 46.5 124.5t87 86.5t137.5 32q69 0 115 -21.5t69 -64t23 -105.5q0 -23 -3.5 -52t-11.5 -58h-364q-2 -14 -3 -25.5t-1 -23.5q0 -39 12.5 -65t38.5 -38t66 -12q25 0 47 6t40 19t31.5 33.5t19.5 50.5
h102q-9 -50 -30.5 -86.5t-53 -60t-71 -35.5t-85.5 -12zM158 313h256q2 12 3 22.5t1 19.5q0 34 -11.5 56t-34.5 32.5t-55 10.5q-41 0 -72.5 -16t-52.5 -47.5t-34 -77.5zM185 627l13 73h301l-12 -73h-302z" />
    <glyph glyph-name="Ebreve" unicode="&#x114;" horiz-adv-x="674" 
d="M36 0l120 686h532l-17 -96h-419l-34 -191h376l-16 -96h-378l-36 -207h427l-17 -96h-538zM434 745q-49 0 -78.5 14.5t-41.5 37.5t-12 49q0 5 0.5 11t1.5 11h70q0 -3 0.5 -6t1.5 -6q2 -9 9 -18.5t21.5 -16t38.5 -6.5q29 0 48 9t29 21.5t12 22.5h72q-5 -29 -24.5 -57.5
t-55 -47t-92.5 -18.5z" />
    <glyph glyph-name="ebreve" unicode="&#x115;" horiz-adv-x="554" 
d="M257 -12q-74 0 -124 21.5t-74.5 66t-24.5 111.5q0 27 3 55t8 53q14 70 46.5 124.5t87 86.5t137.5 32q69 0 115 -21.5t69 -64t23 -105.5q0 -23 -3.5 -52t-11.5 -58h-364q-2 -14 -3 -25.5t-1 -23.5q0 -39 12.5 -65t38.5 -38t66 -12q25 0 47 6t40 19t31.5 33.5t19.5 50.5
h102q-9 -50 -30.5 -86.5t-53 -60t-71 -35.5t-85.5 -12zM158 313h256q2 12 3 22.5t1 19.5q0 34 -11.5 56t-34.5 32.5t-55 10.5q-41 0 -72.5 -16t-52.5 -47.5t-34 -77.5zM334 600q-51 0 -80.5 14.5t-42 37.5t-12.5 49q0 5 0.5 10.5t1.5 11.5h70q0 -18 9.5 -30t25.5 -17.5
t36 -5.5q30 0 48.5 9t28.5 21.5t13 22.5h71q-5 -29 -24 -57.5t-54 -47t-91 -18.5z" />
    <glyph glyph-name="Edotaccent" unicode="&#x116;" horiz-adv-x="674" 
d="M36 0l120 686h532l-17 -96h-419l-34 -191h376l-16 -96h-378l-36 -207h427l-17 -96h-538zM382 766l20 108h106l-19 -108h-107z" />
    <glyph glyph-name="edotaccent" unicode="&#x117;" horiz-adv-x="554" 
d="M257 -12q-74 0 -124 21.5t-74.5 66t-24.5 111.5q0 27 3 55t8 53q14 70 46.5 124.5t87 86.5t137.5 32q69 0 115 -21.5t69 -64t23 -105.5q0 -23 -3.5 -52t-11.5 -58h-364q-2 -14 -3 -25.5t-1 -23.5q0 -39 12.5 -65t38.5 -38t66 -12q25 0 47 6t40 19t31.5 33.5t19.5 50.5
h102q-9 -50 -30.5 -86.5t-53 -60t-71 -35.5t-85.5 -12zM158 313h256q2 12 3 22.5t1 19.5q0 34 -11.5 56t-34.5 32.5t-55 10.5q-41 0 -72.5 -16t-52.5 -47.5t-34 -77.5zM281 615l18 105h106l-18 -105h-106z" />
    <glyph glyph-name="Eogonek" unicode="&#x118;" horiz-adv-x="674" 
d="M36 0l120 686h532l-17 -96h-419l-34 -191h376l-16 -96h-378l-36 -207h427l-17 -96h-538zM469 -178q-21 0 -42 6.5t-33.5 22t-12.5 41.5q0 28 10.5 49.5t27.5 39t34 31.5h69l-1 -4q-15 -13 -32.5 -35.5t-17.5 -49.5q0 -16 10 -27.5t33 -11.5h39l-8 -48q-18 -7 -39 -10.5
t-37 -3.5z" />
    <glyph glyph-name="eogonek" unicode="&#x119;" horiz-adv-x="554" 
d="M257 -12q-74 0 -124 21.5t-74.5 66t-24.5 111.5q0 27 3 55t8 53q14 70 46.5 124.5t87 86.5t137.5 32q69 0 115 -21.5t69 -64t23 -105.5q0 -23 -3.5 -52t-11.5 -58h-364q-2 -14 -3 -25.5t-1 -23.5q0 -39 12.5 -65t38.5 -38t66 -12q25 0 47 6t40 19t31.5 33.5t19.5 50.5
h102q-9 -50 -30.5 -86.5t-53 -60t-71 -35.5t-85.5 -12zM158 313h256q2 12 3 22.5t1 19.5q0 34 -11.5 56t-34.5 32.5t-55 10.5q-41 0 -72.5 -16t-52.5 -47.5t-34 -77.5zM312 -178q-22 0 -42.5 6.5t-33.5 22t-13 41.5q0 28 11 49.5t28 39t34 31.5h69l-1 -4q-16 -13 -33 -35.5
t-17 -49.5q0 -16 10 -27.5t33 -11.5h39l-8 -48q-18 -7 -39.5 -10.5t-36.5 -3.5z" />
    <glyph glyph-name="Ecaron" unicode="&#x11a;" horiz-adv-x="674" 
d="M36 0l120 686h532l-17 -96h-419l-34 -191h376l-16 -96h-378l-36 -207h427l-17 -96h-538zM622 868l-130 -132h-105l-81 132h93l67 -107l-50 1l106 106h100z" />
    <glyph glyph-name="ecaron" unicode="&#x11b;" horiz-adv-x="554" 
d="M257 -12q-74 0 -124 21.5t-74.5 66t-24.5 111.5q0 27 3 55t8 53q14 70 46.5 124.5t87 86.5t137.5 32q69 0 115 -21.5t69 -64t23 -105.5q0 -23 -3.5 -52t-11.5 -58h-364q-2 -14 -3 -25.5t-1 -23.5q0 -39 12.5 -65t38.5 -38t66 -12q25 0 47 6t40 19t31.5 33.5t19.5 50.5
h102q-9 -50 -30.5 -86.5t-53 -60t-71 -35.5t-85.5 -12zM158 313h256q2 12 3 22.5t1 19.5q0 34 -11.5 56t-34.5 32.5t-55 10.5q-41 0 -72.5 -16t-52.5 -47.5t-34 -77.5zM509 723l-130 -132h-98l-81 132h90l67 -106h-50l106 106h96z" />
    <glyph glyph-name="Gcircumflex" unicode="&#x11c;" horiz-adv-x="795" 
d="M344 -12q-140 0 -215 66t-75 202q0 26 2.5 52.5t6.5 52.5q19 106 72.5 181.5t136.5 115.5t191 40q63 0 116 -12.5t92 -37t60.5 -62t21.5 -87.5q0 -11 -1.5 -22.5t-3.5 -24.5h-114q1 7 1.5 14.5t0.5 13.5q0 32 -12.5 55t-35.5 38t-54 22.5t-68 7.5q-57 0 -104.5 -15
t-84 -45.5t-61 -75t-35.5 -104.5q-3 -19 -5.5 -34t-3.5 -27.5t-2 -23t-1 -21.5q0 -60 21 -98.5t61.5 -57t98.5 -18.5q71 0 124.5 21.5t86.5 61t41 91.5l2 14h-230l17 93h342l-64 -364h-79v83q-33 -32 -71 -53.5t-81.5 -31.5t-93.5 -10zM314 736l130 132h105l81 -132h-93
l-67 107l50 -1l-107 -106h-99z" />
    <glyph glyph-name="gcircumflex" unicode="&#x11d;" 
d="M195 -182q-54 0 -96.5 14t-66.5 40.5t-24 65.5q0 7 0.5 15.5t3.5 21.5h101q-1 -5 -1 -8v-6q0 -21 12 -33.5t33.5 -18t46.5 -5.5q47 0 80.5 16.5t54 49.5t29.5 82q2 10 3 19.5t2 15.5h-6q-20 -26 -45.5 -43t-55 -25t-61.5 -8q-53 0 -91.5 20.5t-59.5 62.5t-21 107
q0 17 1.5 37t5.5 43q23 134 87 195.5t158 61.5q55 0 95.5 -21t60.5 -63h7l22 72h84l-81 -466q-16 -87 -50 -140t-90 -77.5t-138 -24.5zM247 101q28 0 53.5 10t46.5 30t36 51.5t22 75.5q3 18 5 30.5t2.5 22.5t0.5 19q0 36 -11.5 60t-34.5 36t-60 12q-40 0 -72.5 -16.5
t-54 -52.5t-31.5 -96q-3 -20 -5 -34.5t-3 -24.5t-1 -19q0 -35 11.5 -58t35.5 -34.5t60 -11.5zM178 591l130 132h98l81 -132h-90l-67 106h50l-106 -106h-96z" />
    <glyph glyph-name="Gbreve" unicode="&#x11e;" horiz-adv-x="795" 
d="M344 -12q-140 0 -215 66t-75 202q0 26 2.5 52.5t6.5 52.5q19 106 72.5 181.5t136.5 115.5t191 40q63 0 116 -12.5t92 -37t60.5 -62t21.5 -87.5q0 -11 -1.5 -22.5t-3.5 -24.5h-114q1 7 1.5 14.5t0.5 13.5q0 32 -12.5 55t-35.5 38t-54 22.5t-68 7.5q-57 0 -104.5 -15
t-84 -45.5t-61 -75t-35.5 -104.5q-3 -19 -5.5 -34t-3.5 -27.5t-2 -23t-1 -21.5q0 -60 21 -98.5t61.5 -57t98.5 -18.5q71 0 124.5 21.5t86.5 61t41 91.5l2 14h-230l17 93h342l-64 -364h-79v83q-33 -32 -71 -53.5t-81.5 -31.5t-93.5 -10zM479 745q-49 0 -78 14.5t-41.5 37.5
t-12.5 49q0 5 0.5 11t1.5 11h70q0 -3 0.5 -6t1.5 -6q2 -9 9 -18.5t21.5 -16t38.5 -6.5q30 0 48.5 9t28.5 21.5t13 22.5h71q-5 -29 -24.5 -57.5t-55 -47t-92.5 -18.5z" />
    <glyph glyph-name="gbreve" unicode="&#x11f;" 
d="M195 -182q-54 0 -96.5 14t-66.5 40.5t-24 65.5q0 7 0.5 15.5t3.5 21.5h101q-1 -5 -1 -8v-6q0 -21 12 -33.5t33.5 -18t46.5 -5.5q47 0 80.5 16.5t54 49.5t29.5 82q2 10 3 19.5t2 15.5h-6q-20 -26 -45.5 -43t-55 -25t-61.5 -8q-53 0 -91.5 20.5t-59.5 62.5t-21 107
q0 17 1.5 37t5.5 43q23 134 87 195.5t158 61.5q55 0 95.5 -21t60.5 -63h7l22 72h84l-81 -466q-16 -87 -50 -140t-90 -77.5t-138 -24.5zM247 101q28 0 53.5 10t46.5 30t36 51.5t22 75.5q3 18 5 30.5t2.5 22.5t0.5 19q0 36 -11.5 60t-34.5 36t-60 12q-40 0 -72.5 -16.5
t-54 -52.5t-31.5 -96q-3 -20 -5 -34.5t-3 -24.5t-1 -19q0 -35 11.5 -58t35.5 -34.5t60 -11.5zM340 600q-50 0 -80 14.5t-42.5 37.5t-12.5 49q0 5 0.5 10.5t1.5 11.5h71q0 -18 9 -30t25 -17.5t37 -5.5q29 0 47.5 9t28.5 21.5t13 22.5h71q-5 -29 -24 -57.5t-54 -47t-91 -18.5z
" />
    <glyph glyph-name="Gdotaccent" unicode="&#x120;" horiz-adv-x="795" 
d="M344 -12q-140 0 -215 66t-75 202q0 26 2.5 52.5t6.5 52.5q19 106 72.5 181.5t136.5 115.5t191 40q63 0 116 -12.5t92 -37t60.5 -62t21.5 -87.5q0 -11 -1.5 -22.5t-3.5 -24.5h-114q1 7 1.5 14.5t0.5 13.5q0 32 -12.5 55t-35.5 38t-54 22.5t-68 7.5q-57 0 -104.5 -15
t-84 -45.5t-61 -75t-35.5 -104.5q-3 -19 -5.5 -34t-3.5 -27.5t-2 -23t-1 -21.5q0 -60 21 -98.5t61.5 -57t98.5 -18.5q71 0 124.5 21.5t86.5 61t41 91.5l2 14h-230l17 93h342l-64 -364h-79v83q-33 -32 -71 -53.5t-81.5 -31.5t-93.5 -10zM427 766l20 108h107l-20 -108h-107z
" />
    <glyph glyph-name="gdotaccent" unicode="&#x121;" 
d="M195 -182q-54 0 -96.5 14t-66.5 40.5t-24 65.5q0 7 0.5 15.5t3.5 21.5h101q-1 -5 -1 -8v-6q0 -21 12 -33.5t33.5 -18t46.5 -5.5q47 0 80.5 16.5t54 49.5t29.5 82q2 10 3 19.5t2 15.5h-6q-20 -26 -45.5 -43t-55 -25t-61.5 -8q-53 0 -91.5 20.5t-59.5 62.5t-21 107
q0 17 1.5 37t5.5 43q23 134 87 195.5t158 61.5q55 0 95.5 -21t60.5 -63h7l22 72h84l-81 -466q-16 -87 -50 -140t-90 -77.5t-138 -24.5zM247 101q28 0 53.5 10t46.5 30t36 51.5t22 75.5q3 18 5 30.5t2.5 22.5t0.5 19q0 36 -11.5 60t-34.5 36t-60 12q-40 0 -72.5 -16.5
t-54 -52.5t-31.5 -96q-3 -20 -5 -34.5t-3 -24.5t-1 -19q0 -35 11.5 -58t35.5 -34.5t60 -11.5zM288 615l17 105h106l-18 -105h-105z" />
    <glyph glyph-name="uni0122" unicode="&#x122;" horiz-adv-x="795" 
d="M344 -12q-140 0 -215 66t-75 202q0 26 2.5 52.5t6.5 52.5q19 106 72.5 181.5t136.5 115.5t191 40q63 0 116 -12.5t92 -37t60.5 -62t21.5 -87.5q0 -11 -1.5 -22.5t-3.5 -24.5h-114q1 7 1.5 14.5t0.5 13.5q0 32 -12.5 55t-35.5 38t-54 22.5t-68 7.5q-57 0 -104.5 -15
t-84 -45.5t-61 -75t-35.5 -104.5q-3 -19 -5.5 -34t-3.5 -27.5t-2 -23t-1 -21.5q0 -60 21 -98.5t61.5 -57t98.5 -18.5q71 0 124.5 21.5t86.5 61t41 91.5l2 14h-230l17 93h342l-64 -364h-79v83q-33 -32 -71 -53.5t-81.5 -31.5t-93.5 -10zM232 -300l8 45q30 0 47.5 19t22.5 46
h-49l19 108h107l-16 -86q-8 -47 -29 -76.5t-49.5 -42.5t-60.5 -13z" />
    <glyph glyph-name="uni0123" unicode="&#x123;" 
d="M195 -182q-54 0 -96.5 14t-66.5 40.5t-24 65.5q0 7 0.5 15.5t3.5 21.5h101q-1 -5 -1 -8v-6q0 -21 12 -33.5t33.5 -18t46.5 -5.5q47 0 80.5 16.5t54 49.5t29.5 82q2 10 3 19.5t2 15.5h-6q-20 -26 -45.5 -43t-55 -25t-61.5 -8q-53 0 -91.5 20.5t-59.5 62.5t-21 107
q0 17 1.5 37t5.5 43q23 134 87 195.5t158 61.5q55 0 95.5 -21t60.5 -63h7l22 72h84l-81 -466q-16 -87 -50 -140t-90 -77.5t-138 -24.5zM247 101q28 0 53.5 10t46.5 30t36 51.5t22 75.5q3 18 5 30.5t2.5 22.5t0.5 19q0 36 -11.5 60t-34.5 36t-60 12q-40 0 -72.5 -16.5
t-54 -52.5t-31.5 -96q-3 -20 -5 -34.5t-3 -24.5t-1 -19q0 -35 11.5 -58t35.5 -34.5t60 -11.5zM442 841l-8 -45q-29 0 -47 -19t-22 -46h49l-20 -108h-106l15 86q9 47 29.5 76.5t49 42.5t60.5 13z" />
    <glyph glyph-name="Hcircumflex" unicode="&#x124;" horiz-adv-x="734" 
d="M36 0l120 686h112l-51 -287h349l51 287h111l-120 -686h-112l53 303h-349l-53 -303h-111zM290 736l130 132h105l81 -132h-93l-67 107l50 -1l-106 -106h-100z" />
    <glyph glyph-name="hcircumflex" unicode="&#x125;" 
d="M21 0l127 723h104l-46 -260h7q21 23 48 40t57.5 26t63.5 9q42 0 75.5 -13t53.5 -42t20 -77q0 -16 -2 -33.5t-6 -37.5l-59 -335h-104l58 329q2 13 3.5 25t1.5 22q0 27 -10 42.5t-28 22t-42 6.5q-28 0 -55.5 -10.5t-50 -30.5t-39 -50t-22.5 -69l-51 -287h-104zM42 736
l129 132h105l82 -132h-93l-67 107l50 -1l-107 -106h-99z" />
    <glyph glyph-name="Hbar" unicode="&#x126;" horiz-adv-x="734" 
d="M36 0l120 686h112l-51 -287h349l51 287h111l-120 -686h-112l53 303h-349l-53 -303h-111zM60 527l15 86h709l-16 -86h-708z" />
    <glyph glyph-name="hbar" unicode="&#x127;" 
d="M21 0l127 723h104l-46 -260h7q21 23 48 40t57.5 26t63.5 9q42 0 75.5 -13t53.5 -42t20 -77q0 -16 -2 -33.5t-6 -37.5l-59 -335h-104l58 329q2 13 3.5 25t1.5 22q0 27 -10 42.5t-28 22t-42 6.5q-28 0 -55.5 -10.5t-50 -30.5t-39 -50t-22.5 -69l-51 -287h-104zM56 584
l14 71h326l-15 -71h-325z" />
    <glyph glyph-name="Itilde" unicode="&#x128;" horiz-adv-x="274" 
d="M35 0l121 686h112l-121 -686h-112zM63 759q6 29 19.5 53t36 39t53.5 15q26 0 47.5 -8t42.5 -17t44 -9q14 0 23.5 8t15.5 26h62q-5 -29 -19.5 -53.5t-36.5 -39t-54 -14.5q-25 0 -46.5 9t-42 17.5t-44.5 8.5q-14 0 -24 -8.5t-15 -26.5h-62z" />
    <glyph glyph-name="itilde" unicode="&#x129;" horiz-adv-x="238" 
d="M21 0l93 526h104l-93 -526h-104zM13 614q6 29 19.5 53.5t36 39.5t53.5 15q26 0 48 -8.5t42.5 -17.5t43.5 -9q14 0 23.5 8.5t15.5 26.5h62q-5 -29 -19.5 -54t-36.5 -39.5t-54 -14.5q-25 0 -46.5 9t-42.5 18t-43 9q-14 0 -24.5 -9t-15.5 -27h-62z" />
    <glyph glyph-name="Imacron" unicode="&#x12a;" horiz-adv-x="274" 
d="M35 0l121 686h112l-121 -686h-112zM74 766l13 75h305l-13 -75h-305z" />
    <glyph glyph-name="imacron" unicode="&#x12b;" horiz-adv-x="238" 
d="M21 0l93 526h104l-93 -526h-104zM32 627l12 73h302l-13 -73h-301z" />
    <glyph glyph-name="Ibreve" unicode="&#x12c;" horiz-adv-x="274" 
d="M35 0l121 686h112l-121 -686h-112zM225 745q-49 0 -78.5 14.5t-41.5 37.5t-12 49q0 5 0.5 11t1.5 11h70q0 -3 0.5 -6t1.5 -6q2 -9 9 -18.5t21.5 -16t38.5 -6.5q30 0 48.5 9t28.5 21.5t12 22.5h72q-5 -29 -24.5 -57.5t-55 -47t-92.5 -18.5z" />
    <glyph glyph-name="ibreve" unicode="&#x12d;" horiz-adv-x="238" 
d="M21 0l93 526h104l-93 -526h-104zM180 600q-50 0 -79.5 14.5t-42.5 37.5t-13 49q0 5 0.5 10.5t1.5 11.5h71q0 -18 9 -30t25.5 -17.5t36.5 -5.5q29 0 47.5 9t28.5 21.5t13 22.5h71q-4 -29 -23 -57.5t-54.5 -47t-91.5 -18.5z" />
    <glyph glyph-name="Iogonek" unicode="&#x12e;" horiz-adv-x="274" 
d="M35 0l121 686h112l-121 -686h-112zM54 -178q-21 0 -41.5 6.5t-33.5 22t-13 41.5q0 28 10.5 49.5t27.5 39t34 31.5h69l-1 -4q-15 -13 -32.5 -35.5t-17.5 -49.5q0 -16 10 -27.5t34 -11.5h38l-8 -48q-17 -7 -38.5 -10.5t-37.5 -3.5z" />
    <glyph glyph-name="iogonek" unicode="&#x12f;" horiz-adv-x="238" 
d="M21 0l93 526h104l-93 -526h-104zM128 615l17 105h107l-19 -105h-105zM40 -178q-22 0 -42.5 6.5t-33.5 22t-13 41.5q0 28 11 49.5t28 39t34 31.5h69l-1 -4q-16 -13 -33 -35.5t-17 -49.5q0 -16 10 -27.5t33 -11.5h39l-8 -48q-18 -7 -39 -10.5t-37 -3.5z" />
    <glyph glyph-name="Idotaccent" unicode="&#x130;" horiz-adv-x="274" 
d="M35 0l121 686h112l-121 -686h-112zM173 766l20 108h107l-20 -108h-107z" />
    <glyph glyph-name="dotlessi" unicode="&#x131;" horiz-adv-x="238" 
d="M21 0l93 526h104l-93 -526h-104z" />
    <glyph glyph-name="IJ" unicode="&#x132;" horiz-adv-x="846" 
d="M35 0l121 686h112l-121 -686h-112zM505 -12q-102 0 -156.5 40.5t-54.5 120.5q0 10 1.5 26t8.5 46h111q-7 -28 -8 -41t-1 -19q0 -38 25.5 -58t74.5 -20q58 0 95.5 38t49.5 109l80 456h112l-79 -454q-15 -83 -49.5 -137t-87.5 -80.5t-122 -26.5z" />
    <glyph glyph-name="ij" unicode="&#x133;" horiz-adv-x="474" 
d="M128 617l19 106h104l-19 -106h-104zM21 0l93 526h104l-93 -526h-104zM365 617l19 106h104l-19 -106h-104zM218 -182q-14 0 -29.5 2t-29 5t-22.5 6l12 73h47q23 0 36 11.5t17 33.5l103 577h104l-103 -582q-6 -32 -20 -60.5t-42 -47t-73 -18.5z" />
    <glyph glyph-name="Jcircumflex" unicode="&#x134;" horiz-adv-x="571" 
d="M231 -12q-102 0 -156.5 40.5t-54.5 120.5q0 10 1.5 26t8.5 46h111q-7 -28 -8 -41t-1 -19q0 -38 25 -58t75 -20q58 0 95.5 38t49.5 109l80 456h112l-79 -454q-15 -83 -50 -137t-87.5 -80.5t-121.5 -26.5zM359 736l130 132h105l81 -132h-93l-67 107l50 -1l-107 -106h-99z
" />
    <glyph glyph-name="jcircumflex" unicode="&#x135;" horiz-adv-x="236" 
d="M-20 -182q-14 0 -29.5 2t-29 5t-22.5 6l12 73h47q23 0 36 11.5t17 33.5l102 577h104l-102 -582q-6 -32 -20.5 -60.5t-42 -47t-72.5 -18.5zM19 591l130 132h98l81 -132h-90l-67 106h50l-106 -106h-96z" />
    <glyph glyph-name="uni0136" unicode="&#x136;" horiz-adv-x="677" 
d="M36 0l120 686h112l-59 -334l376 334h147l-312 -276l199 -410h-125l-159 334l-151 -124l-37 -210h-111zM199 -300l8 45q30 0 48 19t22 46h-49l20 108h106l-15 -86q-8 -47 -29 -76.5t-49.5 -42.5t-61.5 -13z" />
    <glyph glyph-name="uni0137" unicode="&#x137;" horiz-adv-x="528" 
d="M21 0l127 723h104l-77 -437l249 240h124l-214 -206l131 -320h-113l-95 253l-104 -92l-28 -161h-104zM106 -300l8 45q29 0 47 19t22 46h-49l20 108h106l-15 -86q-8 -47 -29 -76.5t-49.5 -42.5t-60.5 -13z" />
    <glyph glyph-name="kgreenlandic" unicode="&#x138;" horiz-adv-x="528" 
d="M21 0l92 526h104l-42 -240l249 240h124l-214 -206l131 -320h-113l-95 253l-104 -92l-28 -161h-104z" />
    <glyph glyph-name="Lacute" unicode="&#x139;" horiz-adv-x="552" 
d="M36 0l120 686h111l-103 -589h343l-17 -97h-454zM168 736l108 132h117v-3l-132 -129h-93z" />
    <glyph glyph-name="lacute" unicode="&#x13a;" horiz-adv-x="238" 
d="M21 0l127 723h104l-127 -723h-104zM159 778l108 132h117v-3l-132 -129h-93z" />
    <glyph glyph-name="uni013B" unicode="&#x13b;" horiz-adv-x="552" 
d="M36 0l120 686h111l-103 -589h343l-17 -97h-454zM143 -300l8 45q30 0 47.5 19t22.5 46h-49l19 108h107l-16 -86q-8 -47 -29 -76.5t-49.5 -42.5t-60.5 -13z" />
    <glyph glyph-name="uni013C" unicode="&#x13c;" horiz-adv-x="238" 
d="M21 0l127 723h104l-127 -723h-104zM-42 -300l8 45q30 0 47.5 19t22.5 46h-49l20 108h106l-15 -86q-9 -47 -29.5 -76.5t-49 -42.5t-61.5 -13z" />
    <glyph glyph-name="Lcaron" unicode="&#x13d;" horiz-adv-x="552" 
d="M36 0l120 686h111l-103 -589h343l-17 -97h-454zM410 555l29 168h96l-56 -168h-69z" />
    <glyph glyph-name="lcaron" unicode="&#x13e;" horiz-adv-x="238" 
d="M21 0l127 723h104l-127 -723h-104zM263 555l29 168h96l-57 -168h-68z" />
    <glyph glyph-name="Ldot" unicode="&#x13f;" horiz-adv-x="557" 
d="M36 0l120 686h111l-103 -589h343l-17 -97h-454zM368 325l18 104h111l-19 -104h-110z" />
    <glyph glyph-name="ldot" unicode="&#x140;" horiz-adv-x="238" 
d="M21 0l127 723h104l-127 -723h-104zM217 325l18 104h105l-19 -104h-104z" />
    <glyph glyph-name="Lslash" unicode="&#x141;" horiz-adv-x="552" 
d="M36 0l120 686h111l-103 -589h343l-17 -97h-454zM-3 194l16 86l381 226l-15 -87z" />
    <glyph glyph-name="lslash" unicode="&#x142;" horiz-adv-x="238" 
d="M21 0l127 723h104l-127 -723h-104zM-8 228l16 86l273 185l-16 -85z" />
    <glyph glyph-name="Nacute" unicode="&#x143;" horiz-adv-x="734" 
d="M36 0l120 686h108l228 -426q5 -9 12 -23l14 -28t12 -26l6 1q2 17 5 37.5t5 35.5l75 429h107l-120 -686h-104l-222 416q-9 16 -23 44t-24 47h-5q-2 -17 -6 -42t-7 -42l-74 -423h-107zM405 736l107 132h117v-3l-132 -129h-92z" />
    <glyph glyph-name="nacute" unicode="&#x144;" 
d="M21 0l92 526h84l-3 -75h7q23 27 52 46.5t62 30t67 10.5q42 0 75.5 -13t53.5 -42t20 -77q0 -16 -2 -33.5t-6 -37.5l-59 -335h-104l58 329q2 13 3.5 25t1.5 22q0 27 -10 42.5t-28 22t-42 6.5q-28 0 -55.5 -10.5t-50 -30.5t-39 -50t-22.5 -69l-51 -287h-104zM300 591
l106 132h114v-3l-130 -129h-90z" />
    <glyph glyph-name="uni0145" unicode="&#x145;" horiz-adv-x="734" 
d="M36 0l120 686h108l228 -426q5 -9 12 -23l14 -28t12 -26l6 1q2 17 5 37.5t5 35.5l75 429h107l-120 -686h-104l-222 416q-9 16 -23 44t-24 47h-5q-2 -17 -6 -42t-7 -42l-74 -423h-107zM218 -300l8 45q29 0 47 19t22 46h-49l20 108h107l-16 -86q-8 -47 -29 -76.5
t-49.5 -42.5t-60.5 -13z" />
    <glyph glyph-name="uni0146" unicode="&#x146;" 
d="M21 0l92 526h84l-3 -75h7q23 27 52 46.5t62 30t67 10.5q42 0 75.5 -13t53.5 -42t20 -77q0 -16 -2 -33.5t-6 -37.5l-59 -335h-104l58 329q2 13 3.5 25t1.5 22q0 27 -10 42.5t-28 22t-42 6.5q-28 0 -55.5 -10.5t-50 -30.5t-39 -50t-22.5 -69l-51 -287h-104zM135 -300l8 45
q30 0 47.5 19t22.5 46h-49l19 108h107l-15 -86q-9 -47 -29.5 -76.5t-49 -42.5t-61.5 -13z" />
    <glyph glyph-name="Ncaron" unicode="&#x147;" horiz-adv-x="734" 
d="M36 0l120 686h108l228 -426q5 -9 12 -23l14 -28t12 -26l6 1q2 17 5 37.5t5 35.5l75 429h107l-120 -686h-104l-222 416q-9 16 -23 44t-24 47h-5q-2 -17 -6 -42t-7 -42l-74 -423h-107zM646 868l-130 -132h-104l-82 132h93l67 -107l-50 1l107 106h99z" />
    <glyph glyph-name="ncaron" unicode="&#x148;" 
d="M21 0l92 526h84l-3 -75h7q23 27 52 46.5t62 30t67 10.5q42 0 75.5 -13t53.5 -42t20 -77q0 -16 -2 -33.5t-6 -37.5l-59 -335h-104l58 329q2 13 3.5 25t1.5 22q0 27 -10 42.5t-28 22t-42 6.5q-28 0 -55.5 -10.5t-50 -30.5t-39 -50t-22.5 -69l-51 -287h-104zM532 723
l-129 -132h-98l-82 132h91l66 -106h-49l105 106h96z" />
    <glyph glyph-name="napostrophe" unicode="&#x149;" 
d="M21 0l92 526h84l-3 -75h7q23 27 52 46.5t62 30t67 10.5q42 0 75.5 -13t53.5 -42t20 -77q0 -16 -2 -33.5t-6 -37.5l-59 -335h-104l58 329q2 13 3.5 25t1.5 22q0 27 -10 42.5t-28 22t-42 6.5q-28 0 -55.5 -10.5t-50 -30.5t-39 -50t-22.5 -69l-51 -287h-104zM40 552l8 45
q30 0 47.5 19t22.5 46h-50l19 108h107l-15 -86q-8 -47 -29 -76.5t-49 -42.5t-61 -13z" />
    <glyph glyph-name="Eng" unicode="&#x14a;" horiz-adv-x="734" 
d="M462 -182q-13 0 -29 2t-29.5 5t-22.5 6l12 73h44q23 0 36 11.5t17 33.5l10 58l-218 409q-9 16 -23 44t-24 47h-5q-2 -17 -6 -42t-7 -42l-74 -423h-107l120 686h108l227 -426q5 -9 12 -23l14 -28t12 -26l6 1q2 17 5 37.5t5 35.5l75 429h108l-131 -742q-4 -24 -13 -46.5
t-24.5 -40.5t-39.5 -28.5t-58 -10.5z" />
    <glyph glyph-name="eng" unicode="&#x14b;" horiz-adv-x="572" 
d="M319 -182q-14 0 -29.5 2t-29 5t-22.5 6l12 73h47q23 0 36 11.5t17 33.5l67 380q2 13 4 25t2 22q0 27 -10 42.5t-28.5 22t-42.5 6.5q-28 0 -55 -10t-49.5 -30t-38.5 -49.5t-23 -67.5l-51 -290h-104l93 526h83l-3 -75h7q23 27 51.5 46.5t61.5 30t67 10.5q43 0 76.5 -13
t53 -42t19.5 -77q0 -16 -2 -33.5t-5 -37.5l-70 -391q-4 -24 -13 -46.5t-24.5 -40.5t-39 -28.5t-57.5 -10.5z" />
    <glyph glyph-name="Omacron" unicode="&#x14c;" horiz-adv-x="785" 
d="M357 -12q-96 0 -163.5 30t-103.5 90t-36 148q0 25 2 48.5t6 46.5q18 107 69.5 185t133.5 120t192 42q96 0 163.5 -30t104 -90t36.5 -148q0 -23 -2 -46t-6 -46q-17 -107 -69 -186t-134.5 -121.5t-192.5 -42.5zM357 84q60 0 107 17t82 50t57 80t33 106q2 15 4 27.5t3 22.5
t1.5 19.5t0.5 18.5q0 59 -22 98.5t-64.5 59.5t-102.5 20q-59 0 -106.5 -17.5t-82.5 -50t-57 -79.5t-33 -106q-2 -15 -3.5 -27.5t-2.5 -23t-1.5 -19.5t-0.5 -18q0 -59 22 -98.5t64 -59.5t102 -20zM329 766l13 75h305l-13 -75h-305z" />
    <glyph glyph-name="omacron" unicode="&#x14d;" horiz-adv-x="583" 
d="M252 -12q-72 0 -121 21.5t-74 65.5t-25 112q0 19 2 40t6 44q16 92 54 151t97 87.5t139 28.5q73 0 122 -21.5t73.5 -65.5t24.5 -113q0 -19 -1.5 -39.5t-6.5 -43.5q-16 -92 -53 -151t-95.5 -87.5t-141.5 -28.5zM258 74q49 0 84 19.5t57.5 59.5t32.5 101q5 20 6.5 34.5
t2 25.5t0.5 20q0 40 -12.5 66t-38.5 39t-66 13q-49 0 -83.5 -20t-57 -59.5t-34.5 -100.5q-3 -20 -5 -35t-3 -25.5t-1 -20.5q0 -40 12.5 -65.5t39.5 -38.5t66 -13zM205 627l12 73h301l-12 -73h-301z" />
    <glyph glyph-name="Obreve" unicode="&#x14e;" horiz-adv-x="785" 
d="M357 -12q-96 0 -163.5 30t-103.5 90t-36 148q0 25 2 48.5t6 46.5q18 107 69.5 185t133.5 120t192 42q96 0 163.5 -30t104 -90t36.5 -148q0 -23 -2 -46t-6 -46q-17 -107 -69 -186t-134.5 -121.5t-192.5 -42.5zM357 84q60 0 107 17t82 50t57 80t33 106q2 15 4 27.5t3 22.5
t1.5 19.5t0.5 18.5q0 59 -22 98.5t-64.5 59.5t-102.5 20q-59 0 -106.5 -17.5t-82.5 -50t-57 -79.5t-33 -106q-2 -15 -3.5 -27.5t-2.5 -23t-1.5 -19.5t-0.5 -18q0 -59 22 -98.5t64 -59.5t102 -20zM480 745q-49 0 -78.5 14.5t-41.5 37.5t-12 49q0 5 0.5 11t1.5 11h70
q0 -3 0.5 -6t1.5 -6q2 -9 9 -18.5t21.5 -16t38.5 -6.5q29 0 48 9t29 21.5t12 22.5h72q-5 -29 -24.5 -57.5t-55 -47t-92.5 -18.5z" />
    <glyph glyph-name="obreve" unicode="&#x14f;" horiz-adv-x="583" 
d="M252 -12q-72 0 -121 21.5t-74 65.5t-25 112q0 19 2 40t6 44q16 92 54 151t97 87.5t139 28.5q73 0 122 -21.5t73.5 -65.5t24.5 -113q0 -19 -1.5 -39.5t-6.5 -43.5q-16 -92 -53 -151t-95.5 -87.5t-141.5 -28.5zM258 74q49 0 84 19.5t57.5 59.5t32.5 101q5 20 6.5 34.5
t2 25.5t0.5 20q0 40 -12.5 66t-38.5 39t-66 13q-49 0 -83.5 -20t-57 -59.5t-34.5 -100.5q-3 -20 -5 -35t-3 -25.5t-1 -20.5q0 -40 12.5 -65.5t39.5 -38.5t66 -13zM353 600q-50 0 -80 14.5t-42.5 37.5t-12.5 49q0 5 0.5 10.5t1.5 11.5h71q0 -18 9 -30t25 -17.5t36 -5.5
q30 0 48.5 9t28.5 21.5t13 22.5h71q-5 -29 -24 -57.5t-54 -47t-91 -18.5z" />
    <glyph glyph-name="Ohungarumlaut" unicode="&#x150;" horiz-adv-x="785" 
d="M357 -12q-96 0 -163.5 30t-103.5 90t-36 148q0 25 2 48.5t6 46.5q18 107 69.5 185t133.5 120t192 42q96 0 163.5 -30t104 -90t36.5 -148q0 -23 -2 -46t-6 -46q-17 -107 -69 -186t-134.5 -121.5t-192.5 -42.5zM357 84q60 0 107 17t82 50t57 80t33 106q2 15 4 27.5t3 22.5
t1.5 19.5t0.5 18.5q0 59 -22 98.5t-64.5 59.5t-102.5 20q-59 0 -106.5 -17.5t-82.5 -50t-57 -79.5t-33 -106q-2 -15 -3.5 -27.5t-2.5 -23t-1.5 -19.5t-0.5 -18q0 -59 22 -98.5t64 -59.5t102 -20zM490 736l92 132h115v-3l-116 -129h-91zM323 736l92 132h115v-3l-117 -129h-90
z" />
    <glyph glyph-name="ohungarumlaut" unicode="&#x151;" horiz-adv-x="583" 
d="M252 -12q-72 0 -121 21.5t-74 65.5t-25 112q0 19 2 40t6 44q16 92 54 151t97 87.5t139 28.5q73 0 122 -21.5t73.5 -65.5t24.5 -113q0 -19 -1.5 -39.5t-6.5 -43.5q-16 -92 -53 -151t-95.5 -87.5t-141.5 -28.5zM258 74q49 0 84 19.5t57.5 59.5t32.5 101q5 20 6.5 34.5
t2 25.5t0.5 20q0 40 -12.5 66t-38.5 39t-66 13q-49 0 -83.5 -20t-57 -59.5t-34.5 -100.5q-3 -20 -5 -35t-3 -25.5t-1 -20.5q0 -40 12.5 -65.5t39.5 -38.5t66 -13zM220 591l91 132h117v-3l-117 -129h-91zM390 591l92 132h117v-3l-117 -129h-92z" />
    <glyph glyph-name="OE" unicode="&#x152;" horiz-adv-x="1215" 
d="M357 -12q-96 0 -163.5 30t-103.5 90t-36 148q0 25 2 48.5t6 46.5q18 107 69.5 185t133.5 120t192 42q77 0 135 -22t93 -64l14 74h530l-17 -96h-419l-33 -191h374l-16 -96h-375l-36 -207h425l-17 -96h-537l12 66q-45 -37 -103 -57.5t-130 -20.5zM357 84q60 0 107 17t82 50
t57 80t33 106q2 15 4 27.5t3 22.5t1.5 19.5t0.5 18.5q0 59 -22 98.5t-64.5 59.5t-102.5 20q-79 0 -136.5 -30.5t-93 -87t-49.5 -135.5q-2 -15 -3.5 -27.5t-2.5 -23t-1.5 -19.5t-0.5 -18q0 -59 22 -98.5t64 -59.5t102 -20z" />
    <glyph glyph-name="oe" unicode="&#x153;" horiz-adv-x="942" 
d="M247 -12q-70 0 -117.5 21.5t-72 65.5t-24.5 111q0 21 2 43t6 44q15 88 52.5 147t96.5 88.5t139 29.5q66 0 110.5 -21t67.5 -63q34 38 83.5 61t117.5 23t112.5 -21.5t67.5 -64t23 -105.5q0 -23 -3.5 -52t-11.5 -58h-359q-2 -14 -3 -26t-1 -23q0 -40 12 -65.5t37.5 -37.5
t64.5 -12q25 0 47 6t39.5 19t30.5 33.5t19 50.5h102q-9 -49 -30.5 -85.5t-53 -60.5t-70.5 -36t-84 -12q-71 0 -119 21t-74 65q-36 -42 -87.5 -64t-119.5 -22zM256 74q51 0 85 21t55.5 61.5t31.5 98.5q3 13 4.5 23.5t2 20.5t1 18t0.5 17q0 41 -12.5 67t-38.5 38.5t-65 12.5
q-50 0 -84 -21.5t-55 -62t-32 -97.5q-3 -13 -4.5 -24t-2.5 -21t-1.5 -18.5t-0.5 -16.5q0 -40 13 -66t39 -38.5t64 -12.5zM551 313h251q3 12 3.5 22.5t0.5 19.5q0 34 -11.5 56t-33.5 32.5t-54 10.5q-40 0 -71 -16t-51.5 -47.5t-33.5 -77.5z" />
    <glyph glyph-name="Racute" unicode="&#x154;" horiz-adv-x="722" 
d="M35 0l121 686h344q69 0 114 -20.5t67 -57t22 -87.5q0 -62 -19.5 -109t-55 -79t-84.5 -50l94 -283h-118l-85 264h-241l-47 -264h-112zM211 359h235q40 0 72 18t51 51t19 79q0 40 -24 61.5t-73 21.5h-239zM408 736l108 132h117v-3l-133 -129h-92z" />
    <glyph glyph-name="racute" unicode="&#x155;" horiz-adv-x="346" 
d="M21 0l93 526h82l-3 -84h6q13 24 31 45.5t43 36t59 14.5q17 0 30.5 -3t19.5 -5l-16 -98h-36q-32 0 -58.5 -10t-46 -30t-32.5 -48.5t-19 -65.5l-49 -278h-104zM205 591l106 132h115v-3l-131 -129h-90z" />
    <glyph glyph-name="uni0156" unicode="&#x156;" horiz-adv-x="722" 
d="M35 0l121 686h344q69 0 114 -20.5t67 -57t22 -87.5q0 -62 -19.5 -109t-55 -79t-84.5 -50l94 -283h-118l-85 264h-241l-47 -264h-112zM211 359h235q40 0 72 18t51 51t19 79q0 40 -24 61.5t-73 21.5h-239zM208 -300l9 45q29 0 47 19t22 46h-49l20 108h106l-15 -86
q-8 -47 -29 -76.5t-49.5 -42.5t-61.5 -13z" />
    <glyph glyph-name="uni0157" unicode="&#x157;" horiz-adv-x="346" 
d="M21 0l93 526h82l-3 -84h6q13 24 31 45.5t43 36t59 14.5q17 0 30.5 -3t19.5 -5l-16 -98h-36q-32 0 -58.5 -10t-46 -30t-32.5 -48.5t-19 -65.5l-49 -278h-104zM-40 -300l8 45q30 0 47.5 19t22.5 46h-49l19 108h107l-16 -86q-8 -47 -29 -76.5t-49 -42.5t-61 -13z" />
    <glyph glyph-name="Rcaron" unicode="&#x158;" horiz-adv-x="722" 
d="M35 0l121 686h344q69 0 114 -20.5t67 -57t22 -87.5q0 -62 -19.5 -109t-55 -79t-84.5 -50l94 -283h-118l-85 264h-241l-47 -264h-112zM211 359h235q40 0 72 18t51 51t19 79q0 40 -24 61.5t-73 21.5h-239zM649 868l-129 -132h-105l-82 132h94l66 -107l-49 1l106 106h99z
" />
    <glyph glyph-name="rcaron" unicode="&#x159;" horiz-adv-x="346" 
d="M21 0l93 526h82l-3 -84h6q13 24 31 45.5t43 36t59 14.5q17 0 30.5 -3t19.5 -5l-16 -98h-36q-32 0 -58.5 -10t-46 -30t-32.5 -48.5t-19 -65.5l-49 -278h-104zM438 723l-130 -132h-98l-81 132h90l67 -106h-50l106 106h96z" />
    <glyph glyph-name="Sacute" unicode="&#x15a;" horiz-adv-x="670" 
d="M309 -12q-59 0 -110 10t-89.5 30.5t-59.5 53t-21 77.5q0 14 2 30.5t6 29.5h111q-2 -9 -4.5 -21t-2.5 -21q0 -32 20 -53t56 -30.5t84 -9.5q47 0 82 7.5t59 22t36 35t12 45.5t-14.5 42.5t-38.5 30.5t-54.5 23t-63.5 19q-38 12 -76 25.5t-69.5 34.5t-50 51t-18.5 74
q0 53 22.5 91t61.5 63t90 37.5t108 12.5q56 0 102.5 -10t81.5 -29.5t54 -50t19 -71.5q0 -9 -1 -21t-4 -28h-111q3 11 4 18t1 12q0 41 -37.5 63t-105.5 22q-49 0 -88 -11t-61 -31.5t-22 -51.5q0 -21 11.5 -36t32 -26t46.5 -20.5t55 -17.5q41 -13 83.5 -27t78.5 -35t58 -53.5
t22 -79.5q0 -61 -24.5 -104t-66.5 -70t-95.5 -39.5t-110.5 -12.5zM365 736l107 132h117v-3l-132 -129h-92z" />
    <glyph glyph-name="sacute" unicode="&#x15b;" horiz-adv-x="524" 
d="M227 -12q-52 0 -92 9.5t-67.5 27t-41 42.5t-13.5 55q0 12 2.5 23t4.5 19h102q-2 -6 -3 -13t-1 -11q0 -25 14.5 -40.5t40 -22t57.5 -6.5q24 0 46.5 4.5t40.5 13.5t28 24t10 37q0 19 -11.5 31.5t-30.5 21t-43.5 15.5t-51.5 15t-53.5 18t-48 24.5t-34.5 37t-13 54.5
q0 42 17.5 74t48.5 53.5t72 32.5t87 11q44 0 80.5 -8t63 -24t41 -38.5t14.5 -51.5q0 -14 -2.5 -26.5t-4.5 -16.5h-101q1 6 1.5 11t0.5 9q0 22 -11.5 35.5t-32.5 20t-51 6.5q-27 0 -47.5 -4.5t-35.5 -13.5t-23 -22t-8 -29q0 -22 18 -34.5t46 -20.5t61 -19q29 -9 57.5 -19
t52.5 -24.5t38 -38t14 -58.5q0 -49 -18.5 -84t-51.5 -57t-76 -32.5t-92 -10.5zM256 591l106 132h114v-3l-130 -129h-90z" />
    <glyph glyph-name="Scircumflex" unicode="&#x15c;" horiz-adv-x="670" 
d="M309 -12q-59 0 -110 10t-89.5 30.5t-59.5 53t-21 77.5q0 14 2 30.5t6 29.5h111q-2 -9 -4.5 -21t-2.5 -21q0 -32 20 -53t56 -30.5t84 -9.5q47 0 82 7.5t59 22t36 35t12 45.5t-14.5 42.5t-38.5 30.5t-54.5 23t-63.5 19q-38 12 -76 25.5t-69.5 34.5t-50 51t-18.5 74
q0 53 22.5 91t61.5 63t90 37.5t108 12.5q56 0 102.5 -10t81.5 -29.5t54 -50t19 -71.5q0 -9 -1 -21t-4 -28h-111q3 11 4 18t1 12q0 41 -37.5 63t-105.5 22q-49 0 -88 -11t-61 -31.5t-22 -51.5q0 -21 11.5 -36t32 -26t46.5 -20.5t55 -17.5q41 -13 83.5 -27t78.5 -35t58 -53.5
t22 -79.5q0 -61 -24.5 -104t-66.5 -70t-95.5 -39.5t-110.5 -12.5zM253 736l130 132h105l81 -132h-93l-67 107l50 -1l-106 -106h-100z" />
    <glyph glyph-name="scircumflex" unicode="&#x15d;" horiz-adv-x="524" 
d="M227 -12q-52 0 -92 9.5t-67.5 27t-41 42.5t-13.5 55q0 12 2.5 23t4.5 19h102q-2 -6 -3 -13t-1 -11q0 -25 14.5 -40.5t40 -22t57.5 -6.5q24 0 46.5 4.5t40.5 13.5t28 24t10 37q0 19 -11.5 31.5t-30.5 21t-43.5 15.5t-51.5 15t-53.5 18t-48 24.5t-34.5 37t-13 54.5
q0 42 17.5 74t48.5 53.5t72 32.5t87 11q44 0 80.5 -8t63 -24t41 -38.5t14.5 -51.5q0 -14 -2.5 -26.5t-4.5 -16.5h-101q1 6 1.5 11t0.5 9q0 22 -11.5 35.5t-32.5 20t-51 6.5q-27 0 -47.5 -4.5t-35.5 -13.5t-23 -22t-8 -29q0 -22 18 -34.5t46 -20.5t61 -19q29 -9 57.5 -19
t52.5 -24.5t38 -38t14 -58.5q0 -49 -18.5 -84t-51.5 -57t-76 -32.5t-92 -10.5zM151 591l130 132h98l81 -132h-90l-67 106h50l-106 -106h-96z" />
    <glyph glyph-name="Scedilla" unicode="&#x15e;" horiz-adv-x="670" 
d="M309 -12q-59 0 -110 10t-89.5 30.5t-59.5 53t-21 77.5q0 14 2 30.5t6 29.5h111q-2 -9 -4.5 -21t-2.5 -21q0 -32 20 -53t56 -30.5t84 -9.5q47 0 82 7.5t59 22t36 35t12 45.5t-14.5 42.5t-38.5 30.5t-54.5 23t-63.5 19q-38 12 -76 25.5t-69.5 34.5t-50 51t-18.5 74
q0 53 22.5 91t61.5 63t90 37.5t108 12.5q56 0 102.5 -10t81.5 -29.5t54 -50t19 -71.5q0 -9 -1 -21t-4 -28h-111q3 11 4 18t1 12q0 41 -37.5 63t-105.5 22q-49 0 -88 -11t-61 -31.5t-22 -51.5q0 -21 11.5 -36t32 -26t46.5 -20.5t55 -17.5q41 -13 83.5 -27t78.5 -35t58 -53.5
t22 -79.5q0 -61 -24.5 -104t-66.5 -70t-95.5 -39.5t-110.5 -12.5zM252 -179q-24 0 -49.5 2t-45.5 6l8 44h91q24 0 36.5 7t12.5 25q0 9 -8 13.5t-28 4.5h-48l31 88h68l-15 -47q36 -2 60.5 -13.5t24.5 -40.5q0 -27 -13.5 -44.5t-34.5 -27t-45 -13.5t-45 -4z" />
    <glyph glyph-name="scedilla" unicode="&#x15f;" horiz-adv-x="524" 
d="M227 -12q-52 0 -92 9.5t-67.5 27t-41 42.5t-13.5 55q0 12 2.5 23t4.5 19h102q-2 -6 -3 -13t-1 -11q0 -25 14.5 -40.5t40 -22t57.5 -6.5q24 0 46.5 4.5t40.5 13.5t28 24t10 37q0 19 -11.5 31.5t-30.5 21t-43.5 15.5t-51.5 15t-53.5 18t-48 24.5t-34.5 37t-13 54.5
q0 42 17.5 74t48.5 53.5t72 32.5t87 11q44 0 80.5 -8t63 -24t41 -38.5t14.5 -51.5q0 -14 -2.5 -26.5t-4.5 -16.5h-101q1 6 1.5 11t0.5 9q0 22 -11.5 35.5t-32.5 20t-51 6.5q-27 0 -47.5 -4.5t-35.5 -13.5t-23 -22t-8 -29q0 -22 18 -34.5t46 -20.5t61 -19q29 -9 57.5 -19
t52.5 -24.5t38 -38t14 -58.5q0 -49 -18.5 -84t-51.5 -57t-76 -32.5t-92 -10.5zM187 -179q-24 0 -49.5 2t-45.5 6l8 44h91q25 0 37 7t12 25q0 9 -8 13.5t-28 4.5h-48l32 88h68l-15 -47q35 -2 59.5 -13.5t24.5 -40.5q0 -27 -13.5 -44.5t-34 -27t-45 -13.5t-45.5 -4z" />
    <glyph glyph-name="Scaron" unicode="&#x160;" horiz-adv-x="670" 
d="M309 -12q-59 0 -110 10t-89.5 30.5t-59.5 53t-21 77.5q0 14 2 30.5t6 29.5h111q-2 -9 -4.5 -21t-2.5 -21q0 -32 20 -53t56 -30.5t84 -9.5q47 0 82 7.5t59 22t36 35t12 45.5t-14.5 42.5t-38.5 30.5t-54.5 23t-63.5 19q-38 12 -76 25.5t-69.5 34.5t-50 51t-18.5 74
q0 53 22.5 91t61.5 63t90 37.5t108 12.5q56 0 102.5 -10t81.5 -29.5t54 -50t19 -71.5q0 -9 -1 -21t-4 -28h-111q3 11 4 18t1 12q0 41 -37.5 63t-105.5 22q-49 0 -88 -11t-61 -31.5t-22 -51.5q0 -21 11.5 -36t32 -26t46.5 -20.5t55 -17.5q41 -13 83.5 -27t78.5 -35t58 -53.5
t22 -79.5q0 -61 -24.5 -104t-66.5 -70t-95.5 -39.5t-110.5 -12.5zM606 868l-129 -132h-105l-82 132h93l67 -107l-50 1l107 106h99z" />
    <glyph glyph-name="scaron" unicode="&#x161;" horiz-adv-x="524" 
d="M227 -12q-52 0 -92 9.5t-67.5 27t-41 42.5t-13.5 55q0 12 2.5 23t4.5 19h102q-2 -6 -3 -13t-1 -11q0 -25 14.5 -40.5t40 -22t57.5 -6.5q24 0 46.5 4.5t40.5 13.5t28 24t10 37q0 19 -11.5 31.5t-30.5 21t-43.5 15.5t-51.5 15t-53.5 18t-48 24.5t-34.5 37t-13 54.5
q0 42 17.5 74t48.5 53.5t72 32.5t87 11q44 0 80.5 -8t63 -24t41 -38.5t14.5 -51.5q0 -14 -2.5 -26.5t-4.5 -16.5h-101q1 6 1.5 11t0.5 9q0 22 -11.5 35.5t-32.5 20t-51 6.5q-27 0 -47.5 -4.5t-35.5 -13.5t-23 -22t-8 -29q0 -22 18 -34.5t46 -20.5t61 -19q29 -9 57.5 -19
t52.5 -24.5t38 -38t14 -58.5q0 -49 -18.5 -84t-51.5 -57t-76 -32.5t-92 -10.5zM488 723l-130 -132h-98l-81 132h91l66 -106h-49l105 106h96z" />
    <glyph glyph-name="uni0162" unicode="&#x162;" horiz-adv-x="612" 
d="M204 0l103 590h-227l17 96h567l-16 -96h-229l-104 -590h-111zM224 -179q-24 0 -49.5 2t-45.5 6l8 44h91q24 0 36.5 7t12.5 25q0 9 -8 13.5t-28 4.5h-48l31 88h68l-15 -47q35 -2 60 -13.5t25 -40.5q0 -27 -13.5 -44.5t-34.5 -27t-45 -13.5t-45 -4z" />
    <glyph glyph-name="uni0163" unicode="&#x163;" horiz-adv-x="305" 
d="M157 -12q-39 0 -60.5 13t-30.5 33.5t-9 46.5q0 8 1 15.5t2 15.5l57 328h-66l15 86h68l45 147h82l-26 -147h96l-15 -86h-95l-54 -306q-1 -4 -2.5 -14.5t-1.5 -13.5q0 -15 9 -23.5t28 -8.5h52l-13 -70q-10 -4 -24 -7.5t-29 -6t-29 -2.5zM104 -179q-24 0 -49.5 2t-45.5 6
l8 44h91q25 0 37 7t12 25q0 9 -8 13.5t-28 4.5h-47l31 88h68l-15 -47q35 -2 59.5 -13.5t24.5 -40.5q0 -27 -13.5 -44.5t-34 -27t-44.5 -13.5t-46 -4z" />
    <glyph glyph-name="Tcaron" unicode="&#x164;" horiz-adv-x="612" 
d="M204 0l103 590h-227l17 96h567l-16 -96h-229l-104 -590h-111zM581 868l-130 -132h-105l-81 132h93l67 -107l-50 1l107 106h99z" />
    <glyph glyph-name="tcaron" unicode="&#x165;" horiz-adv-x="305" 
d="M157 -12q-39 0 -60.5 13t-30.5 33.5t-9 46.5q0 8 1 15.5t2 15.5l57 328h-66l15 86h68l45 147h82l-26 -147h96l-15 -86h-95l-54 -306q-1 -4 -2.5 -14.5t-1.5 -13.5q0 -15 9 -23.5t28 -8.5h52l-13 -70q-10 -4 -24 -7.5t-29 -6t-29 -2.5zM273 555l29 168h96l-57 -168h-68z
" />
    <glyph glyph-name="Tbar" unicode="&#x166;" horiz-adv-x="612" 
d="M204 0l103 590h-227l17 96h567l-16 -96h-229l-104 -590h-111zM148 287l14 78h325l-14 -78h-325z" />
    <glyph glyph-name="tbar" unicode="&#x167;" horiz-adv-x="295" 
d="M0 241l12 66h252l-12 -66h-252zM157 -12q-39 0 -60.5 13t-30.5 33.5t-9 46.5q0 8 1 15.5t2 15.5l57 328h-66l15 86h68l45 147h82l-26 -147h96l-15 -86h-95l-54 -306q-1 -4 -2.5 -14.5t-1.5 -13.5q0 -15 9 -23.5t28 -8.5h52l-13 -70q-10 -4 -24 -7.5t-29 -6t-29 -2.5z" />
    <glyph glyph-name="Utilde" unicode="&#x168;" horiz-adv-x="728" 
d="M330 -12q-123 0 -190.5 51.5t-67.5 156.5q0 15 2 33t5 36l74 421h111l-75 -428q-2 -9 -4 -23.5t-2 -25.5q0 -63 38 -94.5t110 -31.5q83 0 137 43t69 128l76 432h112l-76 -429q-16 -92 -57.5 -152t-107 -88.5t-154.5 -28.5zM297 759q6 29 19 53t35.5 39t53.5 15
q26 0 47.5 -8t42.5 -17t44 -9q14 0 23.5 8t15.5 26h62q-5 -29 -19 -53.5t-36.5 -39t-54.5 -14.5q-25 0 -46.5 9t-42 17.5t-43.5 8.5q-15 0 -24.5 -8.5t-15.5 -26.5h-61z" />
    <glyph glyph-name="utilde" unicode="&#x169;" horiz-adv-x="572" 
d="M190 -12q-42 0 -76.5 13t-54.5 42t-20 77q0 16 2.5 33.5t6.5 37.5l59 335h105l-58 -330q-2 -13 -4 -24.5t-2 -21.5q0 -27 10.5 -42.5t29 -22t41.5 -6.5q28 0 55 10t49.5 30t39 49.5t22.5 67.5l51 290h105l-93 -526h-84l3 75h-7q-22 -27 -51 -46.5t-61.5 -30t-67.5 -10.5z
M177 614q6 29 19.5 53.5t36 39.5t53.5 15q26 0 48 -8.5t42.5 -17.5t43.5 -9q14 0 23.5 8.5t15.5 26.5h62q-5 -29 -19.5 -54t-36.5 -39.5t-54 -14.5q-25 0 -46.5 9t-42.5 18t-43 9q-15 0 -25 -9t-15 -27h-62z" />
    <glyph glyph-name="Umacron" unicode="&#x16a;" horiz-adv-x="728" 
d="M330 -12q-123 0 -190.5 51.5t-67.5 156.5q0 15 2 33t5 36l74 421h111l-75 -428q-2 -9 -4 -23.5t-2 -25.5q0 -63 38 -94.5t110 -31.5q83 0 137 43t69 128l76 432h112l-76 -429q-16 -92 -57.5 -152t-107 -88.5t-154.5 -28.5zM307 766l13 75h305l-13 -75h-305z" />
    <glyph glyph-name="umacron" unicode="&#x16b;" horiz-adv-x="572" 
d="M190 -12q-42 0 -76.5 13t-54.5 42t-20 77q0 16 2.5 33.5t6.5 37.5l59 335h105l-58 -330q-2 -13 -4 -24.5t-2 -21.5q0 -27 10.5 -42.5t29 -22t41.5 -6.5q28 0 55 10t49.5 30t39 49.5t22.5 67.5l51 290h105l-93 -526h-84l3 75h-7q-22 -27 -51 -46.5t-61.5 -30t-67.5 -10.5z
M196 627l12 73h302l-13 -73h-301z" />
    <glyph glyph-name="Ubreve" unicode="&#x16c;" horiz-adv-x="728" 
d="M330 -12q-123 0 -190.5 51.5t-67.5 156.5q0 15 2 33t5 36l74 421h111l-75 -428q-2 -9 -4 -23.5t-2 -25.5q0 -63 38 -94.5t110 -31.5q83 0 137 43t69 128l76 432h112l-76 -429q-16 -92 -57.5 -152t-107 -88.5t-154.5 -28.5zM458 745q-49 0 -78 14.5t-41.5 37.5t-12.5 49
q0 5 0.5 11t1.5 11h70q0 -3 0.5 -6t1.5 -6q2 -9 9 -18.5t21.5 -16t38.5 -6.5q30 0 48.5 9t28.5 21.5t13 22.5h71q-5 -29 -24 -57.5t-55 -47t-93 -18.5z" />
    <glyph glyph-name="ubreve" unicode="&#x16d;" horiz-adv-x="572" 
d="M190 -12q-42 0 -76.5 13t-54.5 42t-20 77q0 16 2.5 33.5t6.5 37.5l59 335h105l-58 -330q-2 -13 -4 -24.5t-2 -21.5q0 -27 10.5 -42.5t29 -22t41.5 -6.5q28 0 55 10t49.5 30t39 49.5t22.5 67.5l51 290h105l-93 -526h-84l3 75h-7q-22 -27 -51 -46.5t-61.5 -30t-67.5 -10.5z
M344 600q-50 0 -79.5 14.5t-42.5 37.5t-13 49q0 5 0.5 10.5t1.5 11.5h71q0 -18 9 -30t25 -17.5t37 -5.5q29 0 47.5 9t28.5 21.5t13 22.5h71q-4 -29 -23.5 -57.5t-54.5 -47t-91 -18.5z" />
    <glyph glyph-name="Uring" unicode="&#x16e;" horiz-adv-x="728" 
d="M330 -12q-123 0 -190.5 51.5t-67.5 156.5q0 15 2 33t5 36l74 421h111l-75 -428q-2 -9 -4 -23.5t-2 -25.5q0 -63 38 -94.5t110 -31.5q83 0 137 43t69 128l76 432h112l-76 -429q-16 -92 -57.5 -152t-107 -88.5t-154.5 -28.5zM456 729q-40 0 -66 23.5t-26 58.5q0 32 16 57.5
t43.5 39.5t62.5 14q41 0 66.5 -22.5t25.5 -58.5q0 -32 -15.5 -57t-43 -40t-63.5 -15zM464 785q16 0 28 6t19 16.5t7 24.5q0 15 -11 25t-28 10q-16 0 -27.5 -6t-19 -17t-7.5 -25t11 -24t28 -10z" />
    <glyph glyph-name="uring" unicode="&#x16f;" horiz-adv-x="572" 
d="M190 -12q-42 0 -76.5 13t-54.5 42t-20 77q0 16 2.5 33.5t6.5 37.5l59 335h105l-58 -330q-2 -13 -4 -24.5t-2 -21.5q0 -27 10.5 -42.5t29 -22t41.5 -6.5q28 0 55 10t49.5 30t39 49.5t22.5 67.5l51 290h105l-93 -526h-84l3 75h-7q-22 -27 -51 -46.5t-61.5 -30t-67.5 -10.5z
M344 579q-37 0 -61.5 24t-24.5 60q0 48 31 78.5t79 30.5q36 0 59.5 -23.5t23.5 -59.5q0 -31 -13.5 -56t-37.5 -39.5t-56 -14.5zM347 628q17 0 29 7t18.5 19.5t6.5 28.5q0 18 -10.5 29.5t-28.5 11.5q-15 0 -27.5 -7.5t-19.5 -19.5t-7 -29t11.5 -28.5t27.5 -11.5z" />
    <glyph glyph-name="Uhungarumlaut" unicode="&#x170;" horiz-adv-x="728" 
d="M330 -12q-123 0 -190.5 51.5t-67.5 156.5q0 15 2 33t5 36l74 421h111l-75 -428q-2 -9 -4 -23.5t-2 -25.5q0 -63 38 -94.5t110 -31.5q83 0 137 43t69 128l76 432h112l-76 -429q-16 -92 -57.5 -152t-107 -88.5t-154.5 -28.5zM468 736l92 132h115v-3l-116 -129h-91zM302 736
l91 132h115v-3l-117 -129h-89z" />
    <glyph glyph-name="uhungarumlaut" unicode="&#x171;" horiz-adv-x="572" 
d="M190 -12q-42 0 -76.5 13t-54.5 42t-20 77q0 16 2.5 33.5t6.5 37.5l59 335h105l-58 -330q-2 -13 -4 -24.5t-2 -21.5q0 -27 10.5 -42.5t29 -22t41.5 -6.5q28 0 55 10t49.5 30t39 49.5t22.5 67.5l51 290h105l-93 -526h-84l3 75h-7q-22 -27 -51 -46.5t-61.5 -30t-67.5 -10.5z
M211 591l91 132h117v-3l-117 -129h-91zM381 591l92 132h117v-3l-117 -129h-92z" />
    <glyph glyph-name="Uogonek" unicode="&#x172;" horiz-adv-x="728" 
d="M330 -12q-123 0 -190.5 51.5t-67.5 156.5q0 15 2 33t5 36l74 421h111l-75 -428q-2 -9 -4 -23.5t-2 -25.5q0 -63 38 -94.5t110 -31.5q83 0 137 43t69 128l76 432h112l-76 -429q-16 -92 -57.5 -152t-107 -88.5t-154.5 -28.5zM407 -178q-21 0 -42 6.5t-34 22t-13 41.5
q0 28 11 49.5t28 39t34 31.5h69l-1 -4q-15 -13 -32.5 -35.5t-17.5 -49.5q0 -16 10 -27.5t33 -11.5h39l-8 -48q-18 -7 -39 -10.5t-37 -3.5z" />
    <glyph glyph-name="uogonek" unicode="&#x173;" horiz-adv-x="572" 
d="M391 -178q-22 0 -42.5 6.5t-33.5 22t-13 42.5t11 48.5t28 38.5t34 31h65v-5q-15 -12 -31 -34t-16 -48q0 -17 9.5 -28.5t33.5 -11.5h38l-8 -48q-17 -7 -38.5 -10.5t-36.5 -3.5zM190 -12q-42 0 -76.5 13t-54.5 42t-20 77q0 16 2.5 33.5t6.5 37.5l59 335h105l-58 -330
q-2 -13 -4 -24.5t-2 -21.5q0 -27 10.5 -42.5t29 -22t41.5 -6.5q28 0 55 10t49.5 30t39 49.5t22.5 67.5l51 290h105l-93 -526h-84l3 75h-7q-22 -27 -51 -46.5t-61.5 -30t-67.5 -10.5z" />
    <glyph glyph-name="Wcircumflex" unicode="&#x174;" horiz-adv-x="938" 
d="M156 0l-69 686h107l43 -452q2 -11 3 -30t2.5 -39.5t2.5 -37.5h6q6 17 13 37.5t14 39.5t10 30l183 452h143l34 -452q1 -11 1.5 -30t1.5 -39.5t2 -37.5h5l13.5 36t14.5 39.5t13 31.5l193 452h110l-304 -686h-135l-34 458q-1 15 -2 34.5t-1.5 40t-0.5 34.5h-6
q-5 -16 -12 -36.5t-13.5 -40t-12.5 -32.5l-190 -458h-135zM389 736l130 132h105l81 -132h-93l-66 107l49 -1l-106 -106h-100z" />
    <glyph glyph-name="wcircumflex" unicode="&#x175;" horiz-adv-x="740" 
d="M119 0l-65 526h104l25 -254q1 -14 3 -40t3.5 -54.5t2.5 -51.5h4q8 23 19 50.5t21 53.5t17 42l106 254h112l19 -254q1 -17 2.5 -43t3 -53.5t2.5 -49.5h4q8 20 18.5 47t21.5 53.5t19 45.5l112 254h104l-250 -526h-107l-19 277q-1 16 -2 38t-2 45t-1 40h-5q-6 -16 -14 -39
t-16.5 -45t-16.5 -39l-117 -277h-108zM275 591l129 132h98l82 -132h-91l-67 106h50l-106 -106h-95z" />
    <glyph glyph-name="Ycircumflex" unicode="&#x176;" horiz-adv-x="666" 
d="M232 0l50 282l-197 404h115l149 -305h6l253 305h123l-338 -404l-49 -282h-112zM254 736l130 132h105l81 -132h-93l-67 107l50 -1l-107 -106h-99z" />
    <glyph glyph-name="ycircumflex" unicode="&#x177;" horiz-adv-x="516" 
d="M52 -182q-33 0 -53 4.5t-25 5.5l12 76h52q24 0 46.5 8.5t43.5 30t39 59.5l-110 524h104l52 -253q5 -22 10 -51.5t9.5 -58.5t6.5 -51h5q7 16 15.5 36t18 41t18.5 40.5t16 33.5l131 263h109l-263 -506q-22 -43 -46 -79.5t-52 -64t-62 -43t-77 -15.5zM154 591l130 132h98
l81 -132h-90l-67 106h50l-106 -106h-96z" />
    <glyph glyph-name="Ydieresis" unicode="&#x178;" horiz-adv-x="666" 
d="M232 0l50 282l-197 404h115l149 -305h6l253 305h123l-338 -404l-49 -282h-112zM275 766l17 102h98l-18 -102h-97zM469 766l18 102h98l-18 -102h-98z" />
    <glyph glyph-name="Zacute" unicode="&#x179;" horiz-adv-x="635" 
d="M-17 0l10 55l478 535h-359l17 96h532l-10 -55l-480 -535h395l-17 -96h-566zM342 736l107 132h117v-3l-132 -129h-92z" />
    <glyph glyph-name="zacute" unicode="&#x17a;" horiz-adv-x="503" 
d="M-17 0l10 52l338 388h-251l15 86h411l-9 -51l-340 -389h286l-16 -86h-444zM249 591l106 132h114v-3l-130 -129h-90z" />
    <glyph glyph-name="Zdotaccent" unicode="&#x17b;" horiz-adv-x="635" 
d="M-17 0l10 55l478 535h-359l17 96h532l-10 -55l-480 -535h395l-17 -96h-566zM344 766l19 108h107l-20 -108h-106z" />
    <glyph glyph-name="zdotaccent" unicode="&#x17c;" horiz-adv-x="503" 
d="M-17 0l10 52l338 388h-251l15 86h411l-9 -51l-340 -389h286l-16 -86h-444zM254 615l17 105h106l-18 -105h-105z" />
    <glyph glyph-name="Zcaron" unicode="&#x17d;" horiz-adv-x="635" 
d="M-17 0l10 55l478 535h-359l17 96h532l-10 -55l-480 -535h395l-17 -96h-566zM583 868l-129 -132h-105l-82 132h93l67 -107l-50 1l107 106h99z" />
    <glyph glyph-name="zcaron" unicode="&#x17e;" horiz-adv-x="503" 
d="M-17 0l10 52l338 388h-251l15 86h411l-9 -51l-340 -389h286l-16 -86h-444zM481 723l-130 -132h-98l-81 132h91l66 -106h-49l105 106h96z" />
    <glyph glyph-name="longs" unicode="&#x17f;" horiz-adv-x="292" 
d="M-5 -182q-14 0 -28 2t-26 5t-20 6l12 73h51q24 0 38 12t18 35l85 489h-76l15 86h77l13 75q6 32 20 62t44 49t84 19q14 0 27.5 -1.5t26 -4.5t20.5 -7l-13 -73h-51q-23 0 -37 -12t-18 -35l-115 -651q-5 -32 -19.5 -61.5t-44 -48.5t-83.5 -19z" />
    <glyph glyph-name="uni018F" unicode="&#x18f;" horiz-adv-x="756" 
d="M344 -12q-93 0 -158.5 27t-99.5 81.5t-34 137.5q0 21 2 45t7 50l8 45h548q2 16 3.5 30.5t1.5 27.5q0 61 -21.5 99t-65 56.5t-109.5 18.5q-43 0 -82 -8.5t-70.5 -27t-53 -48t-27.5 -71.5h-110q10 63 39.5 109t75.5 76.5t106.5 46t133.5 15.5q98 0 164 -31t100 -89t34 -140
q0 -29 -3.5 -60t-11.5 -65q-22 -110 -69.5 -182t-123 -107.5t-184.5 -35.5zM357 80q64 0 111.5 21t80.5 67t51 120h-430q-3 -17 -4.5 -31.5t-1.5 -27.5q0 -55 23.5 -87.5t67.5 -47t102 -14.5z" />
    <glyph glyph-name="florin" unicode="&#x192;" horiz-adv-x="574" 
d="M61 -182q-13 0 -26.5 2t-25.5 5t-20 6l25 73h51q23 0 39.5 12t23.5 35l159 474h-76l30 86h76l30 90q11 33 30 62.5t52 48.5t87 19q14 0 27.5 -2t25.5 -5t19 -6l-25 -73h-51q-24 0 -39.5 -12t-23.5 -35l-28 -87h98l-30 -86h-98l-162 -478q-11 -33 -30.5 -62.5t-52 -48
t-85.5 -18.5z" />
    <glyph glyph-name="uni019D" unicode="&#x19d;" horiz-adv-x="734" 
d="M-1 -182q-13 0 -28.5 2t-29 5t-23.5 6l13 73h43q23 0 35.5 11.5t16.5 33.5l130 737h108l228 -426q5 -9 12 -23l14 -28t12 -26l6 1q2 17 5 37.5t5 35.5l75 429h107l-120 -686h-104l-222 416q-9 16 -23 44t-24 47h-5q-2 -17 -6 -42t-7 -42l-83 -479q-4 -23 -13 -45
t-24.5 -40.5t-39 -29.5t-58.5 -11z" />
    <glyph glyph-name="Ohorn" unicode="&#x1a0;" horiz-adv-x="785" 
d="M357 -12q-96 0 -163.5 30t-103.5 90t-36 148q0 25 2 48.5t6 46.5q18 107 69.5 185t133.5 120t192 42q96 0 163.5 -30t104 -90t36.5 -148q0 -23 -2 -46t-6 -46q-17 -107 -69 -186t-134.5 -121.5t-192.5 -42.5zM357 84q60 0 107 17t82 50t57 80t33 106q2 15 4 27.5t3 22.5
t1.5 19.5t0.5 18.5q0 59 -22 98.5t-64.5 59.5t-102.5 20q-59 0 -106.5 -17.5t-82.5 -50t-57 -79.5t-33 -106q-2 -15 -3.5 -27.5t-2.5 -23t-1.5 -19.5t-0.5 -18q0 -59 22 -98.5t64 -59.5t102 -20zM638 569l10 58q55 5 92 25.5t53 58.5h-58l21 118h132l-9 -54
q-11 -64 -41 -107t-79.5 -67.5t-120.5 -31.5z" />
    <glyph glyph-name="ohorn" unicode="&#x1a1;" horiz-adv-x="583" 
d="M252 -12q-72 0 -121 21.5t-74 65.5t-25 112q0 19 2 40t6 44q16 92 54 151t97 87.5t139 28.5q73 0 122 -21.5t73.5 -65.5t24.5 -113q0 -19 -1.5 -39.5t-6.5 -43.5q-16 -92 -53 -151t-95.5 -87.5t-141.5 -28.5zM258 74q49 0 84 19.5t57.5 59.5t32.5 101q5 20 6.5 34.5
t2 25.5t0.5 20q0 40 -12.5 66t-38.5 39t-66 13q-49 0 -83.5 -20t-57 -59.5t-34.5 -100.5q-3 -20 -5 -35t-3 -25.5t-1 -20.5q0 -40 12.5 -65.5t39.5 -38.5t66 -13zM464 428l10 56q57 0 97.5 24t48.5 61h-59l21 117h132l-14 -77q-10 -57 -42 -98t-81 -62t-113 -21z" />
    <glyph glyph-name="Uhorn" unicode="&#x1af;" horiz-adv-x="728" 
d="M330 -12q-123 0 -190.5 51.5t-67.5 156.5q0 15 2 33t5 36l74 421h111l-75 -428q-2 -9 -4 -23.5t-2 -25.5q0 -63 38 -94.5t110 -31.5q83 0 137 43t69 128l76 432h112l-76 -429q-16 -92 -57.5 -152t-107 -88.5t-154.5 -28.5zM636 628l10 58q55 5 92 26t53 58h-58l21 118
h132l-10 -54q-10 -64 -40 -107t-79.5 -67t-120.5 -32z" />
    <glyph glyph-name="uhorn" unicode="&#x1b0;" horiz-adv-x="572" 
d="M190 -12q-42 0 -76.5 13t-54.5 42t-20 77q0 16 2.5 33.5t6.5 37.5l59 335h105l-58 -330q-2 -13 -4 -24.5t-2 -21.5q0 -27 10.5 -42.5t29 -22t41.5 -6.5q28 0 55 10t49.5 30t39 49.5t22.5 67.5l51 290h105l-93 -526h-84l3 75h-7q-22 -27 -51 -46.5t-61.5 -30t-67.5 -10.5z
M469 470l10 56q58 0 98.5 23.5t47.5 61.5h-58l20 117h133l-15 -77q-10 -58 -41.5 -98.5t-81 -61.5t-113.5 -21z" />
    <glyph glyph-name="uni01C4" unicode="&#x1c4;" horiz-adv-x="1356" 
d="M35 0l121 686h253q141 0 218.5 -64.5t77.5 -202.5q0 -26 -2 -51t-6 -49q-18 -100 -69 -171.5t-130 -109.5t-182 -38h-281zM164 96h146q56 0 102 15.5t81 45t56.5 73t30.5 99.5q4 18 5.5 33t2.5 28t1 25q0 62 -21.5 100.5t-63.5 56.5t-102 18h-151zM704 0l10 55l478 535
h-359l17 96h532l-10 -55l-479 -535h394l-17 -96h-566zM1304 868l-129 -132h-105l-82 132h94l66 -107l-49 1l106 106h99z" />
    <glyph glyph-name="uni01C5" unicode="&#x1c5;" horiz-adv-x="1234" 
d="M35 0l121 686h253q141 0 218.5 -64.5t77.5 -202.5q0 -26 -2 -51t-6 -49q-18 -100 -69 -171.5t-130 -109.5t-182 -38h-281zM164 96h146q56 0 102 15.5t81 45t56.5 73t30.5 99.5q4 18 5.5 33t2.5 28t1 25q0 62 -21.5 100.5t-63.5 56.5t-102 18h-151zM715 0l9 52l339 388
h-252l15 86h411l-9 -51l-340 -389h286l-15 -86h-444zM1212 723l-129 -132h-98l-82 132h91l66 -106h-49l105 106h96z" />
    <glyph glyph-name="uni01C6" unicode="&#x1c6;" horiz-adv-x="1082" 
d="M210 -12q-55 0 -94.5 23t-60.5 66t-21 103q0 21 1.5 44t6.5 49q12 69 35 118.5t54.5 82t69.5 48.5t82 16q37 0 66.5 -8t52 -24.5t35.5 -43.5h6l46 261h104l-128 -723h-83l2 72h-7q-32 -42 -75 -63t-92 -21zM245 78q45 0 77.5 20.5t53.5 59.5t30 96q4 19 5.5 33t2.5 25
t1 20q0 42 -12.5 67.5t-36 37t-54.5 11.5q-46 0 -77.5 -18t-52 -56t-31.5 -97q-3 -23 -5.5 -39t-3.5 -28t-1 -23q0 -56 26 -82.5t78 -26.5zM562 0l10 52l338 388h-252l15 86h412l-9 -51l-341 -389h287l-16 -86h-444zM1060 723l-130 -132h-98l-81 132h90l67 -106h-50l106 106
h96z" />
    <glyph glyph-name="uni01C7" unicode="&#x1c7;" horiz-adv-x="1103" 
d="M36 0l120 686h111l-103 -589h343l-17 -97h-454zM763 -12q-102 0 -156.5 40.5t-54.5 120.5q0 10 1.5 26t8.5 46h111q-7 -28 -8 -41t-1 -19q0 -38 25 -58t75 -20q58 0 95.5 38t49.5 109l80 456h112l-79 -454q-15 -83 -50 -137t-87.5 -80.5t-121.5 -26.5z" />
    <glyph glyph-name="uni01C8" unicode="&#x1c8;" horiz-adv-x="788" 
d="M36 0l120 686h111l-103 -589h343l-17 -97h-454zM678 617l19 106h104l-18 -106h-105zM532 -182q-14 0 -29.5 2t-29 5t-22.5 6l12 73h47q23 0 36 11.5t17 33.5l102 577h104l-102 -582q-6 -32 -20.5 -60.5t-42 -47t-72.5 -18.5z" />
    <glyph glyph-name="uni01C9" unicode="&#x1c9;" horiz-adv-x="474" 
d="M21 0l127 723h104l-127 -723h-104zM364 617l19 106h104l-18 -106h-105zM218 -182q-14 0 -29.5 2t-29 5t-22.5 6l12 73h47q23 0 36 11.5t17 33.5l102 577h104l-102 -582q-6 -32 -20.5 -60.5t-42 -47t-72.5 -18.5z" />
    <glyph glyph-name="uni01CA" unicode="&#x1ca;" horiz-adv-x="1305" 
d="M36 0l120 686h108l228 -426q5 -9 12 -23l14 -28t12 -26l6 1q2 17 5 37.5t5 35.5l75 429h107l-120 -686h-104l-222 416q-9 16 -23 44t-24 47h-5q-2 -17 -6 -42t-7 -42l-74 -423h-107zM965 -12q-102 0 -156.5 40.5t-54.5 120.5q0 10 1.5 26t7.5 46h111q-6 -28 -7 -41
t-1 -19q0 -38 25 -58t75 -20q58 0 95.5 38t49.5 109l80 456h112l-79 -454q-15 -83 -50 -137t-87.5 -80.5t-121.5 -26.5z" />
    <glyph glyph-name="uni01CB" unicode="&#x1cb;" horiz-adv-x="970" 
d="M36 0l120 686h108l228 -426q5 -9 12 -23l14 -28t12 -26l6 1q2 17 5 37.5t5 35.5l75 429h107l-120 -686h-104l-222 416q-9 16 -23 44t-24 47h-5q-2 -17 -6 -42t-7 -42l-74 -423h-107zM860 617l19 106h104l-18 -106h-105zM714 -182q-14 0 -29.5 2t-29 5t-22.5 6l12 73h47
q23 0 36 11.5t17 33.5l102 577h104l-102 -582q-6 -32 -20.5 -60.5t-42 -47t-72.5 -18.5z" />
    <glyph glyph-name="uni01CC" unicode="&#x1cc;" horiz-adv-x="808" 
d="M21 0l92 526h84l-3 -75h7q23 27 52 46.5t62 30t67 10.5q42 0 75.5 -13t53.5 -42t20 -77q0 -16 -2 -33.5t-6 -37.5l-59 -335h-104l58 329q2 13 3.5 25t1.5 22q0 27 -10 42.5t-28 22t-42 6.5q-28 0 -55.5 -10.5t-50 -30.5t-39 -50t-22.5 -69l-51 -287h-104zM699 617l19 106
h104l-18 -106h-105zM553 -182q-14 0 -29.5 2t-29 5t-22.5 6l12 73h47q23 0 36 11.5t17 33.5l102 577h104l-102 -582q-6 -32 -20.5 -60.5t-42 -47t-72.5 -18.5z" />
    <glyph glyph-name="uni01CD" unicode="&#x1cd;" horiz-adv-x="695" 
d="M-35 0l386 686h141l146 -686h-114l-33 160h-320l-88 -160h-118zM224 255h247l-40 199q-3 16 -6.5 34t-7 36.5t-6 34.5t-4.5 29h-5q-10 -20 -23.5 -46.5t-26 -50.5t-20.5 -40zM628 868l-130 -132h-105l-81 132h93l66 -107l-49 1l106 106h100z" />
    <glyph glyph-name="uni01CE" unicode="&#x1ce;" 
d="M195 -12q-52 0 -90.5 21.5t-59.5 64t-21 106.5q0 20 2.5 42t6.5 47q16 94 50 153.5t83.5 87.5t111.5 28q35 0 63.5 -8.5t50.5 -25.5t35 -44h7l29 66h86l-23 -127q-7 -37 -14.5 -76.5t-14 -77t-12 -68t-8.5 -51t-3 -25.5q0 -13 8 -19.5t21 -6.5h36l-12 -71
q-10 -5 -27.5 -10.5t-41.5 -5.5q-27 0 -45 11.5t-26 33.5q-3 9 -5.5 19.5t-1.5 22.5h-7q-33 -44 -78.5 -65.5t-99.5 -21.5zM238 78q26 0 51 10.5t46 32t37 55t25 80.5q3 19 4.5 33t2.5 25t1 20q0 37 -11 62.5t-34 38.5t-59 13q-43 0 -74.5 -18t-52 -57t-32.5 -102
q-4 -21 -6 -36t-3 -27t-1 -22q0 -55 26 -81.5t80 -26.5zM505 723l-129 -132h-98l-82 132h91l67 -106h-50l106 106h95z" />
    <glyph glyph-name="uni01CF" unicode="&#x1cf;" horiz-adv-x="274" 
d="M35 0l121 686h112l-121 -686h-112zM413 868l-130 -132h-105l-81 132h93l67 -107l-50 1l107 106h99z" />
    <glyph glyph-name="uni01D0" unicode="&#x1d0;" horiz-adv-x="238" 
d="M21 0l93 526h104l-93 -526h-104zM355 723l-129 -132h-98l-82 132h91l67 -106h-50l106 106h95z" />
    <glyph glyph-name="uni01D1" unicode="&#x1d1;" horiz-adv-x="785" 
d="M357 -12q-96 0 -163.5 30t-103.5 90t-36 148q0 25 2 48.5t6 46.5q18 107 69.5 185t133.5 120t192 42q96 0 163.5 -30t104 -90t36.5 -148q0 -23 -2 -46t-6 -46q-17 -107 -69 -186t-134.5 -121.5t-192.5 -42.5zM357 84q60 0 107 17t82 50t57 80t33 106q2 15 4 27.5t3 22.5
t1.5 19.5t0.5 18.5q0 59 -22 98.5t-64.5 59.5t-102.5 20q-59 0 -106.5 -17.5t-82.5 -50t-57 -79.5t-33 -106q-2 -15 -3.5 -27.5t-2.5 -23t-1.5 -19.5t-0.5 -18q0 -59 22 -98.5t64 -59.5t102 -20zM668 868l-130 -132h-105l-81 132h93l67 -107l-50 1l106 106h100z" />
    <glyph glyph-name="uni01D2" unicode="&#x1d2;" horiz-adv-x="583" 
d="M252 -12q-72 0 -121 21.5t-74 65.5t-25 112q0 19 2 40t6 44q16 92 54 151t97 87.5t139 28.5q73 0 122 -21.5t73.5 -65.5t24.5 -113q0 -19 -1.5 -39.5t-6.5 -43.5q-16 -92 -53 -151t-95.5 -87.5t-141.5 -28.5zM258 74q49 0 84 19.5t57.5 59.5t32.5 101q5 20 6.5 34.5
t2 25.5t0.5 20q0 40 -12.5 66t-38.5 39t-66 13q-49 0 -83.5 -20t-57 -59.5t-34.5 -100.5q-3 -20 -5 -35t-3 -25.5t-1 -20.5q0 -40 12.5 -65.5t39.5 -38.5t66 -13zM528 723l-130 -132h-98l-81 132h91l66 -106h-49l105 106h96z" />
    <glyph glyph-name="uni01D3" unicode="&#x1d3;" horiz-adv-x="728" 
d="M330 -12q-123 0 -190.5 51.5t-67.5 156.5q0 15 2 33t5 36l74 421h111l-75 -428q-2 -9 -4 -23.5t-2 -25.5q0 -63 38 -94.5t110 -31.5q83 0 137 43t69 128l76 432h112l-76 -429q-16 -92 -57.5 -152t-107 -88.5t-154.5 -28.5zM646 868l-130 -132h-105l-81 132h93l67 -107
l-50 1l107 106h99z" />
    <glyph glyph-name="uni01D4" unicode="&#x1d4;" horiz-adv-x="572" 
d="M190 -12q-42 0 -76.5 13t-54.5 42t-20 77q0 16 2.5 33.5t6.5 37.5l59 335h105l-58 -330q-2 -13 -4 -24.5t-2 -21.5q0 -27 10.5 -42.5t29 -22t41.5 -6.5q28 0 55 10t49.5 30t39 49.5t22.5 67.5l51 290h105l-93 -526h-84l3 75h-7q-22 -27 -51 -46.5t-61.5 -30t-67.5 -10.5z
M519 723l-129 -132h-98l-82 132h91l66 -106h-49l106 106h95z" />
    <glyph glyph-name="uni01D5" unicode="&#x1d5;" horiz-adv-x="728" 
d="M330 -12q-123 0 -190.5 51.5t-67.5 156.5q0 15 2 33t5 36l74 421h111l-75 -428q-2 -9 -4 -23.5t-2 -25.5q0 -63 38 -94.5t110 -31.5q83 0 137 43t69 128l76 432h112l-76 -429q-16 -92 -57.5 -152t-107 -88.5t-154.5 -28.5zM314 766l17 102h98l-18 -102h-97zM508 766
l18 102h98l-18 -102h-98zM338 940l13 75h305l-13 -75h-305z" />
    <glyph glyph-name="uni01D6" unicode="&#x1d6;" horiz-adv-x="572" 
d="M190 -12q-42 0 -76.5 13t-54.5 42t-20 77q0 16 2.5 33.5t6.5 37.5l59 335h105l-58 -330q-2 -13 -4 -24.5t-2 -21.5q0 -27 10.5 -42.5t29 -22t41.5 -6.5q28 0 55 10t49.5 30t39 49.5t22.5 67.5l51 290h105l-93 -526h-84l3 75h-7q-22 -27 -51 -46.5t-61.5 -30t-67.5 -10.5z
M199 621l17 101h98l-18 -101h-97zM395 621l18 101h98l-17 -101h-99zM226 801l12 73h302l-12 -73h-302z" />
    <glyph glyph-name="uni01D7" unicode="&#x1d7;" horiz-adv-x="728" 
d="M330 -12q-123 0 -190.5 51.5t-67.5 156.5q0 15 2 33t5 36l74 421h111l-75 -428q-2 -9 -4 -23.5t-2 -25.5q0 -63 38 -94.5t110 -31.5q83 0 137 43t69 128l76 432h112l-76 -429q-16 -92 -57.5 -152t-107 -88.5t-154.5 -28.5zM314 766l17 102h98l-18 -102h-97zM508 766
l18 102h98l-18 -102h-98zM435 910l108 132h117v-3l-132 -129h-93z" />
    <glyph glyph-name="uni01D8" unicode="&#x1d8;" horiz-adv-x="572" 
d="M190 -12q-42 0 -76.5 13t-54.5 42t-20 77q0 16 2.5 33.5t6.5 37.5l59 335h105l-58 -330q-2 -13 -4 -24.5t-2 -21.5q0 -27 10.5 -42.5t29 -22t41.5 -6.5q28 0 55 10t49.5 30t39 49.5t22.5 67.5l51 290h105l-93 -526h-84l3 75h-7q-22 -27 -51 -46.5t-61.5 -30t-67.5 -10.5z
M199 621l17 101h98l-18 -101h-97zM395 621l18 101h98l-17 -101h-99zM317 765l106 132h115v-3l-131 -129h-90z" />
    <glyph glyph-name="uni01D9" unicode="&#x1d9;" horiz-adv-x="728" 
d="M330 -12q-123 0 -190.5 51.5t-67.5 156.5q0 15 2 33t5 36l74 421h111l-75 -428q-2 -9 -4 -23.5t-2 -25.5q0 -63 38 -94.5t110 -31.5q83 0 137 43t69 128l76 432h112l-76 -429q-16 -92 -57.5 -152t-107 -88.5t-154.5 -28.5zM314 766l17 102h98l-18 -102h-97zM508 766
l18 102h98l-18 -102h-98zM677 1042l-130 -132h-105l-81 132h93l67 -107l-50 1l107 106h99z" />
    <glyph glyph-name="uni01DA" unicode="&#x1da;" horiz-adv-x="572" 
d="M190 -12q-42 0 -76.5 13t-54.5 42t-20 77q0 16 2.5 33.5t6.5 37.5l59 335h105l-58 -330q-2 -13 -4 -24.5t-2 -21.5q0 -27 10.5 -42.5t29 -22t41.5 -6.5q28 0 55 10t49.5 30t39 49.5t22.5 67.5l51 290h105l-93 -526h-84l3 75h-7q-22 -27 -51 -46.5t-61.5 -30t-67.5 -10.5z
M199 621l17 101h98l-18 -101h-97zM395 621l18 101h98l-17 -101h-99zM550 897l-130 -132h-98l-81 132h90l67 -106h-50l106 106h96z" />
    <glyph glyph-name="uni01DB" unicode="&#x1db;" horiz-adv-x="728" 
d="M330 -12q-123 0 -190.5 51.5t-67.5 156.5q0 15 2 33t5 36l74 421h111l-75 -428q-2 -9 -4 -23.5t-2 -25.5q0 -63 38 -94.5t110 -31.5q83 0 137 43t69 128l76 432h112l-76 -429q-16 -92 -57.5 -152t-107 -88.5t-154.5 -28.5zM314 766l17 102h98l-18 -102h-97zM508 766
l18 102h98l-18 -102h-98zM449 910l-87 129l1 3h112l62 -132h-88z" />
    <glyph glyph-name="uni01DC" unicode="&#x1dc;" horiz-adv-x="572" 
d="M190 -12q-42 0 -76.5 13t-54.5 42t-20 77q0 16 2.5 33.5t6.5 37.5l59 335h105l-58 -330q-2 -13 -4 -24.5t-2 -21.5q0 -27 10.5 -42.5t29 -22t41.5 -6.5q28 0 55 10t49.5 30t39 49.5t22.5 67.5l51 290h105l-93 -526h-84l3 75h-7q-22 -27 -51 -46.5t-61.5 -30t-67.5 -10.5z
M199 621l17 101h98l-18 -101h-97zM395 621l18 101h98l-17 -101h-99zM330 765l-81 129l1 3h106l59 -132h-85z" />
    <glyph glyph-name="Gcaron" unicode="&#x1e6;" horiz-adv-x="795" 
d="M344 -12q-140 0 -215 66t-75 202q0 26 2.5 52.5t6.5 52.5q19 106 72.5 181.5t136.5 115.5t191 40q63 0 116 -12.5t92 -37t60.5 -62t21.5 -87.5q0 -11 -1.5 -22.5t-3.5 -24.5h-114q1 7 1.5 14.5t0.5 13.5q0 32 -12.5 55t-35.5 38t-54 22.5t-68 7.5q-57 0 -104.5 -15
t-84 -45.5t-61 -75t-35.5 -104.5q-3 -19 -5.5 -34t-3.5 -27.5t-2 -23t-1 -21.5q0 -60 21 -98.5t61.5 -57t98.5 -18.5q71 0 124.5 21.5t86.5 61t41 91.5l2 14h-230l17 93h342l-64 -364h-79v83q-33 -32 -71 -53.5t-81.5 -31.5t-93.5 -10zM667 868l-130 -132h-105l-81 132h93
l67 -107l-50 1l107 106h99z" />
    <glyph glyph-name="gcaron" unicode="&#x1e7;" 
d="M195 -182q-54 0 -96.5 14t-66.5 40.5t-24 65.5q0 7 0.5 15.5t3.5 21.5h101q-1 -5 -1 -8v-6q0 -21 12 -33.5t33.5 -18t46.5 -5.5q47 0 80.5 16.5t54 49.5t29.5 82q2 10 3 19.5t2 15.5h-6q-20 -26 -45.5 -43t-55 -25t-61.5 -8q-53 0 -91.5 20.5t-59.5 62.5t-21 107
q0 17 1.5 37t5.5 43q23 134 87 195.5t158 61.5q55 0 95.5 -21t60.5 -63h7l22 72h84l-81 -466q-16 -87 -50 -140t-90 -77.5t-138 -24.5zM247 101q28 0 53.5 10t46.5 30t36 51.5t22 75.5q3 18 5 30.5t2.5 22.5t0.5 19q0 36 -11.5 60t-34.5 36t-60 12q-40 0 -72.5 -16.5
t-54 -52.5t-31.5 -96q-3 -20 -5 -34.5t-3 -24.5t-1 -19q0 -35 11.5 -58t35.5 -34.5t60 -11.5zM515 723l-130 -132h-97l-82 132h91l66 -106h-49l105 106h96z" />
    <glyph glyph-name="uni01EA" unicode="&#x1ea;" horiz-adv-x="785" 
d="M357 -12q-96 0 -163.5 30t-103.5 90t-36 148q0 25 2 48.5t6 46.5q18 107 69.5 185t133.5 120t192 42q96 0 163.5 -30t104 -90t36.5 -148q0 -23 -2 -46t-6 -46q-17 -107 -69 -186t-134.5 -121.5t-192.5 -42.5zM357 84q60 0 107 17t82 50t57 80t33 106q2 15 4 27.5t3 22.5
t1.5 19.5t0.5 18.5q0 59 -22 98.5t-64.5 59.5t-102.5 20q-59 0 -106.5 -17.5t-82.5 -50t-57 -79.5t-33 -106q-2 -15 -3.5 -27.5t-2.5 -23t-1.5 -19.5t-0.5 -18q0 -59 22 -98.5t64 -59.5t102 -20zM439 -178q-21 0 -42 6.5t-33.5 22t-12.5 41.5q0 28 10.5 49.5t27.5 39
t34 31.5h69l-1 -4q-15 -13 -32.5 -35.5t-17.5 -49.5q0 -16 10 -27.5t33 -11.5h39l-8 -48q-18 -7 -39 -10.5t-37 -3.5z" />
    <glyph glyph-name="uni01EB" unicode="&#x1eb;" horiz-adv-x="583" 
d="M252 -12q-72 0 -121 21.5t-74 65.5t-25 112q0 19 2 40t6 44q16 92 54 151t97 87.5t139 28.5q73 0 122 -21.5t73.5 -65.5t24.5 -113q0 -19 -1.5 -39.5t-6.5 -43.5q-16 -92 -53 -151t-95.5 -87.5t-141.5 -28.5zM258 74q49 0 84 19.5t57.5 59.5t32.5 101q5 20 6.5 34.5
t2 25.5t0.5 20q0 40 -12.5 66t-38.5 39t-66 13q-49 0 -83.5 -20t-57 -59.5t-34.5 -100.5q-3 -20 -5 -35t-3 -25.5t-1 -20.5q0 -40 12.5 -65.5t39.5 -38.5t66 -13zM322 -178q-22 0 -42.5 6.5t-33.5 22t-13 41.5q0 28 11 49.5t28 39t34 31.5h69l-1 -4q-16 -13 -33 -35.5
t-17 -49.5q0 -16 10 -27.5t33 -11.5h39l-8 -48q-18 -7 -39.5 -10.5t-36.5 -3.5z" />
    <glyph glyph-name="Aringacute" unicode="&#x1fa;" horiz-adv-x="695" 
d="M-35 0l386 686h141l146 -686h-114l-33 160h-320l-88 -160h-118zM224 255h247l-40 199q-3 16 -6.5 34t-7 36.5t-6 34.5t-4.5 29h-5q-10 -20 -23.5 -46.5t-26 -50.5t-20.5 -40zM438 729q-40 0 -66 23.5t-26 58.5q0 32 15.5 57.5t43 39.5t63.5 14q40 0 66 -22.5t26 -58.5
q0 -32 -16 -57t-43.5 -40t-62.5 -15zM446 785q16 0 27.5 6t19 16.5t7.5 24.5q0 15 -11 25t-29 10q-15 0 -27 -6t-19 -17t-7 -25t11 -24t28 -10zM426 955l107 132h117v-3l-132 -129h-92z" />
    <glyph glyph-name="aringacute" unicode="&#x1fb;" 
d="M195 -12q-52 0 -90.5 21.5t-59.5 64t-21 106.5q0 20 2.5 42t6.5 47q16 94 50 153.5t83.5 87.5t111.5 28q35 0 63.5 -8.5t50.5 -25.5t35 -44h7l29 66h86l-23 -127q-7 -37 -14.5 -76.5t-14 -77t-12 -68t-8.5 -51t-3 -25.5q0 -13 8 -19.5t21 -6.5h36l-12 -71
q-10 -5 -27.5 -10.5t-41.5 -5.5q-27 0 -45 11.5t-26 33.5q-3 9 -5.5 19.5t-1.5 22.5h-7q-33 -44 -78.5 -65.5t-99.5 -21.5zM238 78q26 0 51 10.5t46 32t37 55t25 80.5q3 19 4.5 33t2.5 25t1 20q0 37 -11 62.5t-34 38.5t-59 13q-43 0 -74.5 -18t-52 -57t-32.5 -102
q-4 -21 -6 -36t-3 -27t-1 -22q0 -55 26 -81.5t80 -26.5zM330 579q-37 0 -61.5 24t-24.5 60q0 48 31 78.5t79 30.5q36 0 59.5 -23.5t23.5 -59.5q0 -31 -13.5 -56t-37.5 -39.5t-56 -14.5zM333 628q17 0 29 7t18.5 19.5t6.5 28.5q0 18 -10.5 29.5t-28.5 11.5q-15 0 -27.5 -7.5
t-19.5 -19.5t-7 -29t11.5 -28.5t27.5 -11.5zM311 814l106 132h115v-3l-131 -129h-90z" />
    <glyph glyph-name="AEacute" unicode="&#x1fc;" horiz-adv-x="999" 
d="M-46 0l459 686h601l-18 -96h-427l18 -191h332l-17 -96h-306l18 -207h302l-17 -96h-383l-14 161h-322l-106 -161h-120zM241 255h253l-23 265q-1 8 -1.5 16.5t-1.5 18t-2 18t-1 16.5h-5q-7 -11 -15 -23t-15.5 -24t-14.5 -22zM506 736l108 132h117v-3l-132 -129h-93z" />
    <glyph glyph-name="aeacute" unicode="&#x1fd;" horiz-adv-x="894" 
d="M188 -12q-29 0 -60.5 5t-59 19t-44.5 39t-17 64q0 49 20 84t55.5 57.5t83.5 34.5t106 17t122 5l8 51q2 6 2.5 13.5t0.5 12.5q0 29 -21 46.5t-78 17.5q-44 0 -70.5 -9.5t-38.5 -25.5t-16 -37l-3 -12h-101q0 2 0.5 7t1.5 9q9 48 40 82t80 52t111 18q67 0 110.5 -16.5
t64.5 -47.5q32 31 75 47.5t99 16.5q67 0 112.5 -21t68.5 -62.5t23 -103.5q0 -22 -3 -50.5t-11 -63.5h-363q-2 -14 -3.5 -26.5t-1.5 -24.5q0 -39 12.5 -65t38.5 -38t64 -12q29 0 53 7.5t41.5 21.5t29 34.5t16.5 47.5h102q-7 -47 -27.5 -83t-51.5 -60.5t-72 -37.5t-90 -13
q-72 0 -121.5 22t-73.5 68q-29 -32 -63.5 -52t-72.5 -29t-78 -9zM200 72q33 0 62.5 9.5t53 27.5t39 42.5t20.5 54.5l6 31q-72 0 -132 -8t-95.5 -31.5t-35.5 -69.5q0 -18 9.5 -30.5t28 -19t44.5 -6.5zM501 313h254q2 12 3 22.5t1 19.5q0 36 -12 57.5t-34.5 31.5t-53.5 10
q-42 0 -73.5 -15.5t-52 -47t-32.5 -78.5zM465 591l105 132h115v-3l-130 -129h-90z" />
    <glyph glyph-name="Oslashacute" unicode="&#x1fe;" horiz-adv-x="785" 
d="M357 -12q-96 0 -163.5 30t-103.5 90t-36 148q0 25 2 48.5t6 46.5q18 107 69.5 185t133.5 120t192 42q96 0 163.5 -30t104 -90t36.5 -148q0 -23 -2 -46t-6 -46q-17 -107 -69 -186t-134.5 -121.5t-192.5 -42.5zM357 84q60 0 107 17t82 50t57 80t33 106q2 15 4 27.5t3 22.5
t1.5 19.5t0.5 18.5q0 59 -22 98.5t-64.5 59.5t-102.5 20q-59 0 -106.5 -17.5t-82.5 -50t-57 -79.5t-33 -106q-2 -15 -3.5 -27.5t-2.5 -23t-1.5 -19.5t-0.5 -18q0 -59 22 -98.5t64 -59.5t102 -20zM-1 -49l720 784h96l-720 -784h-96zM426 736l108 132h117v-3l-132 -129h-93z
" />
    <glyph glyph-name="oslashacute" unicode="&#x1ff;" horiz-adv-x="583" 
d="M252 -12q-72 0 -121 21.5t-74 65.5t-25 112q0 19 2 40t6 44q16 92 54 151t97 87.5t139 28.5q73 0 122 -21.5t73.5 -65.5t24.5 -113q0 -19 -1.5 -39.5t-6.5 -43.5q-16 -92 -53 -151t-95.5 -87.5t-141.5 -28.5zM258 74q49 0 84 19.5t57.5 59.5t32.5 101q5 20 6.5 34.5
t2 25.5t0.5 20q0 40 -12.5 66t-38.5 39t-66 13q-49 0 -83.5 -20t-57 -59.5t-34.5 -100.5q-3 -20 -5 -35t-3 -25.5t-1 -20.5q0 -40 12.5 -65.5t39.5 -38.5t66 -13zM-22 -49l554 624h74l-553 -624h-75zM296 591l106 132h114v-3l-130 -129h-90z" />
    <glyph glyph-name="uni0200" unicode="&#x200;" horiz-adv-x="695" 
d="M-35 0l386 686h141l146 -686h-114l-33 160h-320l-88 -160h-118zM224 255h247l-40 199q-3 16 -6.5 34t-7 36.5t-6 34.5t-4.5 29h-5q-10 -20 -23.5 -46.5t-26 -50.5t-20.5 -40zM304 736l-69 129l2 3h107l44 -132h-84zM456 736l-68 129l2 3h106l43 -132h-83z" />
    <glyph glyph-name="uni0201" unicode="&#x201;" 
d="M195 -12q-52 0 -90.5 21.5t-59.5 64t-21 106.5q0 20 2.5 42t6.5 47q16 94 50 153.5t83.5 87.5t111.5 28q35 0 63.5 -8.5t50.5 -25.5t35 -44h7l29 66h86l-23 -127q-7 -37 -14.5 -76.5t-14 -77t-12 -68t-8.5 -51t-3 -25.5q0 -13 8 -19.5t21 -6.5h36l-12 -71
q-10 -5 -27.5 -10.5t-41.5 -5.5q-27 0 -45 11.5t-26 33.5q-3 9 -5.5 19.5t-1.5 22.5h-7q-33 -44 -78.5 -65.5t-99.5 -21.5zM238 78q26 0 51 10.5t46 32t37 55t25 80.5q3 19 4.5 33t2.5 25t1 20q0 37 -11 62.5t-34 38.5t-59 13q-43 0 -74.5 -18t-52 -57t-32.5 -102
q-4 -21 -6 -36t-3 -27t-1 -22q0 -55 26 -81.5t80 -26.5zM367 591l-69 129l2 3h106l43 -132h-82zM215 591l-69 129l2 3h106l44 -132h-83z" />
    <glyph glyph-name="uni0202" unicode="&#x202;" horiz-adv-x="695" 
d="M-35 0l386 686h141l146 -686h-114l-33 160h-320l-88 -160h-118zM224 255h247l-40 199q-3 16 -6.5 34t-7 36.5t-6 34.5t-4.5 29h-5q-10 -20 -23.5 -46.5t-26 -50.5t-20.5 -40zM287 745q5 29 24 57t55.5 47t93.5 19t86 -19t38.5 -47t4.5 -57h-70q1 11 -4.5 22.5t-21 20
t-45.5 8.5q-28 0 -47 -8.5t-29 -20t-13 -22.5h-72z" />
    <glyph glyph-name="uni0203" unicode="&#x203;" 
d="M195 -12q-52 0 -90.5 21.5t-59.5 64t-21 106.5q0 20 2.5 42t6.5 47q16 94 50 153.5t83.5 87.5t111.5 28q35 0 63.5 -8.5t50.5 -25.5t35 -44h7l29 66h86l-23 -127q-7 -37 -14.5 -76.5t-14 -77t-12 -68t-8.5 -51t-3 -25.5q0 -13 8 -19.5t21 -6.5h36l-12 -71
q-10 -5 -27.5 -10.5t-41.5 -5.5q-27 0 -45 11.5t-26 33.5q-3 9 -5.5 19.5t-1.5 22.5h-7q-33 -44 -78.5 -65.5t-99.5 -21.5zM238 78q26 0 51 10.5t46 32t37 55t25 80.5q3 19 4.5 33t2.5 25t1 20q0 37 -11 62.5t-34 38.5t-59 13q-43 0 -74.5 -18t-52 -57t-32.5 -102
q-4 -21 -6 -36t-3 -27t-1 -22q0 -55 26 -81.5t80 -26.5zM346 723q51 0 80.5 -14.5t42 -37.5t12.5 -49q0 -6 -0.5 -11.5t-1.5 -10.5h-70q0 18 -9 29.5t-25 17t-37 5.5q-29 0 -47.5 -8.5t-28.5 -20.5t-13 -23h-72q6 29 24.5 57t54 47t90.5 19z" />
    <glyph glyph-name="uni0204" unicode="&#x204;" horiz-adv-x="674" 
d="M36 0l120 686h532l-17 -96h-419l-34 -191h376l-16 -96h-378l-36 -207h427l-17 -96h-538zM299 736l-69 129l2 3h106l44 -132h-83zM451 736l-69 129l2 3h106l43 -132h-82z" />
    <glyph glyph-name="uni0205" unicode="&#x205;" horiz-adv-x="554" 
d="M257 -12q-74 0 -124 21.5t-74.5 66t-24.5 111.5q0 27 3 55t8 53q14 70 46.5 124.5t87 86.5t137.5 32q69 0 115 -21.5t69 -64t23 -105.5q0 -23 -3.5 -52t-11.5 -58h-364q-2 -14 -3 -25.5t-1 -23.5q0 -39 12.5 -65t38.5 -38t66 -12q25 0 47 6t40 19t31.5 33.5t19.5 50.5
h102q-9 -50 -30.5 -86.5t-53 -60t-71 -35.5t-85.5 -12zM158 313h256q2 12 3 22.5t1 19.5q0 34 -11.5 56t-34.5 32.5t-55 10.5q-41 0 -72.5 -16t-52.5 -47.5t-34 -77.5zM371 591l-69 129l2 3h105l44 -132h-82zM219 591l-69 129l2 3h106l43 -132h-82z" />
    <glyph glyph-name="uni0206" unicode="&#x206;" horiz-adv-x="674" 
d="M36 0l120 686h532l-17 -96h-419l-34 -191h376l-16 -96h-378l-36 -207h427l-17 -96h-538zM281 745q6 29 25 57t55 47t93 19t86 -19t38.5 -47t4.5 -57h-69q0 11 -5.5 22.5t-20.5 20t-45 8.5q-29 0 -48 -8.5t-28.5 -20t-13.5 -22.5h-72z" />
    <glyph glyph-name="uni0207" unicode="&#x207;" horiz-adv-x="554" 
d="M257 -12q-74 0 -124 21.5t-74.5 66t-24.5 111.5q0 27 3 55t8 53q14 70 46.5 124.5t87 86.5t137.5 32q69 0 115 -21.5t69 -64t23 -105.5q0 -23 -3.5 -52t-11.5 -58h-364q-2 -14 -3 -25.5t-1 -23.5q0 -39 12.5 -65t38.5 -38t66 -12q25 0 47 6t40 19t31.5 33.5t19.5 50.5
h102q-9 -50 -30.5 -86.5t-53 -60t-71 -35.5t-85.5 -12zM158 313h256q2 12 3 22.5t1 19.5q0 34 -11.5 56t-34.5 32.5t-55 10.5q-41 0 -72.5 -16t-52.5 -47.5t-34 -77.5zM350 723q51 0 80.5 -14.5t42 -37.5t12.5 -49q0 -6 -0.5 -11.5t-1.5 -10.5h-71q0 18 -9 29.5t-24.5 17
t-37.5 5.5q-29 0 -47.5 -8.5t-28.5 -20.5t-13 -23h-71q5 29 24 57t54.5 47t90.5 19z" />
    <glyph glyph-name="uni0208" unicode="&#x208;" horiz-adv-x="274" 
d="M35 0l121 686h112l-121 -686h-112zM90 736l-69 129l2 3h107l43 -132h-83zM242 736l-69 129l2 3h106l44 -132h-83z" />
    <glyph glyph-name="uni0209" unicode="&#x209;" horiz-adv-x="238" 
d="M21 0l93 526h104l-93 -526h-104zM217 591l-69 129l2 3h106l43 -132h-82zM65 591l-69 129l2 3h106l44 -132h-83z" />
    <glyph glyph-name="uni020A" unicode="&#x20a;" horiz-adv-x="274" 
d="M35 0l121 686h112l-121 -686h-112zM72 745q6 29 25 57t55.5 47t92.5 19q57 0 86 -19t38.5 -47t4.5 -57h-69q0 11 -5.5 22.5t-20.5 20t-45 8.5q-29 0 -48 -8.5t-28.5 -20t-13.5 -22.5h-72z" />
    <glyph glyph-name="uni020B" unicode="&#x20b;" horiz-adv-x="238" 
d="M21 0l93 526h104l-93 -526h-104zM196 723q51 0 80.5 -14.5t42 -37.5t12.5 -49q0 -6 -0.5 -11.5t-1.5 -10.5h-70q0 18 -9 29.5t-25 17t-37 5.5q-29 0 -47.5 -8.5t-28.5 -20.5t-13 -23h-72q6 29 24.5 57t54 47t90.5 19z" />
    <glyph glyph-name="uni020C" unicode="&#x20c;" horiz-adv-x="785" 
d="M357 -12q-96 0 -163.5 30t-103.5 90t-36 148q0 25 2 48.5t6 46.5q18 107 69.5 185t133.5 120t192 42q96 0 163.5 -30t104 -90t36.5 -148q0 -23 -2 -46t-6 -46q-17 -107 -69 -186t-134.5 -121.5t-192.5 -42.5zM357 84q60 0 107 17t82 50t57 80t33 106q2 15 4 27.5t3 22.5
t1.5 19.5t0.5 18.5q0 59 -22 98.5t-64.5 59.5t-102.5 20q-59 0 -106.5 -17.5t-82.5 -50t-57 -79.5t-33 -106q-2 -15 -3.5 -27.5t-2.5 -23t-1.5 -19.5t-0.5 -18q0 -59 22 -98.5t64 -59.5t102 -20zM345 736l-69 129l2 3h106l44 -132h-83zM497 736l-69 129l2 3h106l43 -132h-82
z" />
    <glyph glyph-name="uni020D" unicode="&#x20d;" horiz-adv-x="583" 
d="M252 -12q-72 0 -121 21.5t-74 65.5t-25 112q0 19 2 40t6 44q16 92 54 151t97 87.5t139 28.5q73 0 122 -21.5t73.5 -65.5t24.5 -113q0 -19 -1.5 -39.5t-6.5 -43.5q-16 -92 -53 -151t-95.5 -87.5t-141.5 -28.5zM258 74q49 0 84 19.5t57.5 59.5t32.5 101q5 20 6.5 34.5
t2 25.5t0.5 20q0 40 -12.5 66t-38.5 39t-66 13q-49 0 -83.5 -20t-57 -59.5t-34.5 -100.5q-3 -20 -5 -35t-3 -25.5t-1 -20.5q0 -40 12.5 -65.5t39.5 -38.5t66 -13zM390 591l-69 129l2 3h106l43 -132h-82zM238 591l-69 129l2 3h106l44 -132h-83z" />
    <glyph glyph-name="uni020E" unicode="&#x20e;" horiz-adv-x="785" 
d="M357 -12q-96 0 -163.5 30t-103.5 90t-36 148q0 25 2 48.5t6 46.5q18 107 69.5 185t133.5 120t192 42q96 0 163.5 -30t104 -90t36.5 -148q0 -23 -2 -46t-6 -46q-17 -107 -69 -186t-134.5 -121.5t-192.5 -42.5zM357 84q60 0 107 17t82 50t57 80t33 106q2 15 4 27.5t3 22.5
t1.5 19.5t0.5 18.5q0 59 -22 98.5t-64.5 59.5t-102.5 20q-59 0 -106.5 -17.5t-82.5 -50t-57 -79.5t-33 -106q-2 -15 -3.5 -27.5t-2.5 -23t-1.5 -19.5t-0.5 -18q0 -59 22 -98.5t64 -59.5t102 -20zM327 745q6 29 25 57t55 47t93 19t86 -19t38.5 -47t4.5 -57h-69
q0 11 -5.5 22.5t-20.5 20t-45 8.5q-29 0 -48 -8.5t-28.5 -20t-13.5 -22.5h-72z" />
    <glyph glyph-name="uni020F" unicode="&#x20f;" horiz-adv-x="583" 
d="M252 -12q-72 0 -121 21.5t-74 65.5t-25 112q0 19 2 40t6 44q16 92 54 151t97 87.5t139 28.5q73 0 122 -21.5t73.5 -65.5t24.5 -113q0 -19 -1.5 -39.5t-6.5 -43.5q-16 -92 -53 -151t-95.5 -87.5t-141.5 -28.5zM258 74q49 0 84 19.5t57.5 59.5t32.5 101q5 20 6.5 34.5
t2 25.5t0.5 20q0 40 -12.5 66t-38.5 39t-66 13q-49 0 -83.5 -20t-57 -59.5t-34.5 -100.5q-3 -20 -5 -35t-3 -25.5t-1 -20.5q0 -40 12.5 -65.5t39.5 -38.5t66 -13zM369 723q51 0 80.5 -14.5t42 -37.5t12.5 -49q0 -6 -0.5 -11.5t-1.5 -10.5h-70q0 18 -9.5 29.5t-25 17
t-36.5 5.5q-30 0 -48.5 -8.5t-28 -20.5t-13.5 -23h-71q6 29 24.5 57t54 47t90.5 19z" />
    <glyph glyph-name="uni0210" unicode="&#x210;" horiz-adv-x="722" 
d="M35 0l121 686h344q69 0 114 -20.5t67 -57t22 -87.5q0 -62 -19.5 -109t-55 -79t-84.5 -50l94 -283h-118l-85 264h-241l-47 -264h-112zM211 359h235q40 0 72 18t51 51t19 79q0 40 -24 61.5t-73 21.5h-239zM326 736l-69 129l2 3h107l44 -132h-84zM478 736l-68 129l2 3h105
l44 -132h-83z" />
    <glyph glyph-name="uni0211" unicode="&#x211;" horiz-adv-x="346" 
d="M21 0l93 526h82l-3 -84h6q13 24 31 45.5t43 36t59 14.5q17 0 30.5 -3t19.5 -5l-16 -98h-36q-32 0 -58.5 -10t-46 -30t-32.5 -48.5t-19 -65.5l-49 -278h-104zM300 591l-69 129l2 3h105l44 -132h-82zM148 591l-69 129l2 3h106l43 -132h-82z" />
    <glyph glyph-name="uni0212" unicode="&#x212;" horiz-adv-x="722" 
d="M35 0l121 686h344q69 0 114 -20.5t67 -57t22 -87.5q0 -62 -19.5 -109t-55 -79t-84.5 -50l94 -283h-118l-85 264h-241l-47 -264h-112zM211 359h235q40 0 72 18t51 51t19 79q0 40 -24 61.5t-73 21.5h-239zM309 745q5 29 24 57t55.5 47t92.5 19q57 0 86.5 -19t39 -47
t4.5 -57h-70q0 11 -5 22.5t-20.5 20t-45.5 8.5q-28 0 -47 -8.5t-29 -20t-13 -22.5h-72z" />
    <glyph glyph-name="uni0213" unicode="&#x213;" horiz-adv-x="346" 
d="M21 0l93 526h82l-3 -84h6q13 24 31 45.5t43 36t59 14.5q17 0 30.5 -3t19.5 -5l-16 -98h-36q-32 0 -58.5 -10t-46 -30t-32.5 -48.5t-19 -65.5l-49 -278h-104zM278 723q52 0 81 -14.5t42 -37.5t13 -49q0 -6 -0.5 -11.5t-1.5 -10.5h-71q0 18 -9 29.5t-25 17t-37 5.5
q-29 0 -47.5 -8.5t-28.5 -20.5t-13 -23h-71q5 29 23.5 57t54.5 47t90 19z" />
    <glyph glyph-name="uni0214" unicode="&#x214;" horiz-adv-x="728" 
d="M330 -12q-123 0 -190.5 51.5t-67.5 156.5q0 15 2 33t5 36l74 421h111l-75 -428q-2 -9 -4 -23.5t-2 -25.5q0 -63 38 -94.5t110 -31.5q83 0 137 43t69 128l76 432h112l-76 -429q-16 -92 -57.5 -152t-107 -88.5t-154.5 -28.5zM323 736l-69 129l2 3h107l43 -132h-83zM475 736
l-68 129l2 3h105l44 -132h-83z" />
    <glyph glyph-name="uni0215" unicode="&#x215;" horiz-adv-x="572" 
d="M190 -12q-42 0 -76.5 13t-54.5 42t-20 77q0 16 2.5 33.5t6.5 37.5l59 335h105l-58 -330q-2 -13 -4 -24.5t-2 -21.5q0 -27 10.5 -42.5t29 -22t41.5 -6.5q28 0 55 10t49.5 30t39 49.5t22.5 67.5l51 290h105l-93 -526h-84l3 75h-7q-22 -27 -51 -46.5t-61.5 -30t-67.5 -10.5z
M381 591l-69 129l2 3h106l43 -132h-82zM229 591l-69 129l2 3h106l44 -132h-83z" />
    <glyph glyph-name="uni0216" unicode="&#x216;" horiz-adv-x="728" 
d="M330 -12q-123 0 -190.5 51.5t-67.5 156.5q0 15 2 33t5 36l74 421h111l-75 -428q-2 -9 -4 -23.5t-2 -25.5q0 -63 38 -94.5t110 -31.5q83 0 137 43t69 128l76 432h112l-76 -429q-16 -92 -57.5 -152t-107 -88.5t-154.5 -28.5zM305 745q6 29 25 57t55.5 47t92.5 19
q57 0 86.5 -19t38.5 -47t4 -57h-69q0 11 -5.5 22.5t-20.5 20t-45 8.5q-28 0 -47 -8.5t-29 -20t-13 -22.5h-73z" />
    <glyph glyph-name="uni0217" unicode="&#x217;" horiz-adv-x="572" 
d="M190 -12q-42 0 -76.5 13t-54.5 42t-20 77q0 16 2.5 33.5t6.5 37.5l59 335h105l-58 -330q-2 -13 -4 -24.5t-2 -21.5q0 -27 10.5 -42.5t29 -22t41.5 -6.5q28 0 55 10t49.5 30t39 49.5t22.5 67.5l51 290h105l-93 -526h-84l3 75h-7q-22 -27 -51 -46.5t-61.5 -30t-67.5 -10.5z
M360 723q51 0 80.5 -14.5t42 -37.5t12.5 -49q0 -6 -0.5 -11.5t-1.5 -10.5h-70q0 18 -9.5 29.5t-25 17t-36.5 5.5q-29 0 -48 -8.5t-28.5 -20.5t-13.5 -23h-71q6 29 24.5 57t54 47t90.5 19z" />
    <glyph glyph-name="uni0218" unicode="&#x218;" horiz-adv-x="670" 
d="M309 -12q-59 0 -110 10t-89.5 30.5t-59.5 53t-21 77.5q0 14 2 30.5t6 29.5h111q-2 -9 -4.5 -21t-2.5 -21q0 -32 20 -53t56 -30.5t84 -9.5q47 0 82 7.5t59 22t36 35t12 45.5t-14.5 42.5t-38.5 30.5t-54.5 23t-63.5 19q-38 12 -76 25.5t-69.5 34.5t-50 51t-18.5 74
q0 53 22.5 91t61.5 63t90 37.5t108 12.5q56 0 102.5 -10t81.5 -29.5t54 -50t19 -71.5q0 -9 -1 -21t-4 -28h-111q3 11 4 18t1 12q0 41 -37.5 63t-105.5 22q-49 0 -88 -11t-61 -31.5t-22 -51.5q0 -21 11.5 -36t32 -26t46.5 -20.5t55 -17.5q41 -13 83.5 -27t78.5 -35t58 -53.5
t22 -79.5q0 -61 -24.5 -104t-66.5 -70t-95.5 -39.5t-110.5 -12.5zM175 -300l8 45q30 0 47.5 19t22.5 46h-49l19 108h107l-16 -86q-8 -47 -29 -76.5t-49.5 -42.5t-60.5 -13z" />
    <glyph glyph-name="uni0219" unicode="&#x219;" horiz-adv-x="524" 
d="M227 -12q-52 0 -92 9.5t-67.5 27t-41 42.5t-13.5 55q0 12 2.5 23t4.5 19h102q-2 -6 -3 -13t-1 -11q0 -25 14.5 -40.5t40 -22t57.5 -6.5q24 0 46.5 4.5t40.5 13.5t28 24t10 37q0 19 -11.5 31.5t-30.5 21t-43.5 15.5t-51.5 15t-53.5 18t-48 24.5t-34.5 37t-13 54.5
q0 42 17.5 74t48.5 53.5t72 32.5t87 11q44 0 80.5 -8t63 -24t41 -38.5t14.5 -51.5q0 -14 -2.5 -26.5t-4.5 -16.5h-101q1 6 1.5 11t0.5 9q0 22 -11.5 35.5t-32.5 20t-51 6.5q-27 0 -47.5 -4.5t-35.5 -13.5t-23 -22t-8 -29q0 -22 18 -34.5t46 -20.5t61 -19q29 -9 57.5 -19
t52.5 -24.5t38 -38t14 -58.5q0 -49 -18.5 -84t-51.5 -57t-76 -32.5t-92 -10.5zM110 -300l8 45q30 0 48 19t22 46h-49l20 108h106l-15 -86q-9 -47 -29.5 -76.5t-49 -42.5t-61.5 -13z" />
    <glyph glyph-name="uni021A" unicode="&#x21a;" horiz-adv-x="612" 
d="M204 0l103 590h-227l17 96h567l-16 -96h-229l-104 -590h-111zM147 -300l8 45q30 0 47.5 19t22.5 46h-49l19 108h107l-16 -86q-8 -47 -29 -76.5t-49.5 -42.5t-60.5 -13z" />
    <glyph glyph-name="uni021B" unicode="&#x21b;" horiz-adv-x="305" 
d="M157 -12q-39 0 -60.5 13t-30.5 33.5t-9 46.5q0 8 1 15.5t2 15.5l57 328h-66l15 86h68l45 147h82l-26 -147h96l-15 -86h-95l-54 -306q-1 -4 -2.5 -14.5t-1.5 -13.5q0 -15 9 -23.5t28 -8.5h52l-13 -70q-10 -4 -24 -7.5t-29 -6t-29 -2.5zM27 -300l8 45q30 0 48 19t22 46h-49
l20 108h106l-15 -86q-8 -47 -29 -76.5t-49.5 -42.5t-61.5 -13z" />
    <glyph glyph-name="uni022A" unicode="&#x22a;" horiz-adv-x="785" 
d="M357 -12q-96 0 -163.5 30t-103.5 90t-36 148q0 25 2 48.5t6 46.5q18 107 69.5 185t133.5 120t192 42q96 0 163.5 -30t104 -90t36.5 -148q0 -23 -2 -46t-6 -46q-17 -107 -69 -186t-134.5 -121.5t-192.5 -42.5zM357 84q60 0 107 17t82 50t57 80t33 106q2 15 4 27.5t3 22.5
t1.5 19.5t0.5 18.5q0 59 -22 98.5t-64.5 59.5t-102.5 20q-59 0 -106.5 -17.5t-82.5 -50t-57 -79.5t-33 -106q-2 -15 -3.5 -27.5t-2.5 -23t-1.5 -19.5t-0.5 -18q0 -59 22 -98.5t64 -59.5t102 -20zM336 766l17 102h98l-18 -102h-97zM530 766l18 102h98l-18 -102h-98zM360 940
l13 75h305l-13 -75h-305z" />
    <glyph glyph-name="uni022B" unicode="&#x22b;" horiz-adv-x="583" 
d="M252 -12q-72 0 -121 21.5t-74 65.5t-25 112q0 19 2 40t6 44q16 92 54 151t97 87.5t139 28.5q73 0 122 -21.5t73.5 -65.5t24.5 -113q0 -19 -1.5 -39.5t-6.5 -43.5q-16 -92 -53 -151t-95.5 -87.5t-141.5 -28.5zM258 74q49 0 84 19.5t57.5 59.5t32.5 101q5 20 6.5 34.5
t2 25.5t0.5 20q0 40 -12.5 66t-38.5 39t-66 13q-49 0 -83.5 -20t-57 -59.5t-34.5 -100.5q-3 -20 -5 -35t-3 -25.5t-1 -20.5q0 -40 12.5 -65.5t39.5 -38.5t66 -13zM208 621l17 101h98l-18 -101h-97zM404 621l18 101h98l-18 -101h-98zM235 801l12 73h302l-13 -73h-301z" />
    <glyph glyph-name="uni022C" unicode="&#x22c;" horiz-adv-x="785" 
d="M357 -12q-96 0 -163.5 30t-103.5 90t-36 148q0 25 2 48.5t6 46.5q18 107 69.5 185t133.5 120t192 42q96 0 163.5 -30t104 -90t36.5 -148q0 -23 -2 -46t-6 -46q-17 -107 -69 -186t-134.5 -121.5t-192.5 -42.5zM357 84q60 0 107 17t82 50t57 80t33 106q2 15 4 27.5t3 22.5
t1.5 19.5t0.5 18.5q0 59 -22 98.5t-64.5 59.5t-102.5 20q-59 0 -106.5 -17.5t-82.5 -50t-57 -79.5t-33 -106q-2 -15 -3.5 -27.5t-2.5 -23t-1.5 -19.5t-0.5 -18q0 -59 22 -98.5t64 -59.5t102 -20zM318 759q6 29 19.5 53t36 39t53.5 15q26 0 47.5 -8t42.5 -17t44 -9
q14 0 23.5 8t15.5 26h62q-5 -29 -19.5 -53.5t-36.5 -39t-54 -14.5q-25 0 -46.5 9t-42 17.5t-44.5 8.5q-14 0 -24 -8.5t-15 -26.5h-62zM357 925l13 75h305l-13 -75h-305z" />
    <glyph glyph-name="uni022D" unicode="&#x22d;" horiz-adv-x="583" 
d="M252 -12q-72 0 -121 21.5t-74 65.5t-25 112q0 19 2 40t6 44q16 92 54 151t97 87.5t139 28.5q73 0 122 -21.5t73.5 -65.5t24.5 -113q0 -19 -1.5 -39.5t-6.5 -43.5q-16 -92 -53 -151t-95.5 -87.5t-141.5 -28.5zM258 74q49 0 84 19.5t57.5 59.5t32.5 101q5 20 6.5 34.5
t2 25.5t0.5 20q0 40 -12.5 66t-38.5 39t-66 13q-49 0 -83.5 -20t-57 -59.5t-34.5 -100.5q-3 -20 -5 -35t-3 -25.5t-1 -20.5q0 -40 12.5 -65.5t39.5 -38.5t66 -13zM186 614q6 29 19.5 53.5t35.5 39.5t53 15q26 0 48.5 -8.5t43 -17.5t42.5 -9q15 0 24.5 8.5t14.5 26.5h63
q-6 -29 -20 -54t-36.5 -39.5t-53.5 -14.5q-25 0 -47 9t-42.5 18t-42.5 9q-15 0 -25 -9t-16 -27h-61zM233 791l12 73h302l-12 -73h-302z" />
    <glyph glyph-name="uni0230" unicode="&#x230;" horiz-adv-x="785" 
d="M357 -12q-96 0 -163.5 30t-103.5 90t-36 148q0 25 2 48.5t6 46.5q18 107 69.5 185t133.5 120t192 42q96 0 163.5 -30t104 -90t36.5 -148q0 -23 -2 -46t-6 -46q-17 -107 -69 -186t-134.5 -121.5t-192.5 -42.5zM357 84q60 0 107 17t82 50t57 80t33 106q2 15 4 27.5t3 22.5
t1.5 19.5t0.5 18.5q0 59 -22 98.5t-64.5 59.5t-102.5 20q-59 0 -106.5 -17.5t-82.5 -50t-57 -79.5t-33 -106q-2 -15 -3.5 -27.5t-2.5 -23t-1.5 -19.5t-0.5 -18q0 -59 22 -98.5t64 -59.5t102 -20zM428 766l20 108h106l-19 -108h-107zM359 940l13 75h305l-13 -75h-305z" />
    <glyph glyph-name="uni0231" unicode="&#x231;" horiz-adv-x="583" 
d="M252 -12q-72 0 -121 21.5t-74 65.5t-25 112q0 19 2 40t6 44q16 92 54 151t97 87.5t139 28.5q73 0 122 -21.5t73.5 -65.5t24.5 -113q0 -19 -1.5 -39.5t-6.5 -43.5q-16 -92 -53 -151t-95.5 -87.5t-141.5 -28.5zM258 74q49 0 84 19.5t57.5 59.5t32.5 101q5 20 6.5 34.5
t2 25.5t0.5 20q0 40 -12.5 66t-38.5 39t-66 13q-49 0 -83.5 -20t-57 -59.5t-34.5 -100.5q-3 -20 -5 -35t-3 -25.5t-1 -20.5q0 -40 12.5 -65.5t39.5 -38.5t66 -13zM301 615l17 105h106l-18 -105h-105zM235 801l13 73h301l-12 -73h-302z" />
    <glyph glyph-name="uni0232" unicode="&#x232;" horiz-adv-x="666" 
d="M232 0l50 282l-197 404h115l149 -305h6l253 305h123l-338 -404l-49 -282h-112zM268 766l13 75h305l-13 -75h-305z" />
    <glyph glyph-name="uni0233" unicode="&#x233;" horiz-adv-x="516" 
d="M52 -182q-33 0 -53 4.5t-25 5.5l12 76h52q24 0 46.5 8.5t43.5 30t39 59.5l-110 524h104l52 -253q5 -22 10 -51.5t9.5 -58.5t6.5 -51h5q7 16 15.5 36t18 41t18.5 40.5t16 33.5l131 263h109l-263 -506q-22 -43 -46 -79.5t-52 -64t-62 -43t-77 -15.5zM167 627l13 73h301
l-12 -73h-302z" />
    <glyph glyph-name="uni0237" unicode="&#x237;" horiz-adv-x="236" 
d="M-20 -182q-14 0 -29.5 2t-29 5t-22.5 6l12 73h47q23 0 36 11.5t17 33.5l102 577h104l-102 -582q-6 -32 -20.5 -60.5t-42 -47t-72.5 -18.5z" />
    <glyph glyph-name="uni0259" unicode="&#x259;" horiz-adv-x="563" 
d="M242 -12q-68 0 -114 21.5t-69 64t-23 105.5q0 23 3.5 52t11.5 58h364q2 14 3 26t1 23q0 41 -12.5 66t-38 37t-66.5 12q-25 0 -47 -6t-40 -19t-31 -33.5t-20 -50.5h-102q9 49 30.5 85.5t53.5 60.5t71.5 36t85.5 12q73 0 122.5 -21.5t74 -65.5t24.5 -112q0 -27 -2.5 -54
t-7.5 -52q-14 -68 -47 -124t-88 -88.5t-137 -32.5zM242 72q42 0 73 16t53 47.5t33 77.5h-256q-2 -12 -3 -22t-1 -20q0 -34 12 -56t34.5 -32.5t54.5 -10.5z" />
    <glyph glyph-name="uni0272" unicode="&#x272;" 
d="M-20 -182q-13 0 -28.5 2t-29 5t-23.5 6l13 73h46q23 0 36.5 11.5t17.5 33.5l101 577h84l-3 -75h7q23 27 52 46.5t62 30t66 10.5q43 0 76.5 -13t53.5 -42t20 -77q0 -16 -2 -33.5t-6 -37.5l-59 -335h-104l58 329q2 13 3.5 25t1.5 22q0 27 -10 42.5t-28 22t-42 6.5
q-28 0 -55.5 -10.5t-50 -30.5t-39 -50t-22.5 -69l-61 -343q-4 -24 -13 -46.5t-24.5 -40.5t-39 -28.5t-58.5 -10.5z" />
    <glyph glyph-name="uni02B9" unicode="&#x2b9;" horiz-adv-x="173" 
d="M46 526l92 197h116v-3l-117 -194h-91z" />
    <glyph glyph-name="uni02BA" unicode="&#x2ba;" horiz-adv-x="341" 
d="M46 526l92 197h116v-3l-117 -194h-91zM214 526l92 197h116v-3l-117 -194h-91z" />
    <glyph glyph-name="uni02BC" unicode="&#x2bc;" horiz-adv-x="116" 
d="M51 552l8 45q30 0 47.5 19t22.5 46h-50l19 108h107l-15 -86q-8 -47 -29 -76.5t-49 -42.5t-61 -13z" />
    <glyph glyph-name="circumflex" unicode="&#x2c6;" horiz-adv-x="309" 
d="M58 591l130 132h98l81 -132h-90l-67 106h50l-106 -106h-96z" />
    <glyph glyph-name="caron" unicode="&#x2c7;" horiz-adv-x="309" 
d="M390 723l-130 -132h-98l-81 132h90l67 -106h-50l106 106h96z" />
    <glyph glyph-name="uni02C9" unicode="&#x2c9;" horiz-adv-x="423" 
d="M61 605l14 81h423l-14 -81h-423z" />
    <glyph glyph-name="breve" unicode="&#x2d8;" horiz-adv-x="302" 
d="M214 600q-50 0 -80 14.5t-42.5 37.5t-12.5 49q0 5 0.5 10.5t1.5 11.5h71q0 -18 9 -30t25 -17.5t36 -5.5q30 0 48.5 9t28.5 21.5t13 22.5h71q-5 -29 -24 -57.5t-54 -47t-91 -18.5z" />
    <glyph glyph-name="dotaccent" unicode="&#x2d9;" horiz-adv-x="107" 
d="M63 615l18 105h106l-18 -105h-106z" />
    <glyph glyph-name="ring" unicode="&#x2da;" horiz-adv-x="193" 
d="M159 579q-38 0 -62.5 24t-24.5 60q0 48 31 78.5t80 30.5q35 0 58.5 -23.5t23.5 -59.5q0 -31 -13.5 -56t-37.5 -39.5t-55 -14.5zM162 628q16 0 28 7t19 19.5t7 28.5q0 18 -11 29.5t-28 11.5q-16 0 -28.5 -7.5t-19.5 -19.5t-7 -29t11.5 -28.5t28.5 -11.5z" />
    <glyph glyph-name="ogonek" unicode="&#x2db;" horiz-adv-x="176" 
d="M25 -178q-21 0 -42 6.5t-34 22t-13 41.5q0 28 11 49.5t28 39t34 31.5h69l-1 -4q-15 -13 -32.5 -35.5t-17.5 -49.5q0 -16 10 -27.5t33 -11.5h39l-8 -48q-18 -7 -39 -10.5t-37 -3.5z" />
    <glyph glyph-name="tilde" unicode="&#x2dc;" horiz-adv-x="325" 
d="M61 614q6 29 19.5 53.5t36 39.5t53.5 15q26 0 48 -8.5t42.5 -17.5t43.5 -9q15 0 24 8.5t15 26.5h62q-5 -29 -19.5 -54t-36.5 -39.5t-54 -14.5q-25 0 -46.5 9t-42 18t-43.5 9q-14 0 -24.5 -9t-15.5 -27h-62z" />
    <glyph glyph-name="hungarumlaut" unicode="&#x2dd;" horiz-adv-x="356" 
d="M58 591l92 132h116v-3l-117 -129h-91zM228 591l92 132h117v-3l-116 -129h-93z" />
    <glyph glyph-name="gravecomb" unicode="&#x300;" horiz-adv-x="0" 
d="M162 591l-81 129l1 3h106l59 -132h-85z" />
    <glyph glyph-name="acutecomb" unicode="&#x301;" horiz-adv-x="0" 
d="M58 591l106 132h114v-3l-130 -129h-90z" />
    <glyph glyph-name="uni0302" unicode="&#x302;" horiz-adv-x="0" 
d="M58 591l130 132h98l81 -132h-90l-67 106h50l-106 -106h-96z" />
    <glyph glyph-name="tildecomb" unicode="&#x303;" horiz-adv-x="0" 
d="M61 614q6 29 19.5 53.5t36 39.5t53.5 15q26 0 48 -8.5t42.5 -17.5t43.5 -9q15 0 24 8.5t15 26.5h62q-5 -29 -19.5 -54t-36.5 -39.5t-54 -14.5q-25 0 -46.5 9t-42 18t-43.5 9q-14 0 -24.5 -9t-15.5 -27h-62z" />
    <glyph glyph-name="uni0304" unicode="&#x304;" horiz-adv-x="0" 
d="M65 627l12 73h302l-13 -73h-301z" />
    <glyph glyph-name="uni0306" unicode="&#x306;" horiz-adv-x="0" 
d="M214 600q-50 0 -80 14.5t-42.5 37.5t-12.5 49q0 5 0.5 10.5t1.5 11.5h71q0 -18 9 -30t25 -17.5t36 -5.5q30 0 48.5 9t28.5 21.5t13 22.5h71q-5 -29 -24 -57.5t-54 -47t-91 -18.5z" />
    <glyph glyph-name="uni0307" unicode="&#x307;" horiz-adv-x="0" 
d="M63 615l18 105h106l-18 -105h-106z" />
    <glyph glyph-name="uni0308" unicode="&#x308;" horiz-adv-x="0" 
d="M63 621l18 101h98l-18 -101h-98zM260 621l17 101h99l-18 -101h-98z" />
    <glyph glyph-name="hookabovecomb" unicode="&#x309;" horiz-adv-x="0" 
d="M107 591l10 58h14q19 0 28 5.5t9 17.5q0 9 -8 12t-23 3h-62l7 40q12 3 26 4.5t28.5 2.5t24.5 1q16 0 32 -2.5t30 -7.5t22.5 -15t8.5 -25q0 -21 -12 -35t-31 -22t-41 -10l-5 -27h-58z" />
    <glyph glyph-name="uni030A" unicode="&#x30a;" horiz-adv-x="0" 
d="M159 579q-38 0 -62.5 24t-24.5 60q0 48 31 78.5t80 30.5q35 0 58.5 -23.5t23.5 -59.5q0 -31 -13.5 -56t-37.5 -39.5t-55 -14.5zM162 628q16 0 28 7t19 19.5t7 28.5q0 18 -11 29.5t-28 11.5q-16 0 -28.5 -7.5t-19.5 -19.5t-7 -29t11.5 -28.5t28.5 -11.5z" />
    <glyph glyph-name="uni030B" unicode="&#x30b;" horiz-adv-x="0" 
d="M58 591l92 132h116v-3l-117 -129h-91zM228 591l92 132h117v-3l-116 -129h-93z" />
    <glyph glyph-name="uni030C" unicode="&#x30c;" horiz-adv-x="0" 
d="M390 723l-130 -132h-98l-81 132h90l67 -106h-50l106 106h96z" />
    <glyph glyph-name="uni030F" unicode="&#x30f;" horiz-adv-x="0" 
d="M302 591l-69 129l2 3h105l44 -132h-82zM150 591l-69 129l2 3h106l43 -132h-82z" />
    <glyph glyph-name="uni0311" unicode="&#x311;" horiz-adv-x="0" 
d="M228 723q51 0 80.5 -14.5t42 -37.5t12.5 -49q0 -6 -0.5 -11.5t-1.5 -10.5h-70q0 18 -9 29.5t-25 17t-37 5.5q-29 0 -47.5 -8.5t-28.5 -20.5t-13 -23h-72q6 29 24.5 57t54 47t90.5 19z" />
    <glyph glyph-name="uni0312" unicode="&#x312;" horiz-adv-x="0" 
d="M218 841l-8 -45q-29 0 -47 -19t-23 -46h50l-20 -108h-107l16 86q9 47 29.5 76.5t49 42.5t60.5 13z" />
    <glyph glyph-name="uni0313" unicode="&#x313;" horiz-adv-x="0" 
d="M51 550l8 45q30 0 47.5 19t22.5 46h-50l20 108h107l-16 -86q-8 -47 -29 -76.5t-49.5 -42.5t-60.5 -13z" />
    <glyph glyph-name="uni031B" unicode="&#x31b;" horiz-adv-x="0" 
d="M29 428l10 56q58 0 98.5 24t47.5 61h-59l21 117h132l-14 -77q-10 -57 -42 -98t-81 -62t-113 -21z" />
    <glyph glyph-name="dotbelowcomb" unicode="&#x323;" horiz-adv-x="0" 
d="M-79 -190l18 105h106l-18 -105h-106z" />
    <glyph glyph-name="uni0324" unicode="&#x324;" horiz-adv-x="0" 
d="M-78 -183l17 101h98l-18 -101h-97zM118 -183l18 101h98l-18 -101h-98z" />
    <glyph glyph-name="uni0326" unicode="&#x326;" horiz-adv-x="0" 
d="M-99 -300l8 45q30 0 47.5 19t22.5 46h-50l20 108h107l-16 -86q-8 -47 -29 -76.5t-49.5 -42.5t-60.5 -13z" />
    <glyph glyph-name="uni0327" unicode="&#x327;" horiz-adv-x="0" 
d="M18 -179q-23 0 -48.5 2t-46.5 6l9 44h91q24 0 36.5 7t12.5 25q0 9 -8 13.5t-29 4.5h-47l31 88h68l-15 -47q35 -2 60 -13.5t25 -40.5q0 -27 -13.5 -44.5t-34.5 -27t-45 -13.5t-46 -4z" />
    <glyph glyph-name="uni0328" unicode="&#x328;" horiz-adv-x="0" 
d="M25 -178q-21 0 -42 6.5t-34 22t-13 41.5q0 28 11 49.5t28 39t34 31.5h69l-1 -4q-15 -13 -32.5 -35.5t-17.5 -49.5q0 -16 10 -27.5t33 -11.5h39l-8 -48q-18 -7 -39 -10.5t-37 -3.5z" />
    <glyph glyph-name="uni032E" unicode="&#x32e;" horiz-adv-x="0" 
d="M72 -206q-50 0 -80 15t-42.5 38t-12.5 49q0 5 0.5 10.5t1.5 11.5h71q0 -18 9 -30t25 -17.5t36 -5.5q30 0 48.5 8.5t28.5 21.5t13 23h71q-5 -29 -24 -57.5t-54 -47.5t-91 -19z" />
    <glyph glyph-name="uni0331" unicode="&#x331;" horiz-adv-x="0" 
d="M-73 -154l12 73h302l-13 -73h-301z" />
    <glyph glyph-name="uni0335" unicode="&#x335;" horiz-adv-x="0" 
d="M12 330l14 78h326l-15 -78h-325z" />
    <glyph glyph-name="uni0336" unicode="&#x336;" horiz-adv-x="0" 
d="M11 327l16 86h709l-16 -86h-709z" />
    <glyph glyph-name="uni0337" unicode="&#x337;" horiz-adv-x="0" 
d="M-8 218l15 86l273 186l-15 -86z" />
    <glyph glyph-name="uni0338" unicode="&#x338;" horiz-adv-x="0" 
d="M-55 -49l554 624h73l-552 -624h-75z" />
    <glyph glyph-name="uni0394" unicode="&#x394;" horiz-adv-x="723" 
d="M-22 0l386 686h142l146 -686h-674zM147 96h373q-4 21 -11 49t-10 43l-57 279q-1 6 -4.5 26.5t-7.5 46.5t-8 48h-5q-11 -22 -24 -47t-23 -45t-14 -27l-155 -280q-7 -13 -17 -30t-19.5 -34t-17.5 -29z" />
    <glyph glyph-name="uni03A9" unicode="&#x3a9;" horiz-adv-x="799" 
d="M7 0l17 96h44q11 0 26 -2t33.5 -4t36.5 -4q-42 35 -65.5 85t-23.5 116q0 23 1.5 45t5.5 43q13 70 44.5 128.5t80.5 102.5t113.5 68t141.5 24q94 0 159.5 -30t100.5 -88t35 -143q0 -22 -1.5 -43.5t-5.5 -41.5q-16 -91 -63 -157.5t-114 -108.5q18 1 36.5 3.5t35 4.5t27.5 2
h46l-18 -96h-315l15 83q59 10 106 38t79 78t45 127q2 17 4 32t4 27.5t2.5 23t0.5 19.5q0 61 -21 100t-60 57t-94 18q-71 0 -126.5 -26.5t-92.5 -83.5t-53 -149q-3 -15 -4.5 -27.5t-2.5 -23t-1.5 -19.5t-0.5 -17q0 -52 17.5 -88.5t51.5 -56.5t82 -28l-15 -84h-314z" />
    <glyph glyph-name="uni03BC" unicode="&#x3bc;" horiz-adv-x="577" 
d="M-12 -182l126 708h104l-58 -330q-1 -13 -3 -24.5t-2 -21.5q0 -27 10 -42.5t28 -22t41 -6.5q29 0 55.5 10t49 30t38.5 49.5t23 67.5l51 290h105l-93 -526h-84l3 75h-7q-22 -27 -50.5 -46.5t-61 -30t-67.5 -10.5q-22 0 -40 4t-33 12q-1 -14 -3 -28l-4 -28l-24 -130h-104z
" />
    <glyph glyph-name="pi" unicode="&#x3c0;" horiz-adv-x="733" 
d="M56 0q23 39 46.5 94.5t45.5 117.5t39.5 121t26.5 106q-51 0 -80.5 -3t-49.5 -10l-10 70q25 14 71.5 22t121.5 8h471l-25 -87h-100l-49 -276q-7 -44 -11 -77t-4 -56q0 -9 1 -16.5t2 -13.5h-102q-2 5 -3.5 14t-1.5 22q0 20 3 47.5t9 63.5l52 292h-186q-11 -47 -29.5 -108.5
t-40.5 -125.5t-45 -118.5t-44 -86.5h-108z" />
    <glyph glyph-name="uni1E24" unicode="&#x1e24;" horiz-adv-x="734" 
d="M36 0l120 686h112l-51 -287h349l51 287h111l-120 -686h-112l53 303h-349l-53 -303h-111zM237 -190l17 105h106l-18 -105h-105z" />
    <glyph glyph-name="uni1E25" unicode="&#x1e25;" 
d="M21 0l127 723h104l-46 -260h7q21 23 48 40t57.5 26t63.5 9q42 0 75.5 -13t53.5 -42t20 -77q0 -16 -2 -33.5t-6 -37.5l-59 -335h-104l58 329q2 13 3.5 25t1.5 22q0 27 -10 42.5t-28 22t-42 6.5q-28 0 -55.5 -10.5t-50 -30.5t-39 -50t-22.5 -69l-51 -287h-104zM165 -190
l18 105h106l-18 -105h-106z" />
    <glyph glyph-name="uni1E62" unicode="&#x1e62;" horiz-adv-x="670" 
d="M309 -12q-59 0 -110 10t-89.5 30.5t-59.5 53t-21 77.5q0 14 2 30.5t6 29.5h111q-2 -9 -4.5 -21t-2.5 -21q0 -32 20 -53t56 -30.5t84 -9.5q47 0 82 7.5t59 22t36 35t12 45.5t-14.5 42.5t-38.5 30.5t-54.5 23t-63.5 19q-38 12 -76 25.5t-69.5 34.5t-50 51t-18.5 74
q0 53 22.5 91t61.5 63t90 37.5t108 12.5q56 0 102.5 -10t81.5 -29.5t54 -50t19 -71.5q0 -9 -1 -21t-4 -28h-111q3 11 4 18t1 12q0 41 -37.5 63t-105.5 22q-49 0 -88 -11t-61 -31.5t-22 -51.5q0 -21 11.5 -36t32 -26t46.5 -20.5t55 -17.5q41 -13 83.5 -27t78.5 -35t58 -53.5
t22 -79.5q0 -61 -24.5 -104t-66.5 -70t-95.5 -39.5t-110.5 -12.5zM204 -190l18 105h106l-18 -105h-106z" />
    <glyph glyph-name="uni1E62" unicode="&#x1e63;" horiz-adv-x="670" 
d="M309 -12q-59 0 -110 10t-89.5 30.5t-59.5 53t-21 77.5q0 14 2 30.5t6 29.5h111q-2 -9 -4.5 -21t-2.5 -21q0 -32 20 -53t56 -30.5t84 -9.5q47 0 82 7.5t59 22t36 35t12 45.5t-14.5 42.5t-38.5 30.5t-54.5 23t-63.5 19q-38 12 -76 25.5t-69.5 34.5t-50 51t-18.5 74
q0 53 22.5 91t61.5 63t90 37.5t108 12.5q56 0 102.5 -10t81.5 -29.5t54 -50t19 -71.5q0 -9 -1 -21t-4 -28h-111q3 11 4 18t1 12q0 41 -37.5 63t-105.5 22q-49 0 -88 -11t-61 -31.5t-22 -51.5q0 -21 11.5 -36t32 -26t46.5 -20.5t55 -17.5q41 -13 83.5 -27t78.5 -35t58 -53.5
t22 -79.5q0 -61 -24.5 -104t-66.5 -70t-95.5 -39.5t-110.5 -12.5zM204 -190l18 105h106l-18 -105h-106z" />
    <glyph glyph-name="uni1E6C" unicode="&#x1e6c;" horiz-adv-x="612" 
d="M204 0l103 590h-227l17 96h567l-16 -96h-229l-104 -590h-111zM176 -190l18 105h106l-18 -105h-106z" />
    <glyph glyph-name="uni1E6D" unicode="&#x1e6d;" horiz-adv-x="305" 
d="M157 -12q-39 0 -60.5 13t-30.5 33.5t-9 46.5q0 8 1 15.5t2 15.5l57 328h-66l15 86h68l45 147h82l-26 -147h96l-15 -86h-95l-54 -306q-1 -4 -2.5 -14.5t-1.5 -13.5q0 -15 9 -23.5t28 -8.5h52l-13 -70q-10 -4 -24 -7.5t-29 -6t-29 -2.5zM57 -190l17 105h107l-19 -105h-105z
" />
    <glyph glyph-name="Wgrave" unicode="&#x1e80;" horiz-adv-x="938" 
d="M156 0l-69 686h107l43 -452q2 -11 3 -30t2.5 -39.5t2.5 -37.5h6q6 17 13 37.5t14 39.5t10 30l183 452h143l34 -452q1 -11 1.5 -30t1.5 -39.5t2 -37.5h5l13.5 36t14.5 39.5t13 31.5l193 452h110l-304 -686h-135l-34 458q-1 15 -2 34.5t-1.5 40t-0.5 34.5h-6
q-5 -16 -12 -36.5t-13.5 -40t-12.5 -32.5l-190 -458h-135zM514 736l-87 129l1 3h113l62 -132h-89z" />
    <glyph glyph-name="wgrave" unicode="&#x1e81;" horiz-adv-x="740" 
d="M119 0l-65 526h104l25 -254q1 -14 3 -40t3.5 -54.5t2.5 -51.5h4q8 23 19 50.5t21 53.5t17 42l106 254h112l19 -254q1 -17 2.5 -43t3 -53.5t2.5 -49.5h4q8 20 18.5 47t21.5 53.5t19 45.5l112 254h104l-250 -526h-107l-19 277q-1 16 -2 38t-2 45t-1 40h-5q-6 -16 -14 -39
t-16.5 -45t-16.5 -39l-117 -277h-108zM392 591l-81 129l1 3h106l59 -132h-85z" />
    <glyph glyph-name="Wacute" unicode="&#x1e82;" horiz-adv-x="938" 
d="M156 0l-69 686h107l43 -452q2 -11 3 -30t2.5 -39.5t2.5 -37.5h6q6 17 13 37.5t14 39.5t10 30l183 452h143l34 -452q1 -11 1.5 -30t1.5 -39.5t2 -37.5h5l13.5 36t14.5 39.5t13 31.5l193 452h110l-304 -686h-135l-34 458q-1 15 -2 34.5t-1.5 40t-0.5 34.5h-6
q-5 -16 -12 -36.5t-13.5 -40t-12.5 -32.5l-190 -458h-135zM501 736l108 132h117v-3l-133 -129h-92z" />
    <glyph glyph-name="wacute" unicode="&#x1e83;" horiz-adv-x="740" 
d="M119 0l-65 526h104l25 -254q1 -14 3 -40t3.5 -54.5t2.5 -51.5h4q8 23 19 50.5t21 53.5t17 42l106 254h112l19 -254q1 -17 2.5 -43t3 -53.5t2.5 -49.5h4q8 20 18.5 47t21.5 53.5t19 45.5l112 254h104l-250 -526h-107l-19 277q-1 16 -2 38t-2 45t-1 40h-5q-6 -16 -14 -39
t-16.5 -45t-16.5 -39l-117 -277h-108zM379 591l106 132h114v-3l-130 -129h-90z" />
    <glyph glyph-name="Wdieresis" unicode="&#x1e84;" horiz-adv-x="938" 
d="M156 0l-69 686h107l43 -452q2 -11 3 -30t2.5 -39.5t2.5 -37.5h6q6 17 13 37.5t14 39.5t10 30l183 452h143l34 -452q1 -11 1.5 -30t1.5 -39.5t2 -37.5h5l13.5 36t14.5 39.5t13 31.5l193 452h110l-304 -686h-135l-34 458q-1 15 -2 34.5t-1.5 40t-0.5 34.5h-6
q-5 -16 -12 -36.5t-13.5 -40t-12.5 -32.5l-190 -458h-135zM411 766l17 102h97l-17 -102h-97zM605 766l18 102h97l-17 -102h-98z" />
    <glyph glyph-name="wdieresis" unicode="&#x1e85;" horiz-adv-x="740" 
d="M119 0l-65 526h104l25 -254q1 -14 3 -40t3.5 -54.5t2.5 -51.5h4q8 23 19 50.5t21 53.5t17 42l106 254h112l19 -254q1 -17 2.5 -43t3 -53.5t2.5 -49.5h4q8 20 18.5 47t21.5 53.5t19 45.5l112 254h104l-250 -526h-107l-19 277q-1 16 -2 38t-2 45t-1 40h-5q-6 -16 -14 -39
t-16.5 -45t-16.5 -39l-117 -277h-108zM291 621l18 101h97l-17 -101h-98zM487 621l18 101h98l-17 -101h-99z" />
    <glyph glyph-name="uni1E9E" unicode="&#x1e9e;" horiz-adv-x="785" 
d="M36 0l73 411q18 96 67.5 159.5t126 95.5t172.5 32q61 0 110 -12.5t84 -35t53.5 -55t18.5 -72.5q0 -38 -16.5 -73.5t-44 -61.5t-60.5 -37v-4q47 -13 73 -45.5t26 -83.5q0 -66 -31 -115t-86 -76t-125 -27h-227l18 97h214q38 0 65.5 17t43 43.5t15.5 54.5q0 24 -13.5 42
t-38.5 27.5t-62 9.5h-191l18 96h188q32 0 58.5 17t42.5 43.5t16 57.5q0 45 -37.5 72t-119.5 27q-69 0 -120 -21.5t-83.5 -66t-44.5 -112.5l-71 -404h-112z" />
    <glyph glyph-name="uni1EA0" unicode="&#x1ea0;" horiz-adv-x="695" 
d="M-35 0l386 686h141l146 -686h-114l-33 160h-320l-88 -160h-118zM224 255h247l-40 199q-3 16 -6.5 34t-7 36.5t-6 34.5t-4.5 29h-5q-10 -20 -23.5 -46.5t-26 -50.5t-20.5 -40zM222 -190l17 105h106l-18 -105h-105z" />
    <glyph glyph-name="uni1EA1" unicode="&#x1ea1;" 
d="M195 -12q-52 0 -90.5 21.5t-59.5 64t-21 106.5q0 20 2.5 42t6.5 47q16 94 50 153.5t83.5 87.5t111.5 28q35 0 63.5 -8.5t50.5 -25.5t35 -44h7l29 66h86l-23 -127q-7 -37 -14.5 -76.5t-14 -77t-12 -68t-8.5 -51t-3 -25.5q0 -13 8 -19.5t21 -6.5h36l-12 -71
q-10 -5 -27.5 -10.5t-41.5 -5.5q-27 0 -45 11.5t-26 33.5q-3 9 -5.5 19.5t-1.5 22.5h-7q-33 -44 -78.5 -65.5t-99.5 -21.5zM238 78q26 0 51 10.5t46 32t37 55t25 80.5q3 19 4.5 33t2.5 25t1 20q0 37 -11 62.5t-34 38.5t-59 13q-43 0 -74.5 -18t-52 -57t-32.5 -102
q-4 -21 -6 -36t-3 -27t-1 -22q0 -55 26 -81.5t80 -26.5zM170 -190l18 105h106l-18 -105h-106z" />
    <glyph glyph-name="uni1EA2" unicode="&#x1ea2;" horiz-adv-x="695" 
d="M-35 0l386 686h141l146 -686h-114l-33 160h-320l-88 -160h-118zM224 255h247l-40 199q-3 16 -6.5 34t-7 36.5t-6 34.5t-4.5 29h-5q-10 -20 -23.5 -46.5t-26 -50.5t-20.5 -40zM402 736l11 58h13q21 0 30 5.5t9 17.5q0 9 -8.5 12t-24.5 3h-60l6 40q12 3 26 4.5t28.5 2.5
t25.5 1q16 0 32 -2.5t29.5 -7.5t22 -15t8.5 -25q0 -21 -11.5 -35t-30.5 -22t-42 -10l-5 -27h-59z" />
    <glyph glyph-name="uni1EA3" unicode="&#x1ea3;" 
d="M195 -12q-52 0 -90.5 21.5t-59.5 64t-21 106.5q0 20 2.5 42t6.5 47q16 94 50 153.5t83.5 87.5t111.5 28q35 0 63.5 -8.5t50.5 -25.5t35 -44h7l29 66h86l-23 -127q-7 -37 -14.5 -76.5t-14 -77t-12 -68t-8.5 -51t-3 -25.5q0 -13 8 -19.5t21 -6.5h36l-12 -71
q-10 -5 -27.5 -10.5t-41.5 -5.5q-27 0 -45 11.5t-26 33.5q-3 9 -5.5 19.5t-1.5 22.5h-7q-33 -44 -78.5 -65.5t-99.5 -21.5zM238 78q26 0 51 10.5t46 32t37 55t25 80.5q3 19 4.5 33t2.5 25t1 20q0 37 -11 62.5t-34 38.5t-59 13q-43 0 -74.5 -18t-52 -57t-32.5 -102
q-4 -21 -6 -36t-3 -27t-1 -22q0 -55 26 -81.5t80 -26.5zM283 591l11 58h13q19 0 28 5.5t9 17.5q0 9 -8 12t-23 3h-61l6 40q12 3 26 4.5t28.5 2.5t24.5 1q16 0 32.5 -2.5t30 -7.5t22 -15t8.5 -25q0 -21 -11.5 -35t-30.5 -22t-42 -10l-5 -27h-58z" />
    <glyph glyph-name="uni1EA4" unicode="&#x1ea4;" horiz-adv-x="695" 
d="M-35 0l386 686h141l146 -686h-114l-33 160h-320l-88 -160h-118zM224 255h247l-40 199q-3 16 -6.5 34t-7 36.5t-6 34.5t-4.5 29h-5q-10 -20 -23.5 -46.5t-26 -50.5t-20.5 -40zM275 736l129 132h105l82 -132h-94l-66 107l49 -1l-106 -106h-99zM409 900l108 132h116v-3
l-132 -129h-92z" />
    <glyph glyph-name="uni1EA5" unicode="&#x1ea5;" 
d="M195 -12q-52 0 -90.5 21.5t-59.5 64t-21 106.5q0 20 2.5 42t6.5 47q16 94 50 153.5t83.5 87.5t111.5 28q35 0 63.5 -8.5t50.5 -25.5t35 -44h7l29 66h86l-23 -127q-7 -37 -14.5 -76.5t-14 -77t-12 -68t-8.5 -51t-3 -25.5q0 -13 8 -19.5t21 -6.5h36l-12 -71
q-10 -5 -27.5 -10.5t-41.5 -5.5q-27 0 -45 11.5t-26 33.5q-3 9 -5.5 19.5t-1.5 22.5h-7q-33 -44 -78.5 -65.5t-99.5 -21.5zM238 78q26 0 51 10.5t46 32t37 55t25 80.5q3 19 4.5 33t2.5 25t1 20q0 37 -11 62.5t-34 38.5t-59 13q-43 0 -74.5 -18t-52 -57t-32.5 -102
q-4 -21 -6 -36t-3 -27t-1 -22q0 -55 26 -81.5t80 -26.5zM168 591l130 132h98l81 -132h-90l-67 106h50l-106 -106h-96zM305 775l106 132h114v-3l-130 -129h-90z" />
    <glyph glyph-name="uni1EA6" unicode="&#x1ea6;" horiz-adv-x="695" 
d="M-35 0l386 686h141l146 -686h-114l-33 160h-320l-88 -160h-118zM224 255h247l-40 199q-3 16 -6.5 34t-7 36.5t-6 34.5t-4.5 29h-5q-10 -20 -23.5 -46.5t-26 -50.5t-20.5 -40zM275 736l129 132h105l82 -132h-94l-66 107l49 -1l-106 -106h-99zM422 900l-87 129l1 3h113
l61 -132h-88z" />
    <glyph glyph-name="uni1EA7" unicode="&#x1ea7;" 
d="M195 -12q-52 0 -90.5 21.5t-59.5 64t-21 106.5q0 20 2.5 42t6.5 47q16 94 50 153.5t83.5 87.5t111.5 28q35 0 63.5 -8.5t50.5 -25.5t35 -44h7l29 66h86l-23 -127q-7 -37 -14.5 -76.5t-14 -77t-12 -68t-8.5 -51t-3 -25.5q0 -13 8 -19.5t21 -6.5h36l-12 -71
q-10 -5 -27.5 -10.5t-41.5 -5.5q-27 0 -45 11.5t-26 33.5q-3 9 -5.5 19.5t-1.5 22.5h-7q-33 -44 -78.5 -65.5t-99.5 -21.5zM238 78q26 0 51 10.5t46 32t37 55t25 80.5q3 19 4.5 33t2.5 25t1 20q0 37 -11 62.5t-34 38.5t-59 13q-43 0 -74.5 -18t-52 -57t-32.5 -102
q-4 -21 -6 -36t-3 -27t-1 -22q0 -55 26 -81.5t80 -26.5zM168 591l130 132h98l81 -132h-90l-67 106h50l-106 -106h-96zM317 775l-80 129l1 3h105l59 -132h-85z" />
    <glyph glyph-name="uni1EA8" unicode="&#x1ea8;" horiz-adv-x="695" 
d="M-35 0l386 686h141l146 -686h-114l-33 160h-320l-88 -160h-118zM224 255h247l-40 199q-3 16 -6.5 34t-7 36.5t-6 34.5t-4.5 29h-5q-10 -20 -23.5 -46.5t-26 -50.5t-20.5 -40zM275 736l129 132h105l82 -132h-94l-66 107l49 -1l-106 -106h-99zM425 900l11 58h13
q21 0 29.5 5.5t8.5 17.5q0 9 -8 12t-24 3h-61l7 40q11 3 25.5 4.5t29 2.5t25.5 1q15 0 31 -2.5t30 -7.5t22.5 -15t8.5 -25q0 -21 -12 -35t-31 -22t-41 -10l-5 -27h-59z" />
    <glyph glyph-name="uni1EA9" unicode="&#x1ea9;" 
d="M195 -12q-52 0 -90.5 21.5t-59.5 64t-21 106.5q0 20 2.5 42t6.5 47q16 94 50 153.5t83.5 87.5t111.5 28q35 0 63.5 -8.5t50.5 -25.5t35 -44h7l29 66h86l-23 -127q-7 -37 -14.5 -76.5t-14 -77t-12 -68t-8.5 -51t-3 -25.5q0 -13 8 -19.5t21 -6.5h36l-12 -71
q-10 -5 -27.5 -10.5t-41.5 -5.5q-27 0 -45 11.5t-26 33.5q-3 9 -5.5 19.5t-1.5 22.5h-7q-33 -44 -78.5 -65.5t-99.5 -21.5zM238 78q26 0 51 10.5t46 32t37 55t25 80.5q3 19 4.5 33t2.5 25t1 20q0 37 -11 62.5t-34 38.5t-59 13q-43 0 -74.5 -18t-52 -57t-32.5 -102
q-4 -21 -6 -36t-3 -27t-1 -22q0 -55 26 -81.5t80 -26.5zM168 591l130 132h98l81 -132h-90l-67 106h50l-106 -106h-96zM315 775l10 58h14q19 0 28 5.5t9 17.5q0 9 -8 12t-23 3h-61l6 40q12 3 26 4.5t28.5 2.5t24.5 1q16 0 32 -2.5t30 -7.5t22.5 -15t8.5 -25q0 -21 -11.5 -35
t-31 -22t-41.5 -10l-5 -27h-58z" />
    <glyph glyph-name="uni1EAA" unicode="&#x1eaa;" horiz-adv-x="695" 
d="M-35 0l386 686h141l146 -686h-114l-33 160h-320l-88 -160h-118zM224 255h247l-40 199q-3 16 -6.5 34t-7 36.5t-6 34.5t-4.5 29h-5q-10 -20 -23.5 -46.5t-26 -50.5t-20.5 -40zM275 736l129 132h105l82 -132h-94l-66 107l49 -1l-106 -106h-99zM301 923q6 29 19.5 53
t35.5 39t53 15q26 0 48 -8t43 -17t43 -9q14 0 24 8t15 26h62q-5 -29 -19 -53.5t-36.5 -39t-53.5 -14.5q-25 0 -47 9t-42.5 17.5t-43.5 8.5q-15 0 -24.5 -8.5t-15.5 -26.5h-61z" />
    <glyph glyph-name="uni1EAB" unicode="&#x1eab;" 
d="M195 -12q-52 0 -90.5 21.5t-59.5 64t-21 106.5q0 20 2.5 42t6.5 47q16 94 50 153.5t83.5 87.5t111.5 28q35 0 63.5 -8.5t50.5 -25.5t35 -44h7l29 66h86l-23 -127q-7 -37 -14.5 -76.5t-14 -77t-12 -68t-8.5 -51t-3 -25.5q0 -13 8 -19.5t21 -6.5h36l-12 -71
q-10 -5 -27.5 -10.5t-41.5 -5.5q-27 0 -45 11.5t-26 33.5q-3 9 -5.5 19.5t-1.5 22.5h-7q-33 -44 -78.5 -65.5t-99.5 -21.5zM238 78q26 0 51 10.5t46 32t37 55t25 80.5q3 19 4.5 33t2.5 25t1 20q0 37 -11 62.5t-34 38.5t-59 13q-43 0 -74.5 -18t-52 -57t-32.5 -102
q-4 -21 -6 -36t-3 -27t-1 -22q0 -55 26 -81.5t80 -26.5zM168 591l130 132h98l81 -132h-90l-67 106h50l-106 -106h-96zM195 798q6 29 19.5 53.5t35.5 39.5t53 15q26 0 48.5 -8.5t43 -17.5t42.5 -9q15 0 24.5 8.5t14.5 26.5h63q-6 -29 -20 -54t-36.5 -39.5t-53.5 -14.5
q-25 0 -47 9t-42.5 18t-42.5 9q-15 0 -25 -9t-16 -27h-61z" />
    <glyph glyph-name="uni1EAC" unicode="&#x1eac;" horiz-adv-x="695" 
d="M-35 0l386 686h141l146 -686h-114l-33 160h-320l-88 -160h-118zM224 255h247l-40 199q-3 16 -6.5 34t-7 36.5t-6 34.5t-4.5 29h-5q-10 -20 -23.5 -46.5t-26 -50.5t-20.5 -40zM222 -190l17 105h106l-18 -105h-105zM275 736l129 132h105l82 -132h-94l-66 107l49 -1
l-106 -106h-99z" />
    <glyph glyph-name="uni1EAD" unicode="&#x1ead;" 
d="M195 -12q-52 0 -90.5 21.5t-59.5 64t-21 106.5q0 20 2.5 42t6.5 47q16 94 50 153.5t83.5 87.5t111.5 28q35 0 63.5 -8.5t50.5 -25.5t35 -44h7l29 66h86l-23 -127q-7 -37 -14.5 -76.5t-14 -77t-12 -68t-8.5 -51t-3 -25.5q0 -13 8 -19.5t21 -6.5h36l-12 -71
q-10 -5 -27.5 -10.5t-41.5 -5.5q-27 0 -45 11.5t-26 33.5q-3 9 -5.5 19.5t-1.5 22.5h-7q-33 -44 -78.5 -65.5t-99.5 -21.5zM238 78q26 0 51 10.5t46 32t37 55t25 80.5q3 19 4.5 33t2.5 25t1 20q0 37 -11 62.5t-34 38.5t-59 13q-43 0 -74.5 -18t-52 -57t-32.5 -102
q-4 -21 -6 -36t-3 -27t-1 -22q0 -55 26 -81.5t80 -26.5zM170 -190l18 105h106l-18 -105h-106zM168 591l130 132h98l81 -132h-90l-67 106h50l-106 -106h-96z" />
    <glyph glyph-name="uni1EAE" unicode="&#x1eae;" horiz-adv-x="695" 
d="M-35 0l386 686h141l146 -686h-114l-33 160h-320l-88 -160h-118zM224 255h247l-40 199q-3 16 -6.5 34t-7 36.5t-6 34.5t-4.5 29h-5q-10 -20 -23.5 -46.5t-26 -50.5t-20.5 -40zM440 745q-50 0 -79 14.5t-41.5 37.5t-12.5 49q0 5 0.5 11t1.5 11h71q0 -3 0.5 -6t0.5 -6
q3 -9 10 -18.5t21 -16t39 -6.5q29 0 48 9t29 21.5t12 22.5h71q-4 -29 -23.5 -57.5t-55.5 -47t-92 -18.5zM412 886l108 132h117v-3l-132 -129h-93z" />
    <glyph glyph-name="uni1EAF" unicode="&#x1eaf;" 
d="M195 -12q-52 0 -90.5 21.5t-59.5 64t-21 106.5q0 20 2.5 42t6.5 47q16 94 50 153.5t83.5 87.5t111.5 28q35 0 63.5 -8.5t50.5 -25.5t35 -44h7l29 66h86l-23 -127q-7 -37 -14.5 -76.5t-14 -77t-12 -68t-8.5 -51t-3 -25.5q0 -13 8 -19.5t21 -6.5h36l-12 -71
q-10 -5 -27.5 -10.5t-41.5 -5.5q-27 0 -45 11.5t-26 33.5q-3 9 -5.5 19.5t-1.5 22.5h-7q-33 -44 -78.5 -65.5t-99.5 -21.5zM238 78q26 0 51 10.5t46 32t37 55t25 80.5q3 19 4.5 33t2.5 25t1 20q0 37 -11 62.5t-34 38.5t-59 13q-43 0 -74.5 -18t-52 -57t-32.5 -102
q-4 -21 -6 -36t-3 -27t-1 -22q0 -55 26 -81.5t80 -26.5zM330 600q-50 0 -79.5 14.5t-42.5 37.5t-13 49q0 5 0.5 10.5t1.5 11.5h71q0 -18 9 -30t25 -17.5t37 -5.5q29 0 47.5 9t28.5 21.5t13 22.5h71q-4 -29 -23.5 -57.5t-54.5 -47t-91 -18.5zM305 775l106 132h114v-3
l-130 -129h-90z" />
    <glyph glyph-name="uni1EB0" unicode="&#x1eb0;" horiz-adv-x="695" 
d="M-35 0l386 686h141l146 -686h-114l-33 160h-320l-88 -160h-118zM224 255h247l-40 199q-3 16 -6.5 34t-7 36.5t-6 34.5t-4.5 29h-5q-10 -20 -23.5 -46.5t-26 -50.5t-20.5 -40zM440 745q-50 0 -79 14.5t-41.5 37.5t-12.5 49q0 5 0.5 11t1.5 11h71q0 -3 0.5 -6t0.5 -6
q3 -9 10 -18.5t21 -16t39 -6.5q29 0 48 9t29 21.5t12 22.5h71q-4 -29 -23.5 -57.5t-55.5 -47t-92 -18.5zM426 886l-87 129l1 3h112l62 -132h-88z" />
    <glyph glyph-name="uni1EB1" unicode="&#x1eb1;" 
d="M195 -12q-52 0 -90.5 21.5t-59.5 64t-21 106.5q0 20 2.5 42t6.5 47q16 94 50 153.5t83.5 87.5t111.5 28q35 0 63.5 -8.5t50.5 -25.5t35 -44h7l29 66h86l-23 -127q-7 -37 -14.5 -76.5t-14 -77t-12 -68t-8.5 -51t-3 -25.5q0 -13 8 -19.5t21 -6.5h36l-12 -71
q-10 -5 -27.5 -10.5t-41.5 -5.5q-27 0 -45 11.5t-26 33.5q-3 9 -5.5 19.5t-1.5 22.5h-7q-33 -44 -78.5 -65.5t-99.5 -21.5zM238 78q26 0 51 10.5t46 32t37 55t25 80.5q3 19 4.5 33t2.5 25t1 20q0 37 -11 62.5t-34 38.5t-59 13q-43 0 -74.5 -18t-52 -57t-32.5 -102
q-4 -21 -6 -36t-3 -27t-1 -22q0 -55 26 -81.5t80 -26.5zM330 600q-50 0 -79.5 14.5t-42.5 37.5t-13 49q0 5 0.5 10.5t1.5 11.5h71q0 -18 9 -30t25 -17.5t37 -5.5q29 0 47.5 9t28.5 21.5t13 22.5h71q-4 -29 -23.5 -57.5t-54.5 -47t-91 -18.5zM318 775l-81 129l1 3h106
l59 -132h-85z" />
    <glyph glyph-name="uni1EB2" unicode="&#x1eb2;" horiz-adv-x="695" 
d="M-35 0l386 686h141l146 -686h-114l-33 160h-320l-88 -160h-118zM224 255h247l-40 199q-3 16 -6.5 34t-7 36.5t-6 34.5t-4.5 29h-5q-10 -20 -23.5 -46.5t-26 -50.5t-20.5 -40zM440 745q-50 0 -79 14.5t-41.5 37.5t-12.5 49q0 5 0.5 11t1.5 11h71q0 -3 0.5 -6t0.5 -6
q3 -9 10 -18.5t21 -16t39 -6.5q29 0 48 9t29 21.5t12 22.5h71q-4 -29 -23.5 -57.5t-55.5 -47t-92 -18.5zM428 886l12 59h13q20 0 29 5t9 18q0 8 -8 11t-24 3h-61l6 40q12 3 26 4.5t28.5 2.5t25.5 1q16 0 32 -2t29.5 -7.5t22 -15t8.5 -24.5q0 -21 -11.5 -35.5t-30.5 -22
t-42 -9.5l-5 -28h-59z" />
    <glyph glyph-name="uni1EB3" unicode="&#x1eb3;" 
d="M195 -12q-52 0 -90.5 21.5t-59.5 64t-21 106.5q0 20 2.5 42t6.5 47q16 94 50 153.5t83.5 87.5t111.5 28q35 0 63.5 -8.5t50.5 -25.5t35 -44h7l29 66h86l-23 -127q-7 -37 -14.5 -76.5t-14 -77t-12 -68t-8.5 -51t-3 -25.5q0 -13 8 -19.5t21 -6.5h36l-12 -71
q-10 -5 -27.5 -10.5t-41.5 -5.5q-27 0 -45 11.5t-26 33.5q-3 9 -5.5 19.5t-1.5 22.5h-7q-33 -44 -78.5 -65.5t-99.5 -21.5zM238 78q26 0 51 10.5t46 32t37 55t25 80.5q3 19 4.5 33t2.5 25t1 20q0 37 -11 62.5t-34 38.5t-59 13q-43 0 -74.5 -18t-52 -57t-32.5 -102
q-4 -21 -6 -36t-3 -27t-1 -22q0 -55 26 -81.5t80 -26.5zM330 600q-50 0 -79.5 14.5t-42.5 37.5t-13 49q0 5 0.5 10.5t1.5 11.5h71q0 -18 9 -30t25 -17.5t37 -5.5q29 0 47.5 9t28.5 21.5t13 22.5h71q-4 -29 -23.5 -57.5t-54.5 -47t-91 -18.5zM315 775l11 58h13q19 0 28 5.5
t9 17.5q0 9 -8 12t-23 3h-61l6 40q12 3 26 4.5t28.5 2.5t24.5 1q16 0 32.5 -2.5t30 -7.5t22 -15t8.5 -25q0 -21 -11.5 -35t-30.5 -22t-42 -10l-5 -27h-58z" />
    <glyph glyph-name="uni1EB4" unicode="&#x1eb4;" horiz-adv-x="695" 
d="M-35 0l386 686h141l146 -686h-114l-33 160h-320l-88 -160h-118zM224 255h247l-40 199q-3 16 -6.5 34t-7 36.5t-6 34.5t-4.5 29h-5q-10 -20 -23.5 -46.5t-26 -50.5t-20.5 -40zM440 745q-50 0 -79 14.5t-41.5 37.5t-12.5 49q0 5 0.5 11t1.5 11h71q0 -3 0.5 -6t0.5 -6
q3 -9 10 -18.5t21 -16t39 -6.5q29 0 48 9t29 21.5t12 22.5h71q-4 -29 -23.5 -57.5t-55.5 -47t-92 -18.5zM304 909q6 29 19.5 53.5t36 39.5t53.5 15q26 0 47.5 -8.5t42.5 -17.5t44 -9q14 0 23.5 8.5t15.5 26.5h62q-5 -29 -19.5 -54t-36.5 -39.5t-54 -14.5q-25 0 -46.5 9
t-42 18t-44.5 9q-14 0 -24 -9t-15 -27h-62z" />
    <glyph glyph-name="uni1EB5" unicode="&#x1eb5;" 
d="M195 -12q-52 0 -90.5 21.5t-59.5 64t-21 106.5q0 20 2.5 42t6.5 47q16 94 50 153.5t83.5 87.5t111.5 28q35 0 63.5 -8.5t50.5 -25.5t35 -44h7l29 66h86l-23 -127q-7 -37 -14.5 -76.5t-14 -77t-12 -68t-8.5 -51t-3 -25.5q0 -13 8 -19.5t21 -6.5h36l-12 -71
q-10 -5 -27.5 -10.5t-41.5 -5.5q-27 0 -45 11.5t-26 33.5q-3 9 -5.5 19.5t-1.5 22.5h-7q-33 -44 -78.5 -65.5t-99.5 -21.5zM238 78q26 0 51 10.5t46 32t37 55t25 80.5q3 19 4.5 33t2.5 25t1 20q0 37 -11 62.5t-34 38.5t-59 13q-43 0 -74.5 -18t-52 -57t-32.5 -102
q-4 -21 -6 -36t-3 -27t-1 -22q0 -55 26 -81.5t80 -26.5zM330 600q-50 0 -79.5 14.5t-42.5 37.5t-13 49q0 5 0.5 10.5t1.5 11.5h71q0 -18 9 -30t25 -17.5t37 -5.5q29 0 47.5 9t28.5 21.5t13 22.5h71q-4 -29 -23.5 -57.5t-54.5 -47t-91 -18.5zM195 798q6 29 19.5 53.5t36 39.5
t53.5 15q26 0 48 -8.5t42.5 -17.5t43.5 -9q14 0 23.5 8.5t15.5 26.5h62q-5 -29 -19.5 -54t-36.5 -39.5t-54 -14.5q-25 0 -46.5 9t-42.5 18t-43 9q-15 0 -25 -9t-15 -27h-62z" />
    <glyph glyph-name="uni1EB6" unicode="&#x1eb6;" horiz-adv-x="695" 
d="M-35 0l386 686h141l146 -686h-114l-33 160h-320l-88 -160h-118zM224 255h247l-40 199q-3 16 -6.5 34t-7 36.5t-6 34.5t-4.5 29h-5q-10 -20 -23.5 -46.5t-26 -50.5t-20.5 -40zM222 -190l17 105h106l-18 -105h-105zM440 745q-50 0 -79 14.5t-41.5 37.5t-12.5 49q0 5 0.5 11
t1.5 11h71q0 -3 0.5 -6t0.5 -6q3 -9 10 -18.5t21 -16t39 -6.5q29 0 48 9t29 21.5t12 22.5h71q-4 -29 -23.5 -57.5t-55.5 -47t-92 -18.5z" />
    <glyph glyph-name="uni1EB7" unicode="&#x1eb7;" 
d="M195 -12q-52 0 -90.5 21.5t-59.5 64t-21 106.5q0 20 2.5 42t6.5 47q16 94 50 153.5t83.5 87.5t111.5 28q35 0 63.5 -8.5t50.5 -25.5t35 -44h7l29 66h86l-23 -127q-7 -37 -14.5 -76.5t-14 -77t-12 -68t-8.5 -51t-3 -25.5q0 -13 8 -19.5t21 -6.5h36l-12 -71
q-10 -5 -27.5 -10.5t-41.5 -5.5q-27 0 -45 11.5t-26 33.5q-3 9 -5.5 19.5t-1.5 22.5h-7q-33 -44 -78.5 -65.5t-99.5 -21.5zM238 78q26 0 51 10.5t46 32t37 55t25 80.5q3 19 4.5 33t2.5 25t1 20q0 37 -11 62.5t-34 38.5t-59 13q-43 0 -74.5 -18t-52 -57t-32.5 -102
q-4 -21 -6 -36t-3 -27t-1 -22q0 -55 26 -81.5t80 -26.5zM170 -190l18 105h106l-18 -105h-106zM330 600q-50 0 -79.5 14.5t-42.5 37.5t-13 49q0 5 0.5 10.5t1.5 11.5h71q0 -18 9 -30t25 -17.5t37 -5.5q29 0 47.5 9t28.5 21.5t13 22.5h71q-4 -29 -23.5 -57.5t-54.5 -47
t-91 -18.5z" />
    <glyph glyph-name="uni1EB8" unicode="&#x1eb8;" horiz-adv-x="674" 
d="M36 0l120 686h532l-17 -96h-419l-34 -191h376l-16 -96h-378l-36 -207h427l-17 -96h-538zM222 -190l18 105h106l-19 -105h-105z" />
    <glyph glyph-name="uni1EB9" unicode="&#x1eb9;" horiz-adv-x="554" 
d="M257 -12q-74 0 -124 21.5t-74.5 66t-24.5 111.5q0 27 3 55t8 53q14 70 46.5 124.5t87 86.5t137.5 32q69 0 115 -21.5t69 -64t23 -105.5q0 -23 -3.5 -52t-11.5 -58h-364q-2 -14 -3 -25.5t-1 -23.5q0 -39 12.5 -65t38.5 -38t66 -12q25 0 47 6t40 19t31.5 33.5t19.5 50.5
h102q-9 -50 -30.5 -86.5t-53 -60t-71 -35.5t-85.5 -12zM158 313h256q2 12 3 22.5t1 19.5q0 34 -11.5 56t-34.5 32.5t-55 10.5q-41 0 -72.5 -16t-52.5 -47.5t-34 -77.5zM154 -190l18 105h106l-18 -105h-106z" />
    <glyph glyph-name="uni1EBA" unicode="&#x1eba;" horiz-adv-x="674" 
d="M36 0l120 686h532l-17 -96h-419l-34 -191h376l-16 -96h-378l-36 -207h427l-17 -96h-538zM396 736l12 58h13q20 0 29 5.5t9 17.5q0 9 -8 12t-24 3h-61l6 40q12 3 26 4.5t28.5 2.5t25.5 1q16 0 32 -2.5t29.5 -7.5t22 -15t8.5 -25q0 -21 -11.5 -35t-30.5 -22t-42 -10l-5 -27
h-59z" />
    <glyph glyph-name="uni1EBB" unicode="&#x1ebb;" horiz-adv-x="554" 
d="M257 -12q-74 0 -124 21.5t-74.5 66t-24.5 111.5q0 27 3 55t8 53q14 70 46.5 124.5t87 86.5t137.5 32q69 0 115 -21.5t69 -64t23 -105.5q0 -23 -3.5 -52t-11.5 -58h-364q-2 -14 -3 -25.5t-1 -23.5q0 -39 12.5 -65t38.5 -38t66 -12q25 0 47 6t40 19t31.5 33.5t19.5 50.5
h102q-9 -50 -30.5 -86.5t-53 -60t-71 -35.5t-85.5 -12zM158 313h256q2 12 3 22.5t1 19.5q0 34 -11.5 56t-34.5 32.5t-55 10.5q-41 0 -72.5 -16t-52.5 -47.5t-34 -77.5zM287 591l10 58h14q19 0 28 5.5t9 17.5q0 9 -8 12t-23 3h-62l7 40q11 3 25.5 4.5t28.5 2.5t25 1
q15 0 31.5 -2.5t30.5 -7.5t22.5 -15t8.5 -25q0 -21 -12 -35t-31 -22t-41 -10l-5 -27h-58z" />
    <glyph glyph-name="uni1EBC" unicode="&#x1ebc;" horiz-adv-x="674" 
d="M36 0l120 686h532l-17 -96h-419l-34 -191h376l-16 -96h-378l-36 -207h427l-17 -96h-538zM272 759q6 29 19.5 53t36 39t53.5 15q26 0 47.5 -8t42.5 -17t44 -9q14 0 23.5 8t15.5 26h62q-5 -29 -19.5 -53.5t-36.5 -39t-54 -14.5q-25 0 -46.5 9t-42 17.5t-44.5 8.5
q-14 0 -24 -8.5t-15 -26.5h-62z" />
    <glyph glyph-name="uni1EBD" unicode="&#x1ebd;" horiz-adv-x="554" 
d="M257 -12q-74 0 -124 21.5t-74.5 66t-24.5 111.5q0 27 3 55t8 53q14 70 46.5 124.5t87 86.5t137.5 32q69 0 115 -21.5t69 -64t23 -105.5q0 -23 -3.5 -52t-11.5 -58h-364q-2 -14 -3 -25.5t-1 -23.5q0 -39 12.5 -65t38.5 -38t66 -12q25 0 47 6t40 19t31.5 33.5t19.5 50.5
h102q-9 -50 -30.5 -86.5t-53 -60t-71 -35.5t-85.5 -12zM158 313h256q2 12 3 22.5t1 19.5q0 34 -11.5 56t-34.5 32.5t-55 10.5q-41 0 -72.5 -16t-52.5 -47.5t-34 -77.5zM167 614q6 29 19.5 53.5t35.5 39.5t53 15q26 0 48 -8.5t43 -17.5t43 -9q15 0 24.5 8.5t14.5 26.5h63
q-6 -29 -20 -54t-36.5 -39.5t-54.5 -14.5q-24 0 -46 9t-42.5 18t-42.5 9q-15 0 -25 -9t-16 -27h-61z" />
    <glyph glyph-name="uni1EBE" unicode="&#x1ebe;" horiz-adv-x="674" 
d="M36 0l120 686h532l-17 -96h-419l-34 -191h376l-16 -96h-378l-36 -207h427l-17 -96h-538zM269 736l130 132h104l82 -132h-93l-67 107l50 -1l-107 -106h-99zM403 900l108 132h117v-3l-133 -129h-92z" />
    <glyph glyph-name="uni1EBF" unicode="&#x1ebf;" horiz-adv-x="554" 
d="M257 -12q-74 0 -124 21.5t-74.5 66t-24.5 111.5q0 27 3 55t8 53q14 70 46.5 124.5t87 86.5t137.5 32q69 0 115 -21.5t69 -64t23 -105.5q0 -23 -3.5 -52t-11.5 -58h-364q-2 -14 -3 -25.5t-1 -23.5q0 -39 12.5 -65t38.5 -38t66 -12q25 0 47 6t40 19t31.5 33.5t19.5 50.5
h102q-9 -50 -30.5 -86.5t-53 -60t-71 -35.5t-85.5 -12zM158 313h256q2 12 3 22.5t1 19.5q0 34 -11.5 56t-34.5 32.5t-55 10.5q-41 0 -72.5 -16t-52.5 -47.5t-34 -77.5zM172 591l130 132h98l81 -132h-90l-67 106h50l-106 -106h-96zM308 775l106 132h115v-3l-131 -129h-90z
" />
    <glyph glyph-name="uni1EC0" unicode="&#x1ec0;" horiz-adv-x="674" 
d="M36 0l120 686h532l-17 -96h-419l-34 -191h376l-16 -96h-378l-36 -207h427l-17 -96h-538zM269 736l130 132h104l82 -132h-93l-67 107l50 -1l-107 -106h-99zM417 900l-88 129l1 3h113l62 -132h-88z" />
    <glyph glyph-name="uni1EC1" unicode="&#x1ec1;" horiz-adv-x="554" 
d="M257 -12q-74 0 -124 21.5t-74.5 66t-24.5 111.5q0 27 3 55t8 53q14 70 46.5 124.5t87 86.5t137.5 32q69 0 115 -21.5t69 -64t23 -105.5q0 -23 -3.5 -52t-11.5 -58h-364q-2 -14 -3 -25.5t-1 -23.5q0 -39 12.5 -65t38.5 -38t66 -12q25 0 47 6t40 19t31.5 33.5t19.5 50.5
h102q-9 -50 -30.5 -86.5t-53 -60t-71 -35.5t-85.5 -12zM158 313h256q2 12 3 22.5t1 19.5q0 34 -11.5 56t-34.5 32.5t-55 10.5q-41 0 -72.5 -16t-52.5 -47.5t-34 -77.5zM172 591l130 132h98l81 -132h-90l-67 106h50l-106 -106h-96zM321 775l-81 129l1 3h106l59 -132h-85z" />
    <glyph glyph-name="uni1EC2" unicode="&#x1ec2;" horiz-adv-x="674" 
d="M36 0l120 686h532l-17 -96h-419l-34 -191h376l-16 -96h-378l-36 -207h427l-17 -96h-538zM269 736l130 132h104l82 -132h-93l-67 107l50 -1l-107 -106h-99zM419 900l11 58h13q21 0 30 5.5t9 17.5q0 9 -8.5 12t-24.5 3h-60l6 40q12 3 26 4.5t28.5 2.5t25.5 1q16 0 32 -2.5
t29.5 -7.5t22 -15t8.5 -25q0 -21 -11.5 -35t-30.5 -22t-42 -10l-5 -27h-59z" />
    <glyph glyph-name="uni1EC3" unicode="&#x1ec3;" horiz-adv-x="554" 
d="M257 -12q-74 0 -124 21.5t-74.5 66t-24.5 111.5q0 27 3 55t8 53q14 70 46.5 124.5t87 86.5t137.5 32q69 0 115 -21.5t69 -64t23 -105.5q0 -23 -3.5 -52t-11.5 -58h-364q-2 -14 -3 -25.5t-1 -23.5q0 -39 12.5 -65t38.5 -38t66 -12q25 0 47 6t40 19t31.5 33.5t19.5 50.5
h102q-9 -50 -30.5 -86.5t-53 -60t-71 -35.5t-85.5 -12zM158 313h256q2 12 3 22.5t1 19.5q0 34 -11.5 56t-34.5 32.5t-55 10.5q-41 0 -72.5 -16t-52.5 -47.5t-34 -77.5zM172 591l130 132h98l81 -132h-90l-67 106h50l-106 -106h-96zM318 775l11 58h14q19 0 27.5 5.5t8.5 17.5
q0 9 -7.5 12t-22.5 3h-62l7 40q11 3 25.5 4.5t28.5 2.5t25 1q15 0 31.5 -2.5t30 -7.5t22 -15t8.5 -25q0 -21 -11.5 -35t-30.5 -22t-41 -10l-6 -27h-58z" />
    <glyph glyph-name="uni1EC4" unicode="&#x1ec4;" horiz-adv-x="674" 
d="M36 0l120 686h532l-17 -96h-419l-34 -191h376l-16 -96h-378l-36 -207h427l-17 -96h-538zM269 736l130 132h104l82 -132h-93l-67 107l50 -1l-107 -106h-99zM295 923q6 29 19.5 53t35.5 39t54 15q26 0 47.5 -8t42.5 -17t43 -9q14 0 24 8t15 26h62q-5 -29 -19 -53.5t-36 -39
t-54 -14.5q-25 0 -46.5 9t-42.5 17.5t-44 8.5q-14 0 -24 -8.5t-15 -26.5h-62z" />
    <glyph glyph-name="uni1EC5" unicode="&#x1ec5;" horiz-adv-x="554" 
d="M257 -12q-74 0 -124 21.5t-74.5 66t-24.5 111.5q0 27 3 55t8 53q14 70 46.5 124.5t87 86.5t137.5 32q69 0 115 -21.5t69 -64t23 -105.5q0 -23 -3.5 -52t-11.5 -58h-364q-2 -14 -3 -25.5t-1 -23.5q0 -39 12.5 -65t38.5 -38t66 -12q25 0 47 6t40 19t31.5 33.5t19.5 50.5
h102q-9 -50 -30.5 -86.5t-53 -60t-71 -35.5t-85.5 -12zM158 313h256q2 12 3 22.5t1 19.5q0 34 -11.5 56t-34.5 32.5t-55 10.5q-41 0 -72.5 -16t-52.5 -47.5t-34 -77.5zM172 591l130 132h98l81 -132h-90l-67 106h50l-106 -106h-96zM199 798q6 29 19 53.5t35.5 39.5t53.5 15
q26 0 48 -8.5t42.5 -17.5t43.5 -9q15 0 24 8.5t15 26.5h63q-6 -29 -20 -54t-36.5 -39.5t-54.5 -14.5q-25 0 -46.5 9t-42 18t-43.5 9q-14 0 -24 -9t-16 -27h-61z" />
    <glyph glyph-name="uni1EC6" unicode="&#x1ec6;" horiz-adv-x="674" 
d="M36 0l120 686h532l-17 -96h-419l-34 -191h376l-16 -96h-378l-36 -207h427l-17 -96h-538zM222 -190l18 105h106l-19 -105h-105zM269 736l130 132h104l82 -132h-93l-67 107l50 -1l-107 -106h-99z" />
    <glyph glyph-name="uni1EC7" unicode="&#x1ec7;" horiz-adv-x="554" 
d="M257 -12q-74 0 -124 21.5t-74.5 66t-24.5 111.5q0 27 3 55t8 53q14 70 46.5 124.5t87 86.5t137.5 32q69 0 115 -21.5t69 -64t23 -105.5q0 -23 -3.5 -52t-11.5 -58h-364q-2 -14 -3 -25.5t-1 -23.5q0 -39 12.5 -65t38.5 -38t66 -12q25 0 47 6t40 19t31.5 33.5t19.5 50.5
h102q-9 -50 -30.5 -86.5t-53 -60t-71 -35.5t-85.5 -12zM158 313h256q2 12 3 22.5t1 19.5q0 34 -11.5 56t-34.5 32.5t-55 10.5q-41 0 -72.5 -16t-52.5 -47.5t-34 -77.5zM154 -190l18 105h106l-18 -105h-106zM172 591l130 132h98l81 -132h-90l-67 106h50l-106 -106h-96z" />
    <glyph glyph-name="uni1EC8" unicode="&#x1ec8;" horiz-adv-x="274" 
d="M35 0l121 686h112l-121 -686h-112zM188 736l11 58h13q20 0 29 5.5t9 17.5q0 9 -8 12t-24 3h-61l7 40q11 3 25.5 4.5t28.5 2.5t25 1q16 0 32 -2.5t29.5 -7.5t22 -15t8.5 -25q0 -21 -11.5 -35t-30.5 -22t-42 -10l-5 -27h-58z" />
    <glyph glyph-name="uni1EC9" unicode="&#x1ec9;" horiz-adv-x="238" 
d="M21 0l93 526h104l-93 -526h-104zM133 591l11 58h13q19 0 28 5.5t9 17.5q0 9 -8 12t-23 3h-61l6 40q12 3 26 4.5t28.5 2.5t24.5 1q16 0 32.5 -2.5t30 -7.5t22 -15t8.5 -25q0 -21 -11.5 -35t-30.5 -22t-42 -10l-5 -27h-58z" />
    <glyph glyph-name="uni1ECA" unicode="&#x1eca;" horiz-adv-x="274" 
d="M35 0l121 686h112l-121 -686h-112zM7 -190l17 105h106l-18 -105h-105z" />
    <glyph glyph-name="uni1ECB" unicode="&#x1ecb;" horiz-adv-x="238" 
d="M128 617l19 106h104l-19 -106h-104zM21 0l93 526h104l-93 -526h-104zM-12 -190l17 105h106l-18 -105h-105z" />
    <glyph glyph-name="uni1ECC" unicode="&#x1ecc;" horiz-adv-x="785" 
d="M357 -12q-96 0 -163.5 30t-103.5 90t-36 148q0 25 2 48.5t6 46.5q18 107 69.5 185t133.5 120t192 42q96 0 163.5 -30t104 -90t36.5 -148q0 -23 -2 -46t-6 -46q-17 -107 -69 -186t-134.5 -121.5t-192.5 -42.5zM357 84q60 0 107 17t82 50t57 80t33 106q2 15 4 27.5t3 22.5
t1.5 19.5t0.5 18.5q0 59 -22 98.5t-64.5 59.5t-102.5 20q-59 0 -106.5 -17.5t-82.5 -50t-57 -79.5t-33 -106q-2 -15 -3.5 -27.5t-2.5 -23t-1.5 -19.5t-0.5 -18q0 -59 22 -98.5t64 -59.5t102 -20zM265 -190l18 105h106l-18 -105h-106z" />
    <glyph glyph-name="uni1ECD" unicode="&#x1ecd;" horiz-adv-x="583" 
d="M252 -12q-72 0 -121 21.5t-74 65.5t-25 112q0 19 2 40t6 44q16 92 54 151t97 87.5t139 28.5q73 0 122 -21.5t73.5 -65.5t24.5 -113q0 -19 -1.5 -39.5t-6.5 -43.5q-16 -92 -53 -151t-95.5 -87.5t-141.5 -28.5zM258 74q49 0 84 19.5t57.5 59.5t32.5 101q5 20 6.5 34.5
t2 25.5t0.5 20q0 40 -12.5 66t-38.5 39t-66 13q-49 0 -83.5 -20t-57 -59.5t-34.5 -100.5q-3 -20 -5 -35t-3 -25.5t-1 -20.5q0 -40 12.5 -65.5t39.5 -38.5t66 -13zM160 -190l18 105h106l-18 -105h-106z" />
    <glyph glyph-name="uni1ECE" unicode="&#x1ece;" horiz-adv-x="785" 
d="M357 -12q-96 0 -163.5 30t-103.5 90t-36 148q0 25 2 48.5t6 46.5q18 107 69.5 185t133.5 120t192 42q96 0 163.5 -30t104 -90t36.5 -148q0 -23 -2 -46t-6 -46q-17 -107 -69 -186t-134.5 -121.5t-192.5 -42.5zM357 84q60 0 107 17t82 50t57 80t33 106q2 15 4 27.5t3 22.5
t1.5 19.5t0.5 18.5q0 59 -22 98.5t-64.5 59.5t-102.5 20q-59 0 -106.5 -17.5t-82.5 -50t-57 -79.5t-33 -106q-2 -15 -3.5 -27.5t-2.5 -23t-1.5 -19.5t-0.5 -18q0 -59 22 -98.5t64 -59.5t102 -20zM442 736l12 58h13q20 0 29 5.5t9 17.5q0 9 -8 12t-24 3h-61l6 40q12 3 26 4.5
t28.5 2.5t25.5 1q16 0 32 -2.5t29.5 -7.5t22 -15t8.5 -25q0 -21 -11.5 -35t-30.5 -22t-42 -10l-5 -27h-59z" />
    <glyph glyph-name="uni1ECF" unicode="&#x1ecf;" horiz-adv-x="583" 
d="M252 -12q-72 0 -121 21.5t-74 65.5t-25 112q0 19 2 40t6 44q16 92 54 151t97 87.5t139 28.5q73 0 122 -21.5t73.5 -65.5t24.5 -113q0 -19 -1.5 -39.5t-6.5 -43.5q-16 -92 -53 -151t-95.5 -87.5t-141.5 -28.5zM258 74q49 0 84 19.5t57.5 59.5t32.5 101q5 20 6.5 34.5
t2 25.5t0.5 20q0 40 -12.5 66t-38.5 39t-66 13q-49 0 -83.5 -20t-57 -59.5t-34.5 -100.5q-3 -20 -5 -35t-3 -25.5t-1 -20.5q0 -40 12.5 -65.5t39.5 -38.5t66 -13zM306 591l10 58h14q19 0 28 5.5t9 17.5q0 9 -8 12t-23 3h-61l6 40q12 3 26 4.5t28.5 2.5t24.5 1q16 0 32 -2.5
t30 -7.5t22.5 -15t8.5 -25q0 -21 -11.5 -35t-30.5 -22t-42 -10l-5 -27h-58z" />
    <glyph glyph-name="uni1ED0" unicode="&#x1ed0;" horiz-adv-x="785" 
d="M357 -12q-96 0 -163.5 30t-103.5 90t-36 148q0 25 2 48.5t6 46.5q18 107 69.5 185t133.5 120t192 42q96 0 163.5 -30t104 -90t36.5 -148q0 -23 -2 -46t-6 -46q-17 -107 -69 -186t-134.5 -121.5t-192.5 -42.5zM357 84q60 0 107 17t82 50t57 80t33 106q2 15 4 27.5t3 22.5
t1.5 19.5t0.5 18.5q0 59 -22 98.5t-64.5 59.5t-102.5 20q-59 0 -106.5 -17.5t-82.5 -50t-57 -79.5t-33 -106q-2 -15 -3.5 -27.5t-2.5 -23t-1.5 -19.5t-0.5 -18q0 -59 22 -98.5t64 -59.5t102 -20zM315 736l130 132h104l82 -132h-93l-67 107l50 -1l-107 -106h-99zM449 900
l108 132h117v-3l-133 -129h-92z" />
    <glyph glyph-name="uni1ED1" unicode="&#x1ed1;" horiz-adv-x="583" 
d="M252 -12q-72 0 -121 21.5t-74 65.5t-25 112q0 19 2 40t6 44q16 92 54 151t97 87.5t139 28.5q73 0 122 -21.5t73.5 -65.5t24.5 -113q0 -19 -1.5 -39.5t-6.5 -43.5q-16 -92 -53 -151t-95.5 -87.5t-141.5 -28.5zM258 74q49 0 84 19.5t57.5 59.5t32.5 101q5 20 6.5 34.5
t2 25.5t0.5 20q0 40 -12.5 66t-38.5 39t-66 13q-49 0 -83.5 -20t-57 -59.5t-34.5 -100.5q-3 -20 -5 -35t-3 -25.5t-1 -20.5q0 -40 12.5 -65.5t39.5 -38.5t66 -13zM191 591l130 132h98l81 -132h-90l-67 106h50l-106 -106h-96zM328 775l105 132h115v-3l-130 -129h-90z" />
    <glyph glyph-name="uni1ED2" unicode="&#x1ed2;" horiz-adv-x="785" 
d="M357 -12q-96 0 -163.5 30t-103.5 90t-36 148q0 25 2 48.5t6 46.5q18 107 69.5 185t133.5 120t192 42q96 0 163.5 -30t104 -90t36.5 -148q0 -23 -2 -46t-6 -46q-17 -107 -69 -186t-134.5 -121.5t-192.5 -42.5zM357 84q60 0 107 17t82 50t57 80t33 106q2 15 4 27.5t3 22.5
t1.5 19.5t0.5 18.5q0 59 -22 98.5t-64.5 59.5t-102.5 20q-59 0 -106.5 -17.5t-82.5 -50t-57 -79.5t-33 -106q-2 -15 -3.5 -27.5t-2.5 -23t-1.5 -19.5t-0.5 -18q0 -59 22 -98.5t64 -59.5t102 -20zM315 736l130 132h104l82 -132h-93l-67 107l50 -1l-107 -106h-99zM463 900
l-88 129l1 3h113l62 -132h-88z" />
    <glyph glyph-name="uni1ED3" unicode="&#x1ed3;" horiz-adv-x="583" 
d="M252 -12q-72 0 -121 21.5t-74 65.5t-25 112q0 19 2 40t6 44q16 92 54 151t97 87.5t139 28.5q73 0 122 -21.5t73.5 -65.5t24.5 -113q0 -19 -1.5 -39.5t-6.5 -43.5q-16 -92 -53 -151t-95.5 -87.5t-141.5 -28.5zM258 74q49 0 84 19.5t57.5 59.5t32.5 101q5 20 6.5 34.5
t2 25.5t0.5 20q0 40 -12.5 66t-38.5 39t-66 13q-49 0 -83.5 -20t-57 -59.5t-34.5 -100.5q-3 -20 -5 -35t-3 -25.5t-1 -20.5q0 -40 12.5 -65.5t39.5 -38.5t66 -13zM191 591l130 132h98l81 -132h-90l-67 106h50l-106 -106h-96zM340 775l-81 129l1 3h106l59 -132h-85z" />
    </font>
</defs>
</svg>
